<svg xmlns="http://www.w3.org/2000/svg" xmlns:xlink="http://www.w3.org/1999/xlink" width="95" zoomAndPan="magnify" viewBox="0 0 71.25 64.499999" height="86" preserveAspectRatio="xMidYMid meet" version="1.0"><defs><clipPath id="cdc98add25"><path d="M 0 2 L 70.507812 2 L 70.507812 61.890625 L 0 61.890625 Z M 0 2 " clip-rule="nonzero"/></clipPath></defs><g clip-path="url(#cdc98add25)"><path fill="#ffffff" d="M 13.722656 40.152344 C 13.871094 40.152344 14.019531 40.152344 14.167969 40.152344 C 14.164062 40 14.152344 39.859375 14.144531 39.714844 C 14.054688 39.792969 13.953125 39.890625 13.859375 40 C 13.820312 40.054688 13.769531 40.101562 13.722656 40.152344 Z M 13.882812 42.027344 C 13.992188 42.050781 14.101562 42.074219 14.207031 42.097656 C 14.207031 41.660156 14.195312 41.214844 14.191406 40.761719 C 13.605469 40.75 13.121094 40.75 12.835938 40.753906 C 12.5625 40.90625 12.285156 41.050781 12.035156 41.226562 C 12.617188 41.425781 13.246094 41.6875 13.804688 42.023438 C 13.832031 42.023438 13.855469 42.019531 13.882812 42.027344 Z M 13.386719 51.769531 C 14.347656 50.703125 17.277344 48.820312 15.5 47.261719 C 14.8125 46.652344 13.777344 46.046875 13.058594 47.148438 C 12.949219 47.316406 12.796875 47.519531 12.660156 47.664062 C 12.257812 48.082031 11.699219 48.402344 11.527344 48.988281 C 11.429688 49.339844 11.394531 49.507812 11.199219 49.816406 C 10.277344 51.246094 9.199219 52.527344 7.65625 53.265625 C 6.699219 53.730469 5.847656 53.851562 5.140625 54.742188 C 4.53125 55.515625 4.160156 56.421875 3.59375 57.214844 C 3.128906 57.875 2.933594 58.863281 2.429688 59.433594 C 2.09375 59.816406 1.65625 60.089844 1.300781 60.457031 C 1.332031 60.421875 0.195312 61.457031 1.027344 61.445312 C 2.296875 60.660156 3.0625 59.421875 4.445312 58.746094 C 5.40625 58.273438 6.464844 58.039062 7.4375 57.566406 C 8.40625 57.09375 8.679688 56.1875 9.257812 55.367188 C 10.300781 53.890625 12.195312 53.09375 13.386719 51.769531 Z M 16.21875 42.460938 C 16.214844 41.898438 16.21875 41.34375 16.230469 40.851562 C 15.746094 40.816406 15.253906 40.792969 14.792969 40.777344 C 14.804688 41.269531 14.808594 41.753906 14.808594 42.234375 C 15.277344 42.324219 15.746094 42.398438 16.21875 42.460938 Z M 16.285156 44.511719 C 16.253906 44.085938 16.234375 43.585938 16.226562 43.070312 C 15.765625 43.007812 15.308594 42.933594 14.851562 42.851562 C 14.867188 42.867188 14.894531 42.890625 14.910156 42.910156 C 15.367188 43.425781 15.820312 43.976562 16.285156 44.511719 Z M 16.242188 40.222656 C 16.246094 40.011719 16.253906 39.828125 16.257812 39.6875 C 15.746094 39.378906 15.238281 39.199219 14.722656 39.363281 C 14.746094 39.625 14.761719 39.890625 14.773438 40.15625 C 15.265625 40.164062 15.753906 40.183594 16.242188 40.222656 Z M 18.316406 46.636719 C 18.402344 46.292969 18.484375 45.941406 18.554688 45.589844 C 18.074219 45.515625 17.589844 45.445312 17.105469 45.394531 C 17.253906 45.542969 17.394531 45.691406 17.542969 45.828125 C 17.796875 46.066406 18.058594 46.34375 18.316406 46.636719 Z M 18.671875 45.007812 C 18.769531 44.472656 18.859375 43.929688 18.941406 43.394531 C 18.234375 43.3125 17.53125 43.234375 16.824219 43.148438 C 16.835938 43.691406 16.863281 44.230469 16.917969 44.773438 C 17.507812 44.828125 18.089844 44.910156 18.671875 45.007812 Z M 19.03125 42.804688 C 19.085938 42.433594 19.140625 42.058594 19.195312 41.6875 C 18.914062 41.476562 18.617188 41.277344 18.320312 41.074219 C 18.269531 41.101562 18.203125 41.113281 18.125 41.097656 C 17.761719 41.015625 17.324219 40.957031 16.851562 40.910156 C 16.839844 41.46875 16.824219 42.011719 16.824219 42.546875 C 17.558594 42.640625 18.296875 42.71875 19.03125 42.804688 Z M 19.839844 48.742188 C 19.929688 48.542969 20.019531 48.34375 20.09375 48.140625 C 19.867188 48.144531 19.644531 48.148438 19.460938 48.148438 C 19.550781 48.289062 19.640625 48.425781 19.722656 48.558594 C 19.757812 48.621094 19.796875 48.679688 19.839844 48.742188 Z M 20.089844 50.960938 C 20.207031 50.898438 20.3125 50.832031 20.421875 50.765625 C 20.105469 49.960938 19.3125 48.925781 18.769531 48.292969 C 18.210938 47.648438 17.722656 46.847656 17.113281 46.253906 C 15.28125 44.46875 14.070312 42.542969 11.527344 41.691406 C 11.382812 41.886719 11.269531 42.117188 11.214844 42.398438 C 10.960938 43.695312 11.085938 45.800781 12.496094 46.484375 C 12.582031 46.53125 12.628906 46.59375 12.644531 46.664062 C 12.710938 46.558594 12.777344 46.453125 12.839844 46.34375 C 13.214844 45.667969 13.757812 45.664062 14.410156 45.867188 C 15.53125 46.222656 17.46875 48.054688 16.5 49.386719 C 16.332031 49.613281 16.152344 49.839844 15.964844 50.054688 C 17.136719 50.644531 18.855469 51.625 20.089844 50.960938 Z M 20.738281 45.988281 C 20.207031 45.886719 19.679688 45.789062 19.148438 45.691406 C 19.046875 46.199219 18.929688 46.707031 18.792969 47.21875 C 18.878906 47.328125 18.964844 47.441406 19.046875 47.550781 C 19.445312 47.546875 19.882812 47.515625 20.316406 47.503906 C 20.472656 47.003906 20.605469 46.496094 20.738281 45.988281 Z M 20.757812 43.039062 C 20.757812 43.035156 20.753906 43.03125 20.75 43.027344 C 20.429688 42.6875 20.09375 42.390625 19.742188 42.109375 C 19.699219 42.367188 19.664062 42.621094 19.625 42.878906 C 20.007812 42.925781 20.386719 42.976562 20.757812 43.039062 Z M 21.449219 43.886719 C 21.402344 43.828125 21.363281 43.765625 21.316406 43.707031 C 21.273438 43.71875 21.226562 43.726562 21.175781 43.714844 C 20.632812 43.617188 20.082031 43.539062 19.535156 43.46875 C 19.453125 44.015625 19.367188 44.5625 19.261719 45.113281 C 19.8125 45.207031 20.355469 45.3125 20.898438 45.417969 C 21.046875 44.890625 21.21875 44.378906 21.449219 43.886719 Z M 21.8125 49.738281 C 21.800781 49.730469 21.796875 49.722656 21.785156 49.710938 C 21.710938 49.710938 21.628906 49.710938 21.558594 49.699219 C 21.429688 49.671875 21.300781 49.621094 21.175781 49.605469 C 20.902344 49.566406 20.636719 49.519531 20.359375 49.492188 C 20.574219 49.789062 20.777344 50.097656 20.929688 50.425781 C 21.234375 50.210938 21.523438 49.976562 21.8125 49.738281 Z M 21.890625 49.109375 C 21.992188 48.820312 22.085938 48.527344 22.171875 48.234375 C 21.839844 48.199219 21.511719 48.140625 21.167969 48.136719 C 21.054688 48.136719 20.917969 48.136719 20.777344 48.136719 C 20.675781 48.386719 20.566406 48.636719 20.445312 48.886719 C 20.753906 48.902344 21.066406 48.941406 21.332031 49.019531 C 21.511719 49.078125 21.707031 49.085938 21.890625 49.109375 Z M 22.371094 47.625 C 22.519531 47.214844 22.734375 46.773438 22.84375 46.347656 C 22.363281 46.28125 21.878906 46.203125 21.402344 46.117188 C 21.347656 46.324219 21.300781 46.53125 21.242188 46.722656 C 21.167969 46.992188 21.085938 47.25 21.003906 47.503906 C 21.191406 47.515625 21.378906 47.53125 21.566406 47.5625 C 21.839844 47.609375 22.105469 47.621094 22.371094 47.625 Z M 22.855469 45.742188 C 22.800781 45.6875 22.746094 45.632812 22.695312 45.574219 C 22.390625 45.226562 22.125 44.851562 21.859375 44.46875 C 21.734375 44.808594 21.636719 45.171875 21.542969 45.535156 C 21.980469 45.617188 22.414062 45.683594 22.855469 45.742188 Z M 23.25 48.289062 C 23.09375 48.265625 22.945312 48.261719 22.792969 48.261719 C 22.699219 48.558594 22.609375 48.859375 22.511719 49.15625 C 22.570312 49.101562 22.636719 49.050781 22.699219 48.996094 C 22.90625 48.835938 23.09375 48.566406 23.25 48.289062 Z M 23.558594 47.652344 C 23.773438 47.152344 23.664062 46.765625 23.433594 46.425781 C 23.320312 46.839844 23.121094 47.234375 22.980469 47.648438 C 23.160156 47.660156 23.34375 47.683594 23.523438 47.726562 C 23.535156 47.707031 23.550781 47.679688 23.558594 47.652344 Z M 24.75 46.757812 C 24.746094 46.746094 24.738281 46.738281 24.738281 46.726562 C 24.414062 44.8125 22.449219 42.574219 21.003906 41.457031 C 20.269531 40.894531 19.34375 40.425781 18.675781 39.8125 C 18.039062 39.230469 16.96875 38.421875 16.144531 38.230469 C 16.117188 38.222656 16.101562 38.210938 16.082031 38.203125 C 15.921875 38.335938 15.761719 38.472656 15.613281 38.605469 C 15.628906 38.609375 15.644531 38.613281 15.65625 38.621094 C 16.242188 39.011719 16.886719 39.273438 17.488281 39.644531 C 17.855469 39.875 18.21875 40.113281 18.574219 40.363281 C 18.867188 40.566406 19.273438 41.027344 19.605469 41.132812 C 19.679688 41.160156 19.75 41.214844 19.792969 41.289062 C 20.039062 41.492188 20.277344 41.703125 20.492188 41.910156 C 21.191406 42.585938 21.882812 43.382812 22.4375 44.175781 C 22.9375 44.882812 23.742188 45.570312 24.105469 46.355469 C 24.195312 46.550781 24.242188 46.769531 24.253906 47.003906 C 24.449219 46.9375 24.613281 46.851562 24.75 46.757812 Z M 25.214844 46.160156 C 25.792969 44.53125 22.914062 41.519531 22.027344 40.671875 C 20.960938 39.652344 20.050781 38.707031 18.660156 38.128906 C 18.332031 37.996094 17.976562 37.761719 17.613281 37.664062 C 17.519531 37.679688 17.425781 37.664062 17.363281 37.613281 C 17.207031 37.597656 17.058594 37.613281 16.902344 37.675781 C 16.839844 37.703125 16.773438 37.734375 16.707031 37.773438 C 17.472656 38.050781 18.21875 38.582031 18.796875 39.109375 C 19.800781 40.027344 21.121094 40.628906 22.140625 41.539062 C 22.960938 42.257812 23.515625 43.207031 24.125 44.101562 C 24.535156 44.695312 24.992188 45.433594 25.214844 46.160156 Z M 25.953125 29.898438 C 25.902344 29.519531 25.816406 29.164062 25.65625 28.8125 C 25.050781 29.234375 24.402344 29.832031 24.136719 30.101562 C 24.0625 30.167969 24.003906 30.234375 23.941406 30.296875 C 24.597656 30.300781 25.285156 30.097656 25.953125 29.898438 Z M 25.808594 45.117188 C 26.007812 45.019531 26.167969 44.894531 26.304688 44.746094 C 25.472656 43.449219 24.785156 42.011719 23.867188 40.746094 C 23.15625 39.765625 21.734375 38.734375 20.699219 38.050781 C 19.886719 37.511719 19.0625 36.976562 18.097656 36.78125 C 18.023438 36.90625 17.964844 37.046875 17.925781 37.203125 C 18.199219 37.296875 18.476562 37.425781 18.8125 37.546875 C 20.597656 38.191406 21.78125 39.621094 23.152344 40.859375 C 24.082031 41.699219 25.492188 43.539062 25.808594 45.117188 Z M 26.175781 31.714844 C 26.140625 31.308594 26.082031 30.894531 26.03125 30.488281 C 25.570312 30.621094 25.097656 30.765625 24.628906 30.851562 C 25.167969 31.109375 25.679688 31.398438 26.175781 31.714844 Z M 27.183594 43.273438 C 27.1875 43.261719 27.199219 43.25 27.207031 43.238281 C 27.050781 42.597656 26.28125 41.6875 25.976562 41.261719 C 25.316406 40.34375 24.65625 39.453125 23.855469 38.65625 C 22.582031 37.378906 21.140625 35.894531 19.324219 35.496094 C 19.097656 35.789062 18.804688 36.015625 18.53125 36.265625 C 19.578125 36.539062 20.515625 37.167969 21.371094 37.800781 C 22.292969 38.480469 23.308594 39.164062 24.078125 40.019531 C 25.164062 41.226562 25.84375 42.835938 26.6875 44.214844 C 26.859375 43.910156 27.007812 43.574219 27.183594 43.273438 Z M 27.683594 42.824219 C 27.777344 42.769531 27.878906 42.71875 27.980469 42.667969 C 27.289062 40.546875 26.113281 39.121094 24.414062 37.683594 C 23.140625 36.613281 21.769531 34.890625 20.066406 34.507812 C 20.03125 34.5 20.007812 34.480469 19.976562 34.464844 C 19.78125 34.636719 19.730469 34.742188 19.632812 34.949219 C 21.636719 35.441406 23.1875 37.109375 24.589844 38.527344 C 25.472656 39.425781 26.375 40.535156 26.984375 41.628906 C 27.1875 41.988281 27.492188 42.402344 27.683594 42.824219 Z M 28.28125 29.457031 C 28.257812 29.324219 28.234375 29.191406 28.207031 29.058594 C 27.792969 28.816406 27.382812 28.585938 26.980469 28.359375 C 26.851562 28.367188 26.71875 28.371094 26.589844 28.378906 C 26.472656 28.382812 26.332031 28.425781 26.179688 28.503906 C 26.367188 28.894531 26.480469 29.296875 26.539062 29.726562 C 26.671875 29.691406 26.800781 29.652344 26.929688 29.632812 C 27.382812 29.53125 27.832031 29.488281 28.28125 29.457031 Z M 28.636719 31.597656 C 28.5625 31.089844 28.480469 30.578125 28.390625 30.074219 C 27.796875 30.132812 27.214844 30.199219 26.617188 30.335938 C 26.679688 30.800781 26.742188 31.269531 26.785156 31.738281 C 27.398438 31.714844 28.019531 31.660156 28.636719 31.597656 Z M 28.8125 33.273438 C 28.789062 32.914062 28.757812 32.550781 28.71875 32.191406 C 28.164062 32.253906 27.617188 32.300781 27.066406 32.328125 C 27.496094 32.648438 27.910156 32.988281 28.3125 33.347656 C 28.351562 33.328125 28.398438 33.3125 28.453125 33.304688 C 28.570312 33.300781 28.691406 33.285156 28.8125 33.273438 Z M 28.914062 41.824219 C 28.894531 41.804688 28.878906 41.777344 28.867188 41.742188 C 27.597656 38.167969 24.753906 34.59375 21.015625 33.480469 C 20.835938 33.625 20.6875 33.792969 20.59375 34.007812 C 20.59375 34.011719 20.585938 34.015625 20.585938 34.019531 C 22.328125 34.574219 23.4375 36.152344 24.839844 37.257812 C 25.894531 38.085938 26.585938 38.632812 27.304688 39.800781 C 27.828125 40.65625 28.203125 41.441406 28.511719 42.359375 C 28.644531 42.257812 28.761719 42.132812 28.847656 41.964844 C 28.867188 41.910156 28.890625 41.871094 28.914062 41.824219 Z M 29.035156 24.976562 C 29.277344 24.835938 29.496094 24.675781 29.703125 24.5 C 29.070312 24.496094 28.351562 24.453125 27.757812 24.089844 C 27.78125 24.175781 27.796875 24.261719 27.796875 24.351562 C 27.796875 24.675781 27.890625 24.984375 27.894531 25.304688 C 27.902344 25.550781 28.949219 25.027344 29.035156 24.976562 Z M 29.316406 41.242188 C 29.394531 41.191406 29.488281 41.132812 29.621094 41.066406 C 28.878906 39.6875 28.429688 38.144531 27.539062 36.832031 C 26.386719 35.148438 24.339844 33.089844 22.210938 32.816406 C 22.039062 32.898438 21.863281 32.980469 21.691406 33.066406 C 25.28125 34.359375 27.984375 37.730469 29.316406 41.242188 Z M 29.925781 23.5625 C 29.203125 23.585938 28.308594 23.414062 27.78125 22.917969 C 27.710938 22.992188 27.632812 23.058594 27.554688 23.132812 C 27.632812 23.191406 27.730469 23.269531 27.734375 23.273438 C 27.910156 23.441406 28.03125 23.582031 28.261719 23.683594 C 28.792969 23.925781 29.457031 23.898438 29.859375 23.898438 C 29.878906 23.898438 29.894531 23.90625 29.910156 23.90625 C 29.910156 23.902344 29.910156 23.894531 29.910156 23.882812 C 29.910156 23.777344 29.921875 23.667969 29.925781 23.5625 Z M 30.152344 40.777344 C 30.4375 40.601562 30.601562 40.410156 30.730469 40.15625 C 29.570312 36.847656 26.746094 32.652344 23.027344 32.171875 C 22.988281 32.238281 22.945312 32.292969 22.890625 32.347656 C 24.765625 32.867188 26.46875 34.460938 27.609375 35.910156 C 28.761719 37.394531 29.273438 39.164062 30.152344 40.777344 Z M 30.992188 20.25 C 30.8125 20.214844 30.632812 20.191406 30.460938 20.136719 C 30.21875 20.054688 29.976562 19.992188 29.761719 19.84375 C 29.535156 19.683594 29.328125 19.550781 29.203125 19.300781 C 29.132812 19.417969 29.066406 19.542969 28.984375 19.652344 C 28.6875 20.066406 28.398438 20.570312 28.253906 21.058594 C 28.085938 21.597656 27.847656 22.011719 28.335938 22.484375 C 28.792969 22.921875 29.382812 23.023438 29.984375 22.96875 C 30.117188 22.015625 30.457031 21.0625 30.992188 20.25 Z M 31.425781 35.34375 C 31.246094 35.378906 31.0625 35.417969 30.886719 35.457031 C 30.707031 35.496094 30.503906 35.488281 30.320312 35.511719 C 30.628906 35.953125 30.914062 36.414062 31.1875 36.882812 C 31.207031 36.882812 31.234375 36.882812 31.253906 36.882812 C 31.304688 36.367188 31.378906 35.859375 31.425781 35.34375 Z M 31.46875 33.007812 C 31.46875 32.652344 31.457031 32.289062 31.441406 31.929688 C 30.730469 31.972656 30.019531 32.050781 29.3125 32.132812 C 29.355469 32.480469 29.390625 32.835938 29.414062 33.199219 C 29.851562 33.128906 30.292969 33.050781 30.738281 33.03125 C 30.980469 33.019531 31.222656 33.011719 31.46875 33.007812 Z M 31.46875 34.492188 C 31.46875 34.195312 31.46875 33.898438 31.46875 33.605469 C 31.320312 33.605469 31.167969 33.609375 31.019531 33.617188 C 30.492188 33.644531 29.96875 33.734375 29.445312 33.804688 C 29.449219 33.945312 29.457031 34.078125 29.457031 34.214844 C 29.457031 34.289062 29.433594 34.347656 29.394531 34.390625 C 29.582031 34.582031 29.753906 34.785156 29.921875 34.988281 C 29.925781 34.984375 29.925781 34.980469 29.933594 34.980469 C 30.394531 34.808594 30.9375 34.773438 31.460938 34.71875 C 31.460938 34.648438 31.46875 34.570312 31.46875 34.492188 Z M 31.46875 31.320312 C 31.472656 31.3125 31.480469 31.300781 31.484375 31.292969 C 30.914062 30.808594 30.277344 30.355469 29.621094 29.929688 C 29.410156 29.960938 29.199219 29.984375 28.992188 30.007812 C 29.078125 30.519531 29.164062 31.023438 29.234375 31.535156 C 29.980469 31.449219 30.726562 31.371094 31.46875 31.320312 Z M 31.386719 19.726562 C 31.585938 19.492188 31.800781 19.269531 32.039062 19.078125 C 31.679688 19.035156 31.273438 18.957031 30.90625 18.800781 C 30.535156 18.636719 30.152344 18.496094 29.816406 18.28125 C 29.777344 18.320312 29.734375 18.359375 29.695312 18.398438 C 29.703125 18.457031 29.683594 18.519531 29.648438 18.574219 C 29.648438 18.585938 29.660156 18.597656 29.660156 18.609375 C 29.675781 19.082031 29.960938 19.332031 30.390625 19.480469 C 30.570312 19.535156 30.757812 19.582031 30.9375 19.640625 C 31.078125 19.6875 31.238281 19.675781 31.386719 19.726562 Z M 31.398438 39.308594 C 31.566406 39.347656 31.71875 39.335938 31.851562 39.296875 C 31.039062 37.863281 30.347656 36.21875 29.1875 35.035156 C 27.484375 33.296875 25.714844 31.882812 23.445312 30.980469 C 23.359375 31.152344 23.296875 31.34375 23.226562 31.59375 C 26.964844 32.1875 29.75 35.996094 31.089844 39.398438 C 31.097656 39.394531 31.101562 39.390625 31.105469 39.386719 C 31.191406 39.316406 31.285156 39.28125 31.398438 39.308594 Z M 32.28125 16.847656 C 32.28125 16.730469 32.324219 16.003906 32.144531 16.136719 C 31.851562 16.359375 31.546875 16.664062 31.207031 16.8125 C 30.875 16.960938 30.570312 17.179688 30.238281 17.339844 C 29.6875 17.597656 30.089844 17.796875 30.457031 17.917969 C 30.835938 18.042969 31.140625 18.253906 31.527344 18.371094 C 31.738281 18.4375 32.039062 18.476562 32.277344 18.492188 C 32.277344 17.929688 32.28125 17.378906 32.28125 16.847656 Z M 33.023438 32.933594 C 32.738281 32.550781 32.4375 32.1875 32.109375 31.859375 C 32.089844 31.871094 32.066406 31.875 32.042969 31.882812 C 32.0625 32.253906 32.074219 32.628906 32.074219 33 C 32.394531 32.992188 32.710938 32.976562 33.023438 32.933594 Z M 34.050781 34.507812 C 33.875 34.175781 33.679688 33.871094 33.574219 33.714844 C 33.519531 33.628906 33.457031 33.546875 33.402344 33.464844 C 33.375 33.480469 33.351562 33.492188 33.308594 33.5 C 32.902344 33.566406 32.488281 33.582031 32.074219 33.59375 C 32.074219 33.894531 32.074219 34.195312 32.074219 34.492188 C 32.074219 34.542969 32.070312 34.582031 32.070312 34.632812 C 32.148438 34.613281 32.222656 34.597656 32.296875 34.578125 C 32.902344 34.40625 33.445312 34.4375 34.050781 34.507812 Z M 33.71875 37.273438 C 33.394531 37.257812 33.046875 37.285156 32.765625 37.285156 C 32.527344 37.285156 32.148438 37.285156 31.808594 37.285156 C 31.777344 37.421875 31.667969 37.503906 31.546875 37.519531 C 31.816406 38.007812 32.085938 38.492188 32.359375 38.976562 C 32.597656 38.742188 32.792969 38.445312 32.976562 38.226562 C 33.261719 37.894531 33.507812 37.585938 33.71875 37.273438 Z M 34.402344 35.628906 C 34.421875 35.484375 34.382812 35.289062 34.308594 35.082031 C 34.265625 35.109375 34.207031 35.128906 34.136719 35.117188 C 33.394531 35.03125 32.824219 35.15625 32.097656 35.238281 C 32.078125 35.242188 32.058594 35.246094 32.039062 35.246094 C 31.996094 35.796875 31.914062 36.332031 31.855469 36.882812 C 32.265625 36.882812 32.613281 36.882812 33 36.882812 C 33.3125 36.882812 33.667969 36.792969 34 36.796875 C 34.144531 36.511719 34.261719 36.203125 34.351562 35.847656 C 34.367188 35.777344 34.382812 35.703125 34.402344 35.628906 Z M 34.871094 32.878906 C 34.941406 31.75 34.371094 31.226562 33.671875 30.351562 C 32.5625 28.960938 31.703125 28.273438 29.800781 28.273438 C 29.238281 28.273438 28.683594 28.289062 28.128906 28.308594 C 29.910156 29.308594 31.882812 30.488281 33.078125 32.050781 C 33.519531 32.636719 34.253906 33.464844 34.679688 34.3125 C 34.769531 33.820312 34.835938 33.328125 34.871094 32.878906 Z M 35.375 23.492188 C 35.546875 23.296875 35.75 23.128906 35.960938 22.96875 C 35.609375 22.71875 35.253906 22.433594 34.960938 22.121094 C 34.722656 21.875 34.472656 21.578125 34.175781 21.40625 C 33.792969 21.195312 33.492188 21.214844 33.082031 21.226562 C 33.046875 21.230469 33.015625 21.222656 32.988281 21.214844 C 32.867188 21.339844 32.742188 21.457031 32.609375 21.5625 C 33.570312 21.953125 34.53125 22.789062 35.375 23.492188 Z M 36.011719 29.144531 C 36.839844 28.316406 35.425781 27.652344 34.871094 27.25 C 34.71875 27.132812 34.503906 27.019531 34.386719 26.859375 C 34.21875 26.632812 33.679688 27.132812 33.546875 27.226562 C 33.292969 27.402344 33.070312 27.609375 32.847656 27.820312 C 32.816406 27.910156 32.742188 27.992188 32.636719 28.015625 C 32.582031 28.070312 32.519531 28.121094 32.464844 28.175781 C 33.300781 28.84375 33.914062 29.625 34.554688 30.476562 C 35.058594 30.046875 35.546875 29.609375 36.011719 29.144531 Z M 37.023438 22.28125 C 37.0625 22.253906 37.105469 22.242188 37.144531 22.226562 C 36.3125 21.4375 35.417969 20.414062 34.410156 20.113281 C 34.394531 20.105469 34.382812 20.097656 34.367188 20.085938 C 34.039062 20.144531 33.765625 20.375 33.523438 20.628906 C 34.007812 20.652344 34.421875 20.769531 34.824219 21.144531 C 35.347656 21.632812 35.859375 22.183594 36.457031 22.582031 C 36.472656 22.585938 36.476562 22.605469 36.492188 22.617188 C 36.671875 22.503906 36.855469 22.390625 37.023438 22.28125 Z M 37.984375 30.957031 C 39.230469 30.679688 38.496094 28.28125 37.757812 27.78125 C 37.746094 27.773438 37.738281 27.761719 37.730469 27.75 C 37.71875 27.742188 37.707031 27.742188 37.699219 27.734375 C 36.234375 26.539062 34.75 25.414062 33.167969 24.378906 C 32.265625 23.789062 31.238281 23.472656 30.570312 22.664062 C 30.527344 22.816406 30.492188 22.96875 30.464844 23.128906 C 30.535156 23.257812 30.527344 23.417969 30.410156 23.496094 C 30.367188 23.8125 30.363281 24.128906 30.390625 24.449219 C 30.414062 24.503906 30.421875 24.566406 30.402344 24.625 C 30.558594 25.851562 31.207031 26.964844 32.445312 27.363281 C 32.542969 27.265625 32.636719 27.171875 32.738281 27.074219 C 32.539062 26.945312 32.355469 26.789062 32.292969 26.554688 C 32.210938 26.246094 32.324219 25.941406 32.511719 25.695312 C 32.730469 25.40625 33.160156 25.382812 33.441406 25.601562 C 33.597656 25.722656 33.75 25.792969 33.875 25.957031 C 33.929688 26.027344 33.980469 26.101562 34.019531 26.179688 C 34.09375 26.15625 34.175781 26.136719 34.261719 26.125 C 34.464844 26.089844 34.609375 26.21875 34.753906 26.351562 C 35.109375 26.683594 35.519531 26.867188 35.898438 27.160156 C 36.304688 27.46875 37.207031 28.328125 36.914062 28.929688 C 36.667969 29.4375 36.292969 29.828125 35.882812 30.1875 C 36.5625 30.523438 37.078125 31.152344 37.984375 30.957031 Z M 40.46875 25.402344 C 40.671875 24.972656 40.503906 24.660156 40.269531 24.300781 C 40.265625 24.292969 40.265625 24.289062 40.257812 24.277344 C 39.570312 23.898438 38.871094 23.527344 38.222656 23.089844 C 37.785156 22.925781 37.480469 22.675781 37.007812 23 C 36.625 23.261719 36.171875 23.53125 35.851562 23.875 C 35.929688 23.933594 36.011719 23.996094 36.089844 24.054688 C 37.183594 24.859375 38.382812 25.679688 39.136719 26.839844 C 39.167969 26.894531 39.207031 26.941406 39.238281 26.988281 C 39.488281 26.78125 39.757812 26.59375 39.929688 26.308594 C 40.003906 26.183594 40.1875 26.027344 40.242188 25.90625 C 40.308594 25.734375 40.390625 25.574219 40.46875 25.402344 Z M 42.894531 21.820312 C 43.167969 21.511719 42.171875 20.625 42.027344 20.488281 C 42.050781 20.507812 41.265625 19.972656 41.25 20.015625 C 41.199219 20.140625 41.140625 20.253906 41.035156 20.332031 C 40.578125 20.675781 40.164062 21.054688 39.691406 21.375 C 40.347656 21.878906 41.011719 22.375 41.6875 22.859375 C 41.875 22.652344 42.058594 22.453125 42.277344 22.273438 C 42.46875 22.113281 42.730469 22.007812 42.894531 21.820312 Z M 45.46875 29.828125 C 45.480469 29.570312 45.457031 29.328125 45.378906 29.078125 C 45.054688 28.394531 44.277344 27.398438 43.410156 27.582031 C 43.308594 27.605469 43.21875 27.640625 43.136719 27.679688 C 43.113281 27.699219 43.097656 27.707031 43.070312 27.71875 C 42.476562 28.078125 42.480469 28.945312 42.863281 29.53125 C 43.257812 30.136719 43.925781 30.3125 44.621094 30.359375 C 45.039062 30.386719 45.445312 30.359375 45.46875 29.828125 Z M 47.375 26.304688 C 47.539062 26.179688 46.660156 25.453125 46.570312 25.414062 C 46.351562 25.324219 45.839844 25.144531 45.628906 25.378906 C 46.191406 25.707031 46.761719 26.03125 47.339844 26.34375 C 47.351562 26.328125 47.359375 26.316406 47.375 26.304688 Z M 47.476562 30.679688 C 49.03125 31.414062 47.054688 29.957031 46.808594 29.75 C 46.511719 29.492188 46.3125 29.3125 46.378906 28.902344 C 46.460938 28.402344 46.210938 28.089844 45.882812 27.867188 C 45.824219 27.832031 45.765625 27.792969 45.707031 27.753906 C 45.527344 27.648438 45.332031 27.5625 45.164062 27.480469 C 44.894531 27.347656 44.007812 26.78125 43.539062 26.980469 C 44.613281 26.992188 45.5 27.875 45.925781 28.828125 C 45.929688 28.839844 45.929688 28.851562 45.933594 28.863281 C 45.9375 28.871094 45.949219 28.886719 45.953125 28.902344 C 46.050781 29.175781 46.089844 29.5 46.070312 29.804688 C 46.597656 29.996094 46.964844 30.441406 47.476562 30.679688 Z M 49.925781 16.28125 C 50.132812 16.09375 50.324219 15.886719 50.511719 15.683594 C 50.195312 15.347656 50.023438 15.03125 50.148438 14.625 C 49.867188 14.578125 49.445312 14.367188 49.148438 14.09375 C 48.128906 14.855469 47.511719 16.195312 46.53125 16.964844 C 45.21875 17.992188 44 19.023438 42.859375 20.238281 C 42.832031 20.261719 42.808594 20.273438 42.78125 20.289062 C 42.789062 20.296875 42.800781 20.300781 42.808594 20.308594 C 43.179688 20.730469 43.609375 21.433594 43.488281 22.011719 C 43.453125 22.183594 43.1875 22.421875 43.046875 22.496094 C 42.699219 22.691406 42.445312 22.929688 42.1875 23.203125 C 42.382812 23.335938 42.570312 23.472656 42.769531 23.601562 C 42.78125 23.535156 42.792969 23.46875 42.8125 23.410156 C 42.769531 23.335938 42.761719 23.234375 42.835938 23.140625 C 44.222656 21.292969 46.246094 20.164062 47.75 18.453125 C 48.429688 17.683594 49.1875 16.992188 49.925781 16.28125 Z M 50.753906 28.417969 C 50.785156 27.941406 50.257812 26.957031 50.132812 26.765625 C 49.6875 26.074219 49.089844 25.601562 48.476562 25.074219 C 47.789062 24.480469 46.648438 23.570312 45.730469 23.378906 C 45.21875 23.269531 43.445312 22.792969 43.347656 23.746094 C 43.339844 23.820312 43.308594 23.878906 43.269531 23.921875 C 43.875 24.3125 44.488281 24.691406 45.101562 25.058594 C 45.277344 24.808594 45.660156 24.660156 45.945312 24.65625 C 46.363281 24.648438 46.789062 24.824219 47.121094 25.058594 C 47.589844 25.390625 48.21875 26.101562 47.867188 26.628906 C 48.105469 26.753906 48.34375 26.882812 48.582031 27.011719 C 49.355469 27.402344 50.058594 27.90625 50.753906 28.417969 Z M 51.152344 12.621094 C 51.160156 12.382812 51.195312 12.183594 51.25 12.023438 C 51.109375 11.941406 50.984375 11.851562 50.855469 11.746094 C 50.855469 11.765625 50.867188 11.777344 50.867188 11.796875 C 50.867188 12.308594 50.398438 12.691406 50.105469 13.039062 C 49.941406 13.234375 49.742188 13.351562 49.542969 13.488281 C 49.5625 13.523438 49.574219 13.5625 49.582031 13.605469 C 49.773438 13.722656 50.074219 14.023438 50.242188 14.03125 C 50.3125 14.035156 50.367188 14.0625 50.410156 14.09375 C 50.519531 13.886719 50.632812 13.6875 50.738281 13.476562 C 50.84375 13.265625 50.882812 12.988281 51.03125 12.800781 C 51.070312 12.75 51.109375 12.707031 51.160156 12.671875 C 51.15625 12.65625 51.148438 12.644531 51.152344 12.621094 Z M 52.992188 14.359375 C 52.941406 14.316406 52.890625 14.273438 52.839844 14.230469 C 52.484375 13.925781 52.105469 13.371094 51.679688 13.191406 C 51.492188 13.109375 51.078125 14.097656 51.039062 14.210938 C 50.90625 14.609375 50.59375 14.859375 50.933594 15.242188 C 51.277344 14.914062 51.648438 14.632812 52.128906 14.492188 C 52.414062 14.40625 52.703125 14.367188 52.992188 14.359375 Z M 53.414062 34.054688 C 53.570312 33.949219 53.730469 33.894531 53.894531 33.867188 C 53.460938 33.582031 53.019531 33.296875 52.558594 32.964844 C 51.683594 32.339844 51.832031 32.445312 51.804688 31.492188 C 51.785156 30.914062 49.585938 30.0625 49.101562 29.796875 C 48.382812 29.394531 47.664062 28.964844 46.953125 28.53125 C 47 28.882812 47.054688 29.222656 47.296875 29.324219 C 47.703125 29.492188 49.304688 30.75 48.695312 31.355469 C 47.941406 32.109375 46.691406 30.753906 45.921875 30.398438 C 45.757812 30.734375 45.449219 30.972656 44.96875 30.976562 C 43.792969 30.980469 42.695312 30.652344 42.179688 29.515625 C 41.835938 28.757812 41.980469 27.664062 42.695312 27.203125 C 42.828125 26.730469 43.167969 26.460938 43.578125 26.382812 C 42.839844 25.898438 42.109375 25.414062 41.378906 24.9375 C 41.292969 24.882812 41.207031 24.832031 41.117188 24.777344 C 41.171875 25.117188 41.101562 25.453125 40.914062 25.863281 C 40.59375 26.550781 40.152344 26.972656 39.59375 27.476562 C 39.976562 28 40.3125 28.472656 40.320312 29.101562 C 40.386719 29.082031 40.457031 29.082031 40.53125 29.121094 C 41.214844 29.460938 41.652344 30.089844 42.269531 30.519531 C 42.917969 30.980469 43.613281 31.339844 44.28125 31.765625 C 45.511719 32.550781 46.824219 33.339844 48.152344 33.945312 C 48.515625 34.117188 48.753906 33.761719 49.085938 33.761719 C 49.464844 33.761719 49.941406 34.214844 50.238281 34.382812 C 50.890625 34.746094 51.417969 34.929688 52.15625 35.023438 C 52.308594 35.039062 52.484375 35.152344 52.652344 35.28125 C 52.738281 34.789062 53.027344 34.300781 53.414062 34.054688 Z M 53.4375 30.597656 C 53.550781 30.519531 53.625 30.457031 53.550781 30.246094 C 53.476562 30.035156 53.300781 29.867188 53.125 29.742188 C 52.902344 29.582031 52.492188 29.234375 52.257812 29.488281 C 52.707031 29.769531 53.261719 30.125 53.4375 30.597656 Z M 53.8125 9.523438 C 54.007812 9.316406 54.035156 8.792969 53.605469 8.972656 C 53.222656 9.128906 52.863281 9.441406 52.472656 9.601562 C 52.503906 9.632812 52.539062 9.664062 52.574219 9.691406 C 52.757812 9.851562 52.945312 10.003906 53.136719 10.164062 C 53.140625 10.160156 53.144531 10.148438 53.148438 10.144531 C 53.371094 9.960938 53.621094 9.730469 53.8125 9.523438 Z M 54.8125 12.574219 C 54.867188 12.5625 54.921875 12.554688 54.972656 12.550781 C 53.902344 11.507812 52.75 10.585938 51.550781 9.664062 C 51.421875 9.566406 51.300781 9.457031 51.1875 9.335938 C 50.957031 9.023438 50.640625 8.902344 50.222656 8.972656 C 50.34375 9.234375 50.480469 9.496094 50.605469 9.75 C 50.917969 10.394531 51.476562 10.832031 51.765625 11.472656 C 52.457031 11.222656 53.640625 11.800781 54.8125 12.574219 Z M 56.355469 31.949219 C 55.917969 31.953125 55.710938 31.957031 55.351562 31.949219 C 55.035156 31.941406 54.585938 31.835938 54.246094 31.898438 C 54.621094 32.242188 55.085938 32.523438 55.566406 32.792969 C 55.820312 32.503906 56.082031 32.222656 56.355469 31.949219 Z M 56.453125 38.050781 C 56.464844 38.046875 56.476562 38.050781 56.492188 38.046875 C 56.453125 37.371094 56.066406 36.621094 55.492188 36.269531 C 55.003906 35.96875 53.859375 35.453125 53.359375 36.035156 C 52.886719 36.585938 54.191406 37.371094 54.523438 37.546875 C 55.089844 37.847656 55.796875 38.257812 56.453125 38.050781 Z M 57.128906 6.65625 C 56.621094 6.707031 56.03125 6.691406 55.601562 6.570312 C 55.304688 6.492188 54.992188 6.398438 54.757812 6.191406 C 54.574219 6.03125 54.285156 5.644531 54.132812 5.792969 C 54.355469 6 54.492188 6.34375 54.742188 6.554688 C 55.667969 7.347656 56.347656 7.046875 57.128906 6.65625 Z M 56.945312 37.269531 C 56.984375 36.878906 56.84375 36.46875 56.570312 36.132812 C 56.199219 35.679688 55.816406 35.308594 55.417969 34.972656 C 54.984375 34.757812 54.363281 34.285156 53.863281 34.492188 C 53.589844 34.609375 53.304688 35.03125 53.238281 35.40625 C 54.625 34.648438 56.410156 35.816406 56.945312 37.269531 Z M 56.621094 9.242188 C 56.710938 8.730469 57.164062 7.882812 57.25 7.261719 C 56.394531 7.648438 55.589844 7.847656 54.667969 7.277344 C 54.425781 7.128906 54.171875 6.867188 54.007812 6.636719 C 53.9375 6.53125 53.882812 6.449219 53.835938 6.394531 C 53.636719 7.039062 53.441406 7.746094 53.332031 8.425781 C 53.703125 8.261719 54.0625 8.222656 54.339844 8.570312 C 54.949219 9.328125 54.175781 10.070312 53.605469 10.546875 C 54.265625 11.097656 54.90625 11.640625 55.527344 12.246094 C 55.5625 12.175781 55.613281 12.117188 55.699219 12.078125 C 56.554688 11.738281 56.476562 10.039062 56.621094 9.242188 Z M 57.84375 4.46875 C 57.84375 4.066406 57.75 3.550781 57.4375 3.261719 C 56.632812 2.519531 55.773438 2.722656 54.871094 3.175781 C 54.789062 3.21875 54.722656 3.269531 54.65625 3.328125 C 54.65625 3.328125 54.664062 3.332031 54.664062 3.332031 C 54.816406 4.414062 55.800781 4.625 56.734375 4.625 C 56.863281 4.625 57.84375 4.644531 57.84375 4.46875 Z M 56.9375 31.367188 C 57.183594 31.125 57.421875 30.886719 57.667969 30.644531 C 56.859375 30.65625 56.199219 30.683594 55.449219 30.691406 C 55.445312 30.691406 55.433594 30.683594 55.429688 30.683594 C 55.378906 30.738281 55.335938 30.785156 55.289062 30.84375 C 55.144531 31.023438 55.011719 31.183594 54.878906 31.316406 C 54.988281 31.328125 55.09375 31.34375 55.199219 31.34375 C 55.714844 31.355469 56.03125 31.34375 56.835938 31.34375 C 56.875 31.34375 56.90625 31.355469 56.9375 31.367188 Z M 57.609375 37.527344 C 58.640625 36.605469 58.183594 35.40625 57.050781 34.375 C 56.214844 33.617188 55.167969 33.304688 54.269531 32.664062 C 53.769531 32.308594 53.25 32.046875 52.933594 31.519531 C 52.84375 31.371094 52.929688 31.195312 52.910156 31.046875 C 52.761719 30.609375 52.476562 30.292969 52.054688 30.085938 C 50.507812 29.027344 49.039062 27.902344 47.394531 26.988281 C 46.070312 26.25 44.785156 25.558594 43.496094 24.753906 C 42.273438 23.988281 41.039062 23.253906 39.875 22.394531 C 38.34375 21.269531 36.785156 19.464844 34.914062 18.953125 C 32.808594 18.371094 31.554688 20.304688 30.835938 21.980469 C 31.265625 22.730469 31.917969 22.898438 32.621094 23.320312 C 33.339844 23.75 33.980469 24.316406 34.691406 24.742188 C 35.941406 25.488281 37.003906 26.390625 38.125 27.308594 C 38.125 27.308594 38.125 27.308594 38.128906 27.3125 C 38.867188 27.867188 39.425781 29.265625 39.234375 30.328125 C 40.625 28.960938 37.515625 25.921875 36.625 25.238281 C 35.769531 24.585938 34.910156 23.957031 34.042969 23.324219 C 33.410156 22.871094 32.710938 22.152344 31.925781 21.980469 C 31.660156 21.980469 31.484375 21.585938 31.773438 21.421875 C 32.722656 20.859375 33.246094 19.578125 34.441406 19.464844 C 34.550781 19.457031 34.628906 19.5 34.671875 19.570312 C 35.761719 19.9375 36.648438 20.945312 37.472656 21.71875 C 37.78125 22.007812 38.125 22.289062 38.488281 22.546875 C 38.492188 22.546875 38.492188 22.546875 38.496094 22.546875 C 38.5625 22.570312 38.605469 22.605469 38.636719 22.648438 C 39.277344 23.097656 39.96875 23.5 40.65625 23.890625 C 40.679688 23.898438 40.695312 23.90625 40.714844 23.917969 C 41.183594 24.179688 41.644531 24.425781 42.082031 24.664062 C 44.945312 26.246094 47.53125 28.324219 50.421875 29.871094 C 50.972656 30.164062 52.375 30.507812 52.398438 31.292969 C 52.417969 31.917969 52.261719 32.0625 52.863281 32.445312 C 53.589844 32.90625 54.371094 33.269531 55.0625 33.789062 C 55.925781 34.4375 57.289062 35.386719 57.46875 36.550781 C 57.507812 36.816406 57.613281 37.203125 57.609375 37.527344 Z M 57.746094 5.597656 C 57.785156 5.4375 57.804688 5.289062 57.824219 5.140625 C 57.5625 5.210938 57.269531 5.226562 57.023438 5.226562 C 55.949219 5.226562 54.714844 5.0625 54.246094 4.066406 C 54.179688 4.433594 54.21875 4.835938 54.316406 5.1875 C 54.425781 5.214844 54.546875 5.257812 54.675781 5.316406 C 54.90625 5.421875 55.035156 5.710938 55.277344 5.820312 C 55.550781 5.941406 55.828125 6.015625 56.132812 6.023438 C 56.558594 6.039062 57.042969 6.085938 57.460938 5.992188 C 57.480469 5.988281 57.734375 5.640625 57.746094 5.597656 Z M 57.816406 24.15625 C 57.890625 24.128906 57.957031 24.128906 58.011719 24.144531 C 57.757812 23.691406 56.910156 23.453125 56.460938 23.195312 C 55.917969 23.808594 55.40625 24.449219 54.902344 25.105469 C 54.714844 25.347656 54.535156 25.609375 54.34375 25.867188 C 54.425781 25.835938 54.503906 25.800781 54.59375 25.769531 C 54.984375 25.625 55.402344 25.484375 55.777344 25.296875 C 56.042969 25.164062 56.265625 24.867188 56.535156 24.742188 C 56.957031 24.542969 57.363281 24.277344 57.816406 24.15625 Z M 57.945312 27.761719 C 58.421875 27.394531 59.292969 25.410156 58.167969 24.992188 C 58.113281 24.976562 58.078125 24.941406 58.042969 24.910156 C 57.316406 24.726562 56.699219 25.511719 56.082031 25.820312 C 55.300781 26.210938 54.371094 26.332031 53.679688 26.882812 C 53.59375 26.945312 53.503906 26.957031 53.417969 26.941406 C 53.386719 26.96875 53.359375 27 53.324219 27.027344 C 52.648438 27.59375 51.9375 28.179688 51.46875 28.941406 C 51.5625 29.011719 51.660156 29.078125 51.753906 29.148438 C 52.253906 28.472656 53.011719 28.90625 53.566406 29.324219 C 53.902344 29.574219 54.191406 29.964844 54.167969 30.398438 C 54.160156 30.574219 54.152344 30.769531 54.03125 30.90625 C 53.949219 31 53.847656 31.054688 53.753906 31.117188 C 53.796875 31.101562 53.839844 31.09375 53.898438 31.105469 C 54.429688 31.199219 54.855469 30.386719 55.128906 30.089844 C 55.578125 29.59375 56.109375 29.148438 56.625 28.71875 C 57.035156 28.375 57.511719 28.089844 57.945312 27.761719 Z M 58.644531 20.246094 C 58.558594 19.132812 58.402344 18.109375 57.417969 17.4375 C 56.800781 17.023438 56.410156 16.378906 55.761719 15.984375 C 54.761719 15.382812 53.785156 14.914062 52.574219 15.042969 C 51.605469 15.148438 50.667969 16.378906 50.015625 17.027344 C 48.941406 18.09375 47.910156 19.230469 46.734375 20.183594 C 45.828125 20.914062 44.925781 21.667969 44.136719 22.515625 C 45.566406 22.488281 47.65625 23.628906 48.292969 24.132812 C 49.371094 25.003906 50.335938 25.820312 50.957031 27.066406 C 51.105469 27.367188 51.277344 27.738281 51.335938 28.101562 C 51.808594 27.558594 52.382812 27.125 52.898438 26.601562 C 53.558594 25.925781 54.070312 25.121094 54.65625 24.386719 C 55.875 22.878906 57.125 21.441406 58.644531 20.246094 Z M 60.207031 6.085938 C 60.09375 5.902344 59.996094 5.703125 59.910156 5.542969 C 59.660156 5.652344 59.410156 5.753906 59.203125 5.886719 C 58.738281 6.191406 58.332031 6.5625 57.863281 6.867188 C 57.890625 7.011719 57.898438 7.160156 57.882812 7.296875 C 58.699219 6.957031 59.480469 6.582031 60.207031 6.085938 Z M 60.515625 20.230469 C 60.542969 19.367188 59.722656 18.808594 58.902344 18.34375 C 58.902344 18.347656 58.90625 18.351562 58.910156 18.359375 C 59.171875 18.976562 59.199219 19.605469 59.253906 20.273438 C 59.257812 20.335938 59.242188 20.386719 59.214844 20.429688 C 59.21875 20.503906 59.191406 20.574219 59.113281 20.640625 C 59.015625 20.714844 58.917969 20.796875 58.820312 20.878906 C 59.214844 21.136719 59.53125 21.5 59.945312 21.730469 C 59.960938 21.738281 59.972656 21.738281 59.984375 21.734375 C 60.027344 21.699219 60.074219 21.660156 60.117188 21.625 C 60.332031 21.285156 60.515625 20.253906 60.515625 20.230469 Z M 61.21875 20.628906 C 62.019531 19.632812 61.402344 19.171875 60.800781 18.425781 C 60.101562 17.550781 59.167969 16.890625 58.347656 16.140625 C 57.503906 15.375 56.492188 14.671875 55.582031 13.96875 C 55.007812 13.519531 54.433594 13.085938 53.808594 12.707031 C 53.554688 12.554688 51.851562 11.355469 51.757812 12.570312 C 51.917969 12.617188 52.070312 12.699219 52.203125 12.8125 C 52.898438 13.398438 53.464844 14.152344 54.320312 14.527344 C 54.355469 14.546875 54.378906 14.5625 54.402344 14.589844 C 55.480469 14.941406 56.476562 15.660156 57.191406 16.40625 C 57.449219 16.679688 57.699219 16.886719 57.929688 17.09375 C 57.96875 17.101562 58.003906 17.117188 58.042969 17.144531 C 58.808594 17.6875 59.703125 18.074219 60.445312 18.65625 C 61.246094 19.273438 61.15625 19.777344 61.097656 20.699219 C 61.097656 20.71875 61.09375 20.746094 61.089844 20.769531 C 61.132812 20.71875 61.179688 20.675781 61.21875 20.628906 Z M 61.015625 5.863281 C 61.429688 5.722656 61.742188 5.605469 61.582031 5.054688 C 61.3125 4.152344 61.023438 4.6875 60.726562 5.039062 C 60.644531 5.125 60.550781 5.203125 60.445312 5.273438 C 60.554688 5.46875 60.78125 5.941406 61.015625 5.863281 Z M 61.847656 22.671875 C 61.796875 22.660156 61.753906 22.640625 61.703125 22.601562 C 61.542969 22.453125 61.335938 22.335938 61.15625 22.203125 C 61.027344 22.101562 60.898438 22 60.761719 21.910156 C 60.636719 22.171875 60.476562 22.375 60.289062 22.425781 C 59.640625 22.605469 58.835938 21.542969 58.347656 21.289062 C 58.34375 21.289062 58.34375 21.289062 58.34375 21.285156 C 57.820312 21.742188 57.332031 22.230469 56.863281 22.738281 C 57.730469 23.214844 58.933594 23.484375 58.683594 24.613281 C 59.039062 24.894531 59.25 25.34375 59.316406 25.835938 C 59.84375 25.644531 60.183594 25.234375 60.613281 24.941406 C 60.636719 24.511719 60.78125 24.046875 61.140625 23.890625 C 61.296875 23.683594 61.75 22.96875 61.847656 22.671875 Z M 60.765625 32.949219 C 61.46875 32.34375 62.707031 31.382812 62.332031 30.367188 C 61.941406 29.3125 60.886719 28.621094 59.933594 29.316406 C 59.390625 29.714844 59.039062 30.3125 58.5 30.703125 C 57.628906 31.320312 56.824219 32.265625 56.113281 33.085938 C 56.984375 33.550781 57.855469 34.042969 58.355469 34.871094 C 58.421875 34.980469 58.480469 35.089844 58.539062 35.199219 C 59.226562 34.363281 59.921875 33.671875 60.765625 32.949219 Z M 61.175781 27.199219 C 61.742188 26.828125 62.566406 26.894531 63.261719 27.148438 C 62.761719 26.734375 62.269531 26.324219 61.71875 26.019531 C 61.464844 25.878906 61.265625 25.636719 61.046875 25.441406 C 61.011719 25.484375 60.953125 25.546875 60.871094 25.660156 C 60.507812 26.148438 59.902344 26.367188 59.324219 26.46875 C 59.261719 27.097656 59.003906 27.703125 58.566406 28.042969 C 57.699219 28.703125 56.785156 29.324219 56 30.078125 C 56.714844 30.0625 57.382812 30.042969 58.300781 30.035156 C 58.597656 29.738281 58.902344 29.433594 59.1875 29.121094 C 59.707031 28.558594 60.207031 28.3125 60.691406 28.324219 C 60.609375 27.914062 60.832031 27.425781 61.175781 27.199219 Z M 62.640625 5.722656 C 62.632812 5.640625 62.628906 5.554688 62.628906 5.476562 C 62.597656 5.113281 62.46875 4.753906 62.296875 4.441406 C 62.171875 4.207031 62.03125 3.933594 61.792969 3.796875 C 61.71875 3.753906 61.210938 3.539062 61.324219 3.816406 C 61.347656 3.863281 61.351562 3.910156 61.351562 3.957031 C 61.621094 4.023438 61.867188 4.195312 61.996094 4.472656 C 62.152344 4.808594 62.273438 5.234375 62.234375 5.601562 C 62.246094 5.609375 62.261719 5.609375 62.273438 5.617188 C 62.300781 5.636719 62.644531 5.804688 62.640625 5.722656 Z M 62.667969 29.613281 C 62.753906 29.574219 62.777344 29.539062 62.777344 29.367188 C 62.777344 29.105469 62.71875 29.109375 62.511719 28.929688 C 62.40625 28.839844 62.03125 28.472656 61.863281 28.585938 C 61.8125 28.617188 61.769531 28.65625 61.71875 28.695312 C 62 28.890625 62.28125 29.15625 62.554688 29.472656 C 62.59375 29.519531 62.628906 29.566406 62.667969 29.613281 Z M 63.605469 18.417969 C 63.640625 18.371094 63.675781 18.324219 63.707031 18.285156 C 62.292969 17.425781 61.046875 16.25 59.585938 15.480469 C 58.808594 15.066406 58.101562 14.578125 57.289062 14.21875 C 56.945312 14.066406 56.53125 13.75 56.105469 13.5 C 57.0625 14.234375 57.855469 14.933594 58.140625 15.167969 C 59.414062 16.214844 60.9375 17.34375 61.929688 18.664062 C 62.75 19.75 62.039062 20.691406 61.199219 21.472656 C 61.304688 21.554688 61.410156 21.640625 61.519531 21.722656 C 61.582031 21.773438 61.640625 21.8125 61.703125 21.851562 C 61.808594 21.5625 61.980469 21.363281 62.246094 21.128906 C 62.621094 20.800781 62.984375 20.140625 63.378906 19.910156 C 63.457031 19.867188 63.578125 19.828125 63.714844 19.792969 C 63.289062 19.453125 63.105469 19.082031 63.605469 18.417969 Z M 63.925781 29.464844 C 64.101562 28.945312 64.128906 28.257812 63.554688 27.964844 C 63.121094 27.742188 62.71875 27.574219 62.230469 27.574219 C 61.996094 27.570312 61.601562 27.5625 61.429688 27.761719 C 61.375 27.832031 61.160156 28.15625 61.3125 28.261719 C 61.527344 28.085938 61.742188 27.90625 62.050781 27.984375 C 62.5 28.101562 62.789062 28.386719 63.144531 28.664062 C 63.421875 28.890625 63.378906 29.226562 63.378906 29.550781 C 63.378906 29.777344 63.292969 29.914062 63.15625 30.019531 C 63.246094 30.03125 63.347656 30.035156 63.449219 30.035156 C 63.964844 30.035156 63.832031 29.734375 63.925781 29.464844 Z M 64.777344 29.671875 C 65.035156 29.375 65.324219 28.964844 65.527344 28.585938 C 65.148438 28.472656 64.804688 28.289062 64.472656 28.074219 C 64.738281 28.628906 64.617188 29.308594 64.445312 29.933594 C 64.5625 29.863281 64.679688 29.785156 64.777344 29.671875 Z M 66.464844 28.722656 C 66.351562 28.722656 66.246094 28.722656 66.140625 28.710938 C 65.886719 29.265625 65.429688 29.960938 64.96875 30.335938 C 64.804688 30.464844 64.605469 30.53125 64.425781 30.613281 C 64.269531 30.683594 64.167969 30.816406 64.019531 30.886719 C 63.691406 31.046875 63.386719 31.128906 63.027344 31.144531 C 63.027344 31.144531 63.023438 31.144531 63.015625 31.144531 C 62.953125 31.308594 62.859375 31.476562 62.738281 31.652344 C 64.160156 31.640625 65.25 31.320312 65.84375 29.808594 C 65.996094 29.414062 66.226562 29.066406 66.464844 28.722656 Z M 66.496094 28.125 C 66.511719 28.105469 66.527344 28.085938 66.546875 28.0625 C 66.46875 28.128906 64.734375 26.800781 64.339844 26.535156 C 63.792969 26.175781 63.066406 25.875 62.613281 25.417969 C 62.5625 25.371094 61.417969 24.261719 61.238281 24.824219 C 61.242188 24.828125 61.25 24.828125 61.253906 24.832031 C 61.949219 25.390625 62.671875 25.917969 63.386719 26.460938 C 64.386719 27.210938 65.1875 28.136719 66.496094 28.125 Z M 68.75 22.222656 C 68.953125 22.003906 69.003906 21.75 69.230469 21.570312 C 69.234375 21.566406 68.335938 20.867188 68.515625 20.984375 C 68.042969 20.671875 67.617188 20.347656 67.191406 19.980469 C 66.515625 19.402344 65.601562 18.816406 64.800781 18.425781 C 64.496094 18.273438 63.59375 18.902344 64.113281 19.289062 C 64.289062 19.421875 64.480469 19.578125 64.664062 19.714844 C 65.1875 19.726562 65.703125 19.816406 65.910156 20.007812 C 66.835938 20.894531 67.636719 21.730469 68.683594 22.351562 C 68.695312 22.304688 68.714844 22.265625 68.75 22.222656 Z M 68.675781 24.925781 C 68.898438 24.363281 69.082031 23.855469 69.328125 23.339844 C 68.355469 22.9375 67.5 22.40625 66.707031 21.691406 C 66.046875 21.101562 65.703125 20.421875 64.734375 20.421875 C 64.019531 20.421875 63.75 20.566406 63.28125 21.003906 C 63.042969 21.230469 62.054688 21.839844 62.449219 22.230469 C 62.535156 22.320312 62.628906 22.460938 62.628906 22.585938 C 62.628906 22.984375 62.234375 23.546875 61.878906 23.96875 C 62.175781 24.132812 62.484375 24.433594 62.6875 24.636719 C 63.125 25.074219 63.691406 25.261719 64.148438 25.644531 C 64.945312 26.316406 66.097656 27.246094 67.042969 27.675781 C 67.066406 27.6875 67.078125 27.703125 67.101562 27.714844 C 67.574219 26.761719 68.277344 25.910156 68.675781 24.925781 Z M 69.660156 22.835938 C 69.753906 22.738281 69.839844 22.613281 69.757812 22.503906 C 69.699219 22.421875 69.605469 22.347656 69.5 22.292969 C 69.402344 22.40625 69.300781 22.519531 69.199219 22.628906 C 69.347656 22.699219 69.5 22.769531 69.660156 22.835938 Z M 70.3125 22.265625 C 70.507812 22.644531 70.300781 23.0625 70.015625 23.324219 C 68.992188 25.179688 68.328125 27.304688 67.015625 28.996094 C 66.386719 29.800781 66.265625 31.105469 65.300781 31.644531 C 64.300781 32.207031 63.460938 32.28125 62.320312 32.253906 C 62.308594 32.253906 62.296875 32.242188 62.285156 32.242188 C 61.203125 33.546875 59.851562 34.507812 58.789062 35.847656 C 59.085938 36.980469 58.519531 37.84375 57.238281 38.5 C 57.226562 38.507812 57.214844 38.507812 57.203125 38.511719 C 57.125 38.675781 56.890625 38.738281 56.746094 38.628906 C 56.714844 38.628906 56.683594 38.625 56.652344 38.613281 C 56.640625 38.617188 56.625 38.628906 56.613281 38.632812 C 55.667969 38.933594 54.273438 38.277344 53.566406 37.644531 C 53.199219 37.316406 52.5625 36.664062 52.640625 36.09375 C 51.804688 35.566406 50.855469 35.480469 49.929688 34.90625 C 49.359375 34.546875 49.21875 34.355469 48.65625 34.640625 C 48.472656 34.738281 48.246094 34.652344 48.078125 34.574219 C 46.664062 33.925781 45.285156 33.121094 43.976562 32.285156 C 43.3125 31.859375 42.589844 31.527344 41.964844 31.046875 C 41.386719 30.597656 40.894531 29.988281 40.246094 29.652344 C 40.046875 30.398438 39.332031 31.089844 38.613281 31.34375 C 38.226562 31.597656 37.667969 31.707031 37.242188 31.582031 C 36.871094 31.476562 36.53125 31.371094 36.199219 31.152344 C 35.910156 30.96875 35.65625 30.738281 35.335938 30.628906 C 35.195312 30.742188 35.054688 30.855469 34.914062 30.96875 C 35.492188 31.78125 35.519531 32.121094 35.449219 33.257812 C 35.371094 34.347656 34.984375 35.433594 34.894531 36.527344 C 34.832031 37.273438 32.542969 40.402344 31.542969 39.992188 C 31.503906 39.980469 31.484375 39.957031 31.46875 39.9375 C 31.460938 39.996094 31.453125 40.070312 31.425781 40.191406 C 31.367188 40.332031 31.304688 40.472656 31.246094 40.613281 C 30.941406 41.027344 30.652344 41.253906 30.160156 41.472656 C 29.46875 41.777344 29.324219 42.488281 28.742188 42.953125 C 28.035156 43.515625 27.765625 43.648438 27.316406 44.394531 C 26.957031 44.984375 26.519531 45.476562 25.878906 45.75 C 25.875 46.613281 25.417969 47.328125 24.214844 47.648438 C 24.109375 48.269531 23.8125 48.882812 23.382812 49.226562 C 22.078125 50.265625 21.136719 51.371094 19.417969 51.820312 C 18.21875 52.132812 16.605469 51.050781 15.546875 50.523438 C 14.425781 51.722656 13.085938 52.761719 11.851562 53.804688 C 10.816406 54.683594 9.449219 55.644531 9.074219 57.011719 C 8.847656 57.847656 7.570312 58.210938 6.90625 58.527344 C 5.757812 59.074219 4.636719 59.351562 3.539062 60.039062 C 2.96875 60.398438 2.65625 61.023438 2.140625 61.457031 C 1.765625 61.769531 1.710938 61.746094 1.273438 62.007812 C 1.222656 62.035156 1.171875 62.046875 1.121094 62.046875 C 1.121094 62.046875 1.121094 62.046875 1.117188 62.046875 C 0.703125 62.089844 0 61.726562 0 61.234375 C 0 60.535156 1.089844 59.808594 1.527344 59.421875 C 2.375 58.667969 2.859375 57.199219 3.4375 56.21875 C 3.945312 55.375 4.515625 54.316406 5.265625 53.667969 C 6.304688 52.777344 7.828125 52.878906 8.785156 51.816406 C 9.707031 50.792969 10.671875 49.890625 11.03125 48.5 C 11.128906 48.121094 11.65625 47.839844 11.898438 47.585938 C 12.070312 47.402344 12.230469 47.222656 12.378906 47.03125 C 12.320312 47.039062 12.261719 47.039062 12.191406 47.007812 C 10.921875 46.390625 10.34375 44.496094 10.488281 43.171875 C 10.585938 42.300781 10.820312 41.734375 11.222656 41.253906 C 11.246094 41.175781 11.296875 41.113281 11.371094 41.082031 C 11.621094 40.816406 11.925781 40.570312 12.289062 40.300781 C 12.324219 40.234375 12.386719 40.1875 12.464844 40.167969 C 12.484375 40.15625 12.507812 40.140625 12.527344 40.128906 C 13.089844 39.714844 13.96875 38.789062 14.816406 38.5625 C 14.828125 38.511719 14.851562 38.46875 14.898438 38.429688 C 15.382812 38.011719 16.070312 37.207031 16.746094 37.097656 C 16.964844 37.058594 17.15625 37.050781 17.335938 37.066406 C 17.429688 36.65625 17.601562 36.402344 17.921875 35.976562 C 18.203125 35.601562 18.914062 35.203125 18.988281 34.742188 C 19.078125 34.164062 19.917969 33.867188 20.1875 33.40625 C 20.59375 32.714844 21.71875 32.226562 22.410156 31.890625 C 22.617188 31.789062 22.617188 30.898438 22.710938 30.71875 C 22.945312 30.261719 22.917969 30.464844 23.304688 30.074219 C 24.046875 29.332031 24.984375 28.441406 25.882812 27.914062 C 26.582031 27.503906 27.941406 27.667969 28.683594 27.667969 C 29.683594 27.667969 30.964844 27.429688 31.933594 27.847656 C 31.941406 27.84375 31.945312 27.835938 31.953125 27.824219 C 31.292969 27.546875 30.558594 27.070312 30.203125 26.601562 C 29.898438 26.203125 29.84375 25.691406 29.851562 25.171875 C 29.1875 25.691406 28.171875 26.292969 27.570312 25.882812 C 27.226562 25.644531 27.304688 25.253906 27.203125 24.882812 C 27.113281 24.558594 27.15625 24.234375 27.035156 23.902344 C 26.957031 23.695312 26.910156 23.511719 26.890625 23.292969 C 26.890625 23.269531 26.890625 23.246094 26.894531 23.230469 C 26.894531 23.214844 26.890625 23.203125 26.890625 23.191406 C 26.871094 22.835938 27.183594 22.648438 27.433594 22.421875 C 27.4375 22.421875 27.441406 22.421875 27.445312 22.421875 C 27.378906 22.257812 27.34375 22.085938 27.34375 21.882812 C 27.34375 21.269531 27.882812 20.289062 28.1875 19.769531 C 28.480469 19.277344 28.792969 18.675781 29.164062 18.242188 C 29.148438 18.160156 29.167969 18.070312 29.246094 17.992188 C 29.285156 17.960938 29.324219 17.917969 29.363281 17.875 C 28.957031 17.238281 30.027344 16.753906 30.589844 16.457031 C 31.136719 16.167969 31.613281 15.683594 32.195312 15.476562 C 32.460938 15.386719 32.71875 15.664062 32.792969 15.890625 C 32.910156 16.25 32.898438 16.683594 32.882812 17.0625 C 32.867188 17.546875 32.871094 18.015625 32.875 18.546875 C 34.226562 17.933594 35.648438 18.371094 36.960938 19.304688 C 37.71875 19.855469 38.457031 20.421875 39.195312 20.996094 C 39.207031 20.984375 39.210938 20.972656 39.222656 20.96875 C 39.691406 20.675781 40.085938 20.292969 40.53125 19.964844 C 40.714844 19.820312 40.777344 19.433594 41.050781 19.378906 C 41.324219 19.328125 41.535156 19.382812 41.75 19.570312 C 41.933594 19.730469 42.148438 19.839844 42.351562 19.964844 C 42.363281 19.910156 42.382812 19.859375 42.429688 19.804688 C 43.039062 19.160156 43.613281 18.519531 44.304688 17.960938 C 44.96875 17.421875 45.839844 16.878906 46.371094 16.222656 C 47.070312 15.359375 47.886719 14.238281 48.835938 13.570312 C 48.828125 13.515625 48.828125 13.457031 48.84375 13.398438 C 48.945312 13.035156 49.339844 13.007812 49.5625 12.75 C 49.765625 12.511719 50.039062 12.273438 50.183594 11.980469 C 49.996094 11.972656 49.707031 12.019531 49.636719 12.019531 C 49.480469 12.019531 49.347656 11.941406 49.25 11.824219 C 49.03125 11.570312 49.226562 11.199219 49.410156 10.976562 C 49.832031 10.460938 50.238281 10.574219 50.640625 10.839844 C 50.433594 10.589844 50.222656 10.339844 50.085938 10.058594 C 49.867188 9.628906 49.617188 9.195312 49.5 8.726562 C 49.464844 8.59375 49.519531 8.460938 49.636719 8.386719 C 50.519531 7.839844 51.300781 8.496094 51.96875 9.132812 C 51.988281 9.125 52.003906 9.117188 52.023438 9.113281 C 52.210938 9.078125 52.433594 8.953125 52.671875 8.804688 C 52.738281 8.105469 52.96875 6.152344 53.5 5.71875 C 53.550781 5.523438 53.625 5.378906 53.714844 5.289062 C 53.546875 4.605469 53.695312 4.089844 53.808594 3.390625 C 53.890625 2.882812 54.636719 2.585938 55.023438 2.402344 C 56.058594 1.914062 57.640625 2.070312 58.152344 3.261719 C 58.316406 3.632812 58.613281 4.292969 58.402344 4.71875 C 58.425781 4.761719 58.449219 4.808594 58.449219 4.875 C 58.449219 5.183594 58.425781 5.523438 58.304688 5.816406 C 58.578125 5.605469 58.847656 5.394531 59.152344 5.214844 C 59.613281 4.941406 60.089844 4.851562 60.351562 4.367188 C 60.449219 4.183594 60.597656 4.066406 60.761719 3.996094 C 60.648438 3.582031 60.792969 3.113281 61.289062 3.066406 C 61.453125 3.050781 61.601562 3.070312 61.75 3.117188 C 61.773438 3.070312 61.808594 3.027344 61.867188 3 C 62.246094 2.816406 62.65625 2.972656 63.050781 2.871094 C 63.414062 2.773438 63.691406 2.90625 63.941406 3.160156 C 64.191406 3.414062 64.351562 3.703125 64.085938 4.027344 C 63.945312 4.191406 63.796875 4.359375 63.652344 4.519531 C 63.527344 4.65625 63.371094 4.761719 63.320312 4.953125 C 63.292969 5.039062 63.242188 5.09375 63.183594 5.125 C 63.191406 5.15625 63.199219 5.1875 63.207031 5.21875 C 63.246094 5.433594 63.292969 5.789062 63.1875 5.988281 C 62.933594 6.453125 62.363281 6.390625 61.972656 6.144531 C 61.878906 6.230469 61.75 6.292969 61.585938 6.332031 C 61.304688 6.390625 60.9375 6.617188 60.640625 6.511719 C 60.632812 6.519531 60.625 6.53125 60.613281 6.542969 C 59.703125 7.179688 58.699219 7.617188 57.667969 8.03125 C 57.640625 8.042969 57.617188 8.042969 57.59375 8.042969 C 57.289062 8.703125 57.214844 9.421875 57.109375 10.132812 C 57.027344 10.734375 57.019531 11.210938 56.914062 11.597656 C 56.980469 11.613281 57.046875 11.648438 57.097656 11.71875 C 57.238281 11.914062 57.238281 12.320312 57.179688 12.550781 C 57.109375 12.816406 56.949219 13.027344 56.765625 13.21875 C 57.539062 13.65625 58.332031 14.042969 59.101562 14.511719 C 60.84375 15.570312 62.445312 16.871094 64.207031 17.882812 C 64.738281 17.652344 65.253906 18.035156 65.921875 18.421875 C 67.179688 19.144531 68.53125 20.054688 69.578125 21.070312 C 69.832031 21.320312 69.878906 21.554688 69.8125 21.785156 C 70.023438 21.894531 70.207031 22.0625 70.3125 22.265625 Z M 56.59375 12.199219 C 56.441406 12.359375 56.226562 12.503906 55.921875 12.636719 C 55.976562 12.695312 56.035156 12.753906 56.097656 12.8125 C 56.105469 12.820312 56.109375 12.832031 56.113281 12.84375 C 56.15625 12.867188 56.195312 12.886719 56.238281 12.914062 C 56.25 12.898438 56.253906 12.875 56.269531 12.859375 C 56.34375 12.792969 56.410156 12.722656 56.46875 12.648438 C 56.535156 12.566406 56.539062 12.472656 56.585938 12.390625 C 56.585938 12.378906 56.585938 12.359375 56.59375 12.339844 C 56.59375 12.296875 56.59375 12.25 56.59375 12.199219 Z M 63.628906 3.6875 C 63.621094 3.675781 63.601562 3.660156 63.570312 3.640625 C 63.472656 3.539062 63.441406 3.464844 63.304688 3.464844 C 63.164062 3.464844 63.039062 3.5 62.898438 3.507812 C 62.753906 3.515625 62.535156 3.476562 62.351562 3.480469 C 62.511719 3.636719 62.648438 3.816406 62.75 4.007812 C 62.820312 4.136719 62.882812 4.273438 62.945312 4.40625 C 63.011719 4.324219 63.085938 4.246094 63.164062 4.15625 C 63.261719 4.054688 63.339844 3.941406 63.433594 3.84375 C 63.484375 3.785156 63.535156 3.730469 63.59375 3.675781 C 63.613281 3.683594 63.625 3.6875 63.628906 3.6875 " fill-opacity="1" fill-rule="nonzero"/></g><path fill="#ffffff" d="M 67.425781 24.199219 C 67.769531 24.578125 67.761719 25.1875 67.179688 25.308594 C 66.8125 25.386719 66.335938 25.359375 66.210938 24.933594 C 66.207031 24.921875 66.207031 24.902344 66.207031 24.890625 C 66.007812 24.691406 65.898438 24.441406 66.117188 24.160156 C 66.273438 23.957031 66.558594 23.953125 66.792969 23.949219 C 67.039062 23.945312 67.257812 24.011719 67.425781 24.199219 " fill-opacity="1" fill-rule="nonzero"/><path fill="#ffffff" d="M 65.046875 23.085938 C 65.050781 23.082031 65.050781 23.074219 65.050781 23.066406 C 65.042969 22.882812 64.949219 22.601562 64.722656 22.617188 C 64.523438 22.632812 64.339844 22.585938 64.394531 22.820312 C 64.425781 22.941406 64.488281 23.035156 64.5625 23.113281 C 64.667969 23.136719 64.773438 23.148438 64.882812 23.128906 C 64.9375 23.117188 64.996094 23.109375 65.046875 23.085938 Z M 65.515625 22.523438 C 65.609375 22.734375 65.722656 23.042969 65.632812 23.273438 C 65.511719 23.597656 65.183594 23.722656 64.851562 23.738281 C 64.769531 23.839844 64.632812 23.894531 64.488281 23.804688 C 64.050781 23.546875 63.675781 23.082031 63.796875 22.539062 C 63.902344 22.066406 64.535156 21.933594 64.953125 22.027344 C 65.195312 22.085938 65.421875 22.292969 65.515625 22.523438 " fill-opacity="1" fill-rule="nonzero"/><path fill="#ffffff" d="M 55.339844 37.121094 C 55.46875 37.226562 55.445312 37.441406 55.339844 37.550781 C 55.214844 37.675781 55.039062 37.652344 54.914062 37.550781 C 54.753906 37.417969 54.585938 37.292969 54.371094 37.285156 C 53.980469 37.273438 53.980469 36.667969 54.371094 36.683594 C 54.757812 36.691406 55.039062 36.886719 55.339844 37.121094 " fill-opacity="1" fill-rule="nonzero"/><path fill="#ffffff" d="M 44.382812 29.394531 C 44.757812 29.503906 44.597656 30.089844 44.226562 29.976562 C 44.078125 29.933594 43.949219 29.859375 43.824219 29.765625 C 43.765625 29.726562 43.6875 29.632812 43.628906 29.609375 C 43.574219 29.585938 43.523438 29.570312 43.46875 29.542969 C 43.21875 29.398438 43.113281 29.183594 43.160156 28.902344 C 43.183594 28.738281 43.382812 28.648438 43.527344 28.691406 C 43.683594 28.734375 43.742188 28.863281 43.742188 29.003906 C 43.75 29.003906 43.761719 29.019531 43.789062 29.027344 C 43.878906 29.058594 43.949219 29.105469 44.023438 29.164062 C 44.136719 29.253906 44.246094 29.351562 44.382812 29.394531 " fill-opacity="1" fill-rule="nonzero"/><path fill="#ffffff" d="M 7.671875 56.109375 C 7.84375 56.453125 7.320312 56.761719 7.152344 56.410156 C 6.976562 56.039062 6.800781 55.726562 6.558594 55.390625 C 6.355469 55.105469 6.09375 54.945312 5.839844 54.710938 C 5.550781 54.449219 5.980469 54.023438 6.269531 54.285156 C 6.425781 54.425781 6.625 54.527344 6.773438 54.6875 C 6.890625 54.820312 6.980469 54.976562 7.101562 55.109375 C 7.363281 55.402344 7.503906 55.757812 7.671875 56.109375 " fill-opacity="1" fill-rule="nonzero"/></svg>