<svg xmlns="http://www.w3.org/2000/svg" xmlns:xlink="http://www.w3.org/1999/xlink" width="95" zoomAndPan="magnify" viewBox="0 0 71.25 64.499999" height="86" preserveAspectRatio="xMidYMid meet" version="1.0"><defs><clipPath id="c7ae76e9e0"><path d="M 12.421875 1.351562 L 28 1.351562 L 28 62 L 12.421875 62 Z M 12.421875 1.351562 " clip-rule="nonzero"/></clipPath><clipPath id="b4b3368667"><path d="M 29 1.351562 L 44 1.351562 L 44 62 L 29 62 Z M 29 1.351562 " clip-rule="nonzero"/></clipPath><clipPath id="3a31f92883"><path d="M 45 1.351562 L 61 1.351562 L 61 62 L 45 62 Z M 45 1.351562 " clip-rule="nonzero"/></clipPath></defs><g clip-path="url(#c7ae76e9e0)"><path fill="#ffffff" d="M 16.40625 19.726562 C 16.640625 17.988281 16.179688 14.53125 16.085938 13.875 C 15.988281 13.871094 15.886719 13.871094 15.789062 13.867188 C 15.390625 14.320312 15.601562 17.152344 15.617188 17.566406 C 15.640625 18.207031 15.671875 18.847656 15.671875 19.492188 C 15.671875 19.929688 15.707031 19.765625 16.125 19.746094 C 16.21875 19.742188 16.3125 19.742188 16.40625 19.738281 C 16.40625 19.734375 16.40625 19.730469 16.40625 19.726562 Z M 17.8125 19.722656 C 17.988281 17.925781 17.742188 14.636719 17.683594 13.914062 C 17.347656 13.902344 17.011719 13.894531 16.675781 13.886719 C 16.699219 15.839844 17.253906 17.820312 17.007812 19.722656 C 17.273438 19.71875 17.546875 19.71875 17.8125 19.722656 Z M 18.414062 19.726562 C 18.679688 19.734375 18.953125 19.738281 19.222656 19.746094 C 19.210938 19.714844 19.199219 19.675781 19.203125 19.628906 C 19.25 17.742188 19.007812 15.914062 19.003906 14.039062 C 19.003906 13.992188 19.011719 13.957031 19.023438 13.925781 C 18.773438 13.925781 18.523438 13.921875 18.273438 13.917969 C 18.289062 15.835938 18.609375 17.808594 18.414062 19.726562 Z M 20.417969 19.570312 C 20.640625 19.425781 20.402344 17.679688 20.402344 17.363281 C 20.402344 16.21875 20.320312 15.085938 20.335938 13.933594 C 20.082031 13.933594 19.832031 13.933594 19.578125 13.929688 C 19.589844 13.960938 19.601562 13.996094 19.601562 14.039062 C 19.605469 15.914062 19.851562 17.742188 19.804688 19.628906 C 19.800781 19.683594 19.789062 19.726562 19.769531 19.761719 C 19.9375 19.769531 20.113281 19.773438 20.277344 19.777344 C 20.289062 19.703125 20.332031 19.621094 20.417969 19.570312 Z M 20.660156 2.09375 C 20.65625 2.0625 20.664062 2.046875 20.667969 2.042969 C 20.664062 2.046875 20.648438 2.046875 20.625 2.046875 C 20.550781 2.046875 20.484375 2.046875 20.40625 2.035156 C 20.285156 2.011719 20.132812 1.964844 20.003906 2.003906 C 19.96875 2.015625 19.953125 2.058594 19.941406 2.105469 C 20.179688 2.082031 20.425781 2.089844 20.660156 2.109375 C 20.660156 2.101562 20.660156 2.097656 20.660156 2.09375 Z M 20.945312 19.796875 C 21.25 19.804688 21.558594 19.808594 21.859375 19.8125 C 21.847656 17.933594 21.730469 16.046875 21.730469 14.164062 C 21.730469 14.0625 21.773438 13.984375 21.832031 13.9375 C 21.535156 13.9375 21.234375 13.9375 20.933594 13.933594 C 20.917969 15.28125 20.980469 16.621094 21.019531 17.96875 C 21.035156 18.386719 21.179688 19.285156 20.945312 19.796875 Z M 22.109375 5.761719 C 22.179688 5.601562 21.78125 4.882812 21.6875 4.746094 C 21.503906 4.484375 21.378906 4.332031 21.351562 4 C 21.328125 3.707031 21.265625 3.402344 21.265625 3.113281 C 21.265625 2.6875 20.996094 2.75 20.65625 2.75 C 20.234375 2.75 19.585938 2.617188 19.523438 3.179688 C 19.488281 3.515625 19.46875 3.84375 19.40625 4.175781 C 19.347656 4.535156 19.378906 4.929688 19.253906 5.273438 C 19.199219 5.433594 19.140625 5.601562 19.085938 5.765625 C 19.785156 5.8125 20.546875 6.007812 20.835938 6.007812 C 21.109375 6.007812 21.628906 5.90625 22.078125 5.878906 C 22.078125 5.84375 22.089844 5.800781 22.109375 5.761719 Z M 22.785156 8.140625 C 22.753906 8.035156 22.722656 7.929688 22.699219 7.832031 C 22.601562 7.488281 22.535156 7.144531 22.476562 6.789062 C 22.421875 6.480469 22.636719 6.488281 22.128906 6.570312 C 21.707031 6.632812 21.257812 6.632812 20.835938 6.609375 C 20.207031 6.578125 19.585938 6.445312 18.96875 6.40625 C 18.324219 6.371094 18.285156 6.777344 18.125 7.324219 C 17.992188 7.785156 17.941406 8.269531 17.925781 8.753906 C 19.519531 8.226562 20.894531 8.140625 22.785156 8.140625 Z M 22.964844 8.972656 C 22.984375 8.972656 23 8.972656 23.015625 8.972656 C 22.988281 8.972656 22.964844 8.785156 22.933594 8.671875 C 22.902344 8.679688 22.871094 8.710938 22.832031 8.710938 C 20.867188 8.710938 19.523438 8.808594 17.921875 9.363281 C 17.925781 9.546875 17.933594 9.726562 17.941406 9.914062 C 19.542969 9.402344 21.089844 9.09375 22.785156 9.089844 C 22.828125 9.050781 22.886719 8.972656 22.964844 8.972656 Z M 23.175781 10.132812 C 23.164062 9.996094 23.148438 9.769531 23.128906 9.769531 C 23.085938 9.769531 23.050781 9.769531 23.011719 9.769531 C 22.96875 9.769531 22.910156 9.789062 22.832031 9.789062 C 21.128906 9.789062 19.578125 10.03125 17.972656 10.554688 C 17.988281 10.828125 17.996094 11.121094 18 11.382812 C 19.6875 10.648438 21.339844 10.257812 23.175781 10.132812 Z M 23.113281 11.335938 C 23.164062 11.132812 23.195312 10.914062 23.199219 10.679688 C 22.136719 10.757812 21.097656 10.933594 20.085938 11.230469 C 20.152344 11.226562 20.21875 11.226562 20.28125 11.222656 C 21.113281 11.183594 22.25 11.042969 23.113281 11.335938 Z M 17.207031 13.300781 C 19.242188 13.339844 21.28125 13.335938 23.324219 13.335938 C 23.300781 12.90625 23.339844 12.082031 23.121094 11.996094 C 22.386719 11.703125 21.414062 11.765625 20.632812 11.804688 C 19.851562 11.84375 18.773438 11.734375 18.046875 12.054688 C 17.359375 12.359375 17.246094 12.285156 17.207031 13.300781 Z M 23.277344 19.804688 C 23.640625 17.917969 23.167969 15.875 23.136719 13.9375 C 22.835938 13.9375 22.53125 13.9375 22.230469 13.9375 C 22.292969 13.984375 22.332031 14.0625 22.332031 14.164062 C 22.332031 15.8125 22.421875 18.8125 22.457031 19.816406 C 22.730469 19.816406 23.003906 19.8125 23.277344 19.804688 Z M 23.886719 19.675781 C 24.066406 19.667969 24.246094 19.71875 24.425781 19.703125 C 24.410156 19.671875 24.398438 19.585938 24.398438 19.542969 C 24.3125 17.644531 24.214844 15.761719 23.996094 13.765625 C 23.910156 13.765625 23.824219 13.765625 23.734375 13.765625 C 23.761719 15.761719 24.191406 17.769531 23.886719 19.675781 Z M 24.996094 15.984375 C 25.015625 15.417969 25.050781 14.804688 25.007812 14.230469 C 24.988281 13.96875 24.832031 13.902344 24.429688 13.898438 C 24.832031 15.617188 24.789062 17.359375 24.867188 19.097656 C 25.015625 18.105469 24.988281 16.253906 24.996094 15.984375 Z M 26.628906 53.628906 C 26.644531 52.800781 26.65625 51.972656 26.664062 51.144531 C 24.78125 51.710938 22.703125 51.78125 20.765625 51.890625 C 19.464844 51.960938 17.882812 52.074219 16.589844 51.835938 C 15.878906 51.707031 15.15625 51.695312 14.441406 51.605469 C 14.125 51.566406 13.625 51.34375 13.292969 51.339844 C 13.28125 52.6875 13.296875 54.03125 13.351562 55.375 C 13.429688 57.300781 12.527344 60.105469 15.117188 60.617188 C 16.476562 60.886719 17.949219 60.882812 19.335938 60.949219 C 20.949219 61.019531 24.914062 61.648438 26.070312 60.167969 C 26.8125 59.226562 26.492188 57.636719 26.539062 56.507812 C 26.578125 55.550781 26.613281 54.589844 26.628906 53.628906 Z M 26.671875 50.523438 C 26.703125 47.449219 26.710938 44.378906 26.742188 41.308594 C 24.570312 42.800781 21.722656 43.496094 19.136719 43.332031 C 17.34375 43.214844 14.941406 42.792969 13.539062 41.472656 C 13.527344 41.773438 13.523438 42.070312 13.511719 42.371094 C 13.453125 45.164062 13.332031 47.957031 13.296875 50.75 C 13.691406 50.761719 13.941406 50.960938 14.441406 51.007812 C 15.019531 51.054688 15.597656 51.109375 16.171875 51.15625 C 17.507812 51.257812 18.886719 51.394531 20.234375 51.320312 C 22.339844 51.203125 24.644531 51.164062 26.671875 50.523438 Z M 26.75 40.5625 C 26.777344 38.089844 26.796875 35.621094 26.824219 33.148438 C 25.203125 32.082031 22.910156 31.613281 21.003906 31.332031 C 18.414062 30.957031 16.054688 31.554688 13.855469 32.882812 C 13.796875 33.878906 13.710938 34.871094 13.683594 35.839844 C 13.636719 37.4375 13.597656 39.035156 13.558594 40.632812 C 13.574219 40.648438 13.589844 40.652344 13.605469 40.667969 C 14.921875 42.289062 17.621094 42.664062 19.554688 42.738281 C 22.011719 42.835938 24.753906 42.046875 26.75 40.5625 Z M 26.832031 32.457031 C 26.847656 31.171875 26.863281 29.878906 26.886719 28.585938 C 25.027344 29.179688 22.867188 28.855469 20.949219 28.855469 C 19.480469 28.855469 17.96875 28.941406 16.5 28.832031 C 16.027344 28.800781 15.3125 28.726562 14.71875 28.667969 C 14.121094 28.605469 13.644531 28.546875 13.644531 28.546875 C 13.695312 28.949219 13.796875 29.535156 13.847656 30.085938 C 13.917969 30.773438 13.917969 31.460938 13.894531 32.167969 C 16.15625 30.882812 18.113281 30.644531 20.785156 30.703125 C 21.792969 30.722656 22.921875 31.15625 23.910156 31.355469 C 24.941406 31.5625 25.933594 31.925781 26.832031 32.457031 Z M 26.898438 27.953125 C 26.957031 26.101562 27.210938 23.949219 25.800781 22.5 C 25.109375 21.785156 24.375 21.433594 24.335938 20.402344 C 23.890625 20.410156 23.40625 20.324219 22.996094 20.324219 C 22.492188 20.324219 21.984375 20.304688 21.476562 20.304688 C 20.417969 20.300781 19.359375 20.300781 18.300781 20.316406 C 18.160156 20.316406 16.40625 20.273438 16.386719 20.425781 C 16.339844 20.789062 16.210938 21.003906 15.9375 21.328125 C 14.976562 22.441406 13.902344 22.859375 13.957031 24.585938 C 13.96875 24.949219 13.792969 25.285156 13.738281 25.628906 C 13.636719 26.28125 13.648438 26.972656 13.613281 27.628906 C 13.605469 27.730469 13.605469 27.828125 13.605469 27.925781 C 13.617188 27.921875 13.628906 27.917969 13.644531 27.917969 C 14.441406 27.917969 15.328125 28.027344 16.152344 28.160156 C 17.519531 28.378906 19.011719 28.25 20.394531 28.25 C 22.410156 28.25 24.96875 28.683594 26.898438 27.953125 Z M 25.484375 21.414062 C 28.378906 23.726562 27.496094 27.804688 27.460938 31.058594 C 27.40625 35.890625 27.335938 40.722656 27.292969 45.554688 C 27.269531 48.054688 27.289062 50.554688 27.238281 53.054688 C 27.21875 54.207031 27.164062 55.355469 27.136719 56.507812 C 27.117188 57.425781 27.234375 58.417969 27.039062 59.320312 C 26.3125 62.640625 20.722656 61.648438 18.292969 61.472656 C 16.488281 61.347656 12.875 61.632812 12.675781 59.007812 C 12.582031 57.796875 12.820312 56.597656 12.75 55.375 C 12.683594 54.207031 12.667969 53.058594 12.695312 51.886719 C 12.753906 49.507812 12.808594 47.128906 12.863281 44.75 C 12.925781 42.175781 12.976562 39.601562 13.046875 37.027344 C 13.082031 35.839844 13.113281 34.652344 13.15625 33.464844 C 13.191406 32.507812 13.382812 31.453125 13.296875 30.5 C 13.175781 29.289062 12.992188 28.339844 13.042969 27.097656 C 13.085938 26.101562 13.375 25.066406 13.34375 24.089844 C 13.320312 23.421875 13.757812 22.683594 14.097656 22.148438 C 14.441406 21.617188 15.515625 21.097656 15.753906 20.445312 C 15.628906 20.453125 15.5 20.453125 15.371094 20.460938 C 15.230469 20.464844 15.128906 20.359375 15.085938 20.242188 C 14.9375 19.828125 15.074219 19.484375 15.074219 19.054688 C 15.074219 18.386719 15.007812 17.726562 15.007812 17.0625 C 15.003906 15.921875 15.007812 14.78125 15.007812 13.632812 C 15.007812 13.527344 15.0625 13.429688 15.15625 13.378906 C 15.5 13.179688 15.492188 13.191406 15.90625 13.203125 C 15.988281 13.207031 16.042969 13.234375 16.089844 13.273438 C 16.261719 13.28125 16.433594 13.28125 16.605469 13.285156 C 16.636719 12.546875 16.675781 11.875 17.40625 11.578125 C 17.40625 10.5625 17.242188 9.503906 17.308594 8.507812 C 17.363281 7.738281 17.609375 7.050781 17.75 6.296875 C 17.804688 5.972656 18.082031 5.832031 18.445312 5.777344 C 18.578125 5.265625 18.699219 4.796875 18.789062 4.265625 C 18.867188 3.804688 18.800781 3.164062 18.953125 2.71875 C 19.027344 2.507812 19.164062 2.363281 19.339844 2.269531 C 19.347656 2.011719 19.386719 1.78125 19.554688 1.570312 C 19.730469 1.351562 20.132812 1.40625 20.367188 1.414062 C 20.574219 1.425781 20.882812 1.425781 21.042969 1.570312 C 21.132812 1.644531 21.214844 1.753906 21.234375 1.875 C 21.25 1.960938 21.246094 2.070312 21.269531 2.164062 C 21.269531 2.164062 21.273438 2.164062 21.277344 2.164062 C 22.046875 2.222656 21.894531 3.25 21.9375 3.785156 C 21.992188 4.5 22.878906 5.195312 22.667969 5.933594 C 22.710938 5.949219 22.75 5.960938 22.785156 5.984375 C 23.234375 6.320312 23.039062 6.847656 23.1875 7.363281 C 23.519531 8.523438 24.066406 10.441406 23.652344 11.640625 C 24 12.042969 23.851562 12.925781 23.917969 13.335938 C 24.136719 13.335938 24.34375 13.332031 24.5625 13.332031 C 25.007812 13.332031 25.5 13.210938 25.652344 13.753906 C 25.910156 14.691406 25.617188 15.953125 25.601562 16.917969 C 25.59375 17.535156 25.863281 19.386719 25.488281 19.914062 C 25.339844 20.117188 25.148438 20.238281 24.929688 20.308594 C 24.941406 20.796875 25.125 21.167969 25.484375 21.414062 " fill-opacity="1" fill-rule="nonzero"/></g><path fill="#ffffff" d="M 26.089844 45.230469 C 26.273438 45.570312 25.757812 45.867188 25.570312 45.53125 C 25.476562 45.355469 25.5 45.183594 25.441406 45.007812 C 25.308594 44.644531 25.890625 44.492188 26.015625 44.851562 C 26.058594 44.96875 26.027344 45.117188 26.089844 45.230469 " fill-opacity="1" fill-rule="nonzero"/><path fill="#ffffff" d="M 25.628906 33.882812 C 25.96875 33.703125 26.273438 34.222656 25.929688 34.402344 C 25.621094 34.5625 25.433594 34.910156 25.195312 35.152344 C 24.996094 35.347656 24.84375 35.617188 24.6875 35.839844 C 24.441406 36.203125 24.128906 36.515625 23.757812 36.742188 C 23.824219 36.863281 23.929688 36.984375 23.988281 37.097656 C 24.109375 37.34375 24.191406 37.585938 24.347656 37.808594 C 24.515625 38.042969 24.605469 38.457031 24.859375 38.613281 C 25.054688 38.738281 25.234375 38.851562 25.394531 39.023438 C 25.652344 39.308594 25.230469 39.730469 24.964844 39.449219 C 24.757812 39.21875 24.460938 39.113281 24.261719 38.871094 C 24.082031 38.652344 23.988281 38.351562 23.832031 38.113281 C 23.769531 38.019531 23.722656 37.917969 23.675781 37.8125 C 23.664062 38.304688 23.625 38.796875 23.519531 39.261719 C 23.433594 39.640625 22.855469 39.484375 22.945312 39.109375 C 23.117188 38.351562 23.027344 37.574219 23.09375 36.8125 C 23.097656 36.804688 23.097656 36.800781 23.097656 36.792969 C 23.003906 36.675781 22.996094 36.507812 23.140625 36.410156 C 23.214844 35.667969 23.3125 34.933594 23.382812 34.1875 C 23.417969 33.808594 24.019531 33.804688 23.984375 34.1875 C 23.921875 34.789062 23.832031 35.378906 23.761719 35.976562 C 24.0625 35.6875 24.285156 35.339844 24.546875 34.988281 C 24.71875 34.757812 24.933594 34.574219 25.109375 34.34375 C 25.257812 34.152344 25.414062 34 25.628906 33.882812 " fill-opacity="1" fill-rule="nonzero"/><path fill="#ffffff" d="M 25.628906 47.972656 C 26.027344 47.972656 26.027344 48.570312 25.628906 48.570312 C 25.230469 48.570312 25.230469 47.972656 25.628906 47.972656 " fill-opacity="1" fill-rule="nonzero"/><path fill="#ffffff" d="M 25.183594 45.027344 C 25.183594 45.144531 25.183594 45.261719 25.183594 45.375 C 25.183594 45.765625 24.582031 45.765625 24.582031 45.375 C 24.582031 45.261719 24.582031 45.144531 24.582031 45.027344 C 24.582031 44.640625 25.183594 44.640625 25.183594 45.027344 " fill-opacity="1" fill-rule="nonzero"/><path fill="#ffffff" d="M 24.832031 49.171875 C 25.214844 49.136719 25.210938 49.734375 24.832031 49.773438 C 24.746094 49.78125 24.664062 49.816406 24.582031 49.824219 C 24.195312 49.859375 24.199219 49.261719 24.582031 49.222656 C 24.660156 49.214844 24.746094 49.183594 24.832031 49.171875 " fill-opacity="1" fill-rule="nonzero"/><path fill="#ffffff" d="M 24.730469 48.027344 C 25.117188 48.011719 25.113281 48.609375 24.730469 48.625 C 24.5625 48.632812 24.398438 48.667969 24.230469 48.675781 C 24.089844 48.683594 24 48.605469 23.964844 48.503906 C 23.949219 48.644531 23.859375 48.773438 23.679688 48.773438 C 23.476562 48.773438 23.289062 48.808594 23.078125 48.824219 C 22.695312 48.855469 22.699219 48.257812 23.078125 48.226562 C 23.285156 48.207031 23.476562 48.171875 23.679688 48.171875 C 23.820312 48.171875 23.90625 48.253906 23.945312 48.355469 C 23.957031 48.214844 24.050781 48.082031 24.230469 48.078125 C 24.398438 48.070312 24.5625 48.035156 24.730469 48.027344 " fill-opacity="1" fill-rule="nonzero"/><path fill="#ffffff" d="M 24.480469 40.285156 C 24.867188 40.285156 24.867188 40.886719 24.480469 40.886719 C 24.296875 40.886719 24.113281 40.886719 23.929688 40.886719 C 23.542969 40.886719 23.542969 40.285156 23.929688 40.285156 C 24.113281 40.285156 24.296875 40.285156 24.480469 40.285156 " fill-opacity="1" fill-rule="nonzero"/><path fill="#ffffff" d="M 23.78125 44.882812 C 23.804688 44.496094 24.402344 44.496094 24.382812 44.882812 C 24.375 44.972656 24.355469 45.070312 24.335938 45.164062 C 24.332031 45.199219 24.328125 45.359375 24.292969 45.316406 C 24.394531 45.445312 24.417969 45.617188 24.292969 45.738281 C 24.1875 45.847656 23.96875 45.867188 23.867188 45.738281 C 23.640625 45.453125 23.761719 45.167969 23.78125 44.882812 " fill-opacity="1" fill-rule="nonzero"/><path fill="#ffffff" d="M 23.730469 49.277344 C 24.113281 49.238281 24.113281 49.839844 23.730469 49.875 C 23.632812 49.882812 23.535156 49.921875 23.429688 49.921875 C 23.347656 49.921875 23.292969 49.929688 23.210938 49.964844 C 23.058594 50.023438 22.882812 49.894531 22.84375 49.75 C 22.796875 49.582031 22.898438 49.449219 23.050781 49.382812 C 23.179688 49.332031 23.300781 49.335938 23.429688 49.324219 C 23.53125 49.316406 23.632812 49.285156 23.730469 49.277344 " fill-opacity="1" fill-rule="nonzero"/><path fill="#ffffff" d="M 23.007812 45.382812 C 23.003906 45.382812 23 45.386719 22.996094 45.390625 C 23 45.382812 23.007812 45.371094 23.011719 45.351562 C 23.023438 45.296875 23.035156 45.238281 23.042969 45.183594 C 23.054688 45.105469 23.0625 45.019531 23.089844 44.949219 C 23.152344 44.796875 23.292969 44.695312 23.460938 44.742188 C 23.605469 44.78125 23.730469 44.957031 23.671875 45.109375 C 23.5625 45.371094 23.636719 45.734375 23.332031 45.890625 C 23.007812 46.050781 22.722656 45.601562 22.988281 45.40625 C 22.988281 45.402344 22.988281 45.402344 22.992188 45.402344 C 23 45.394531 23.003906 45.390625 23.007812 45.382812 " fill-opacity="1" fill-rule="nonzero"/><path fill="#ffffff" d="M 22.730469 40.425781 C 23.050781 40.210938 23.351562 40.730469 23.03125 40.941406 C 22.941406 41.003906 22.882812 41.125 22.785156 41.195312 C 22.460938 41.410156 22.160156 40.890625 22.480469 40.671875 C 22.574219 40.609375 22.628906 40.496094 22.730469 40.425781 " fill-opacity="1" fill-rule="nonzero"/><path fill="#ffffff" d="M 22.832031 32.542969 C 23.230469 32.542969 23.230469 32.941406 22.832031 32.941406 C 22.433594 32.941406 21.632812 32.941406 21.632812 32.941406 C 21.234375 32.941406 21.234375 32.542969 21.632812 32.542969 C 22.03125 32.542969 22.433594 32.542969 22.832031 32.542969 " fill-opacity="1" fill-rule="nonzero"/><path fill="#ffffff" d="M 22.632812 45.179688 C 22.636719 45.445312 22.667969 45.746094 22.445312 45.941406 C 22.152344 46.1875 21.722656 45.769531 22.019531 45.515625 C 22.074219 45.46875 22.03125 45.257812 22.03125 45.179688 C 22.023438 44.792969 22.625 44.792969 22.632812 45.179688 " fill-opacity="1" fill-rule="nonzero"/><path fill="#ffffff" d="M 22.332031 49.425781 C 22.71875 49.414062 22.714844 50.011719 22.332031 50.023438 C 22.078125 50.03125 21.835938 50.117188 21.585938 50.125 C 21.199219 50.136719 21.199219 49.535156 21.585938 49.523438 C 21.835938 49.515625 22.078125 49.433594 22.332031 49.425781 " fill-opacity="1" fill-rule="nonzero"/><path fill="#ffffff" d="M 22.332031 48.277344 C 22.71875 48.277344 22.71875 48.875 22.332031 48.875 C 22.132812 48.875 21.933594 48.875 21.730469 48.875 C 21.34375 48.875 21.34375 48.277344 21.730469 48.277344 C 21.933594 48.277344 22.132812 48.277344 22.332031 48.277344 " fill-opacity="1" fill-rule="nonzero"/><path fill="#ffffff" d="M 22.03125 38.183594 C 22.03125 38.671875 22.128906 39.308594 21.507812 39.34375 C 20.910156 39.375 20.226562 37.875 19.945312 37.539062 C 19.453125 36.9375 19.230469 36.171875 18.929688 35.449219 C 19.007812 37.1875 18.988281 39.335938 18.988281 39.335938 C 18.988281 39.734375 18.390625 39.734375 18.390625 39.335938 C 18.390625 37.339844 18.433594 35.882812 18.242188 34.1875 C 18.214844 33.9375 18.609375 33.734375 18.769531 33.929688 C 19.183594 34.445312 19.539062 35.085938 19.765625 35.710938 C 20.082031 36.617188 20.65625 37.332031 21.195312 38.105469 C 21.382812 38.382812 21.632812 38.820312 21.632812 38.183594 C 21.632812 37.730469 21.632812 37.269531 21.632812 36.8125 C 21.632812 35.90625 21.632812 34.941406 21.632812 34.140625 C 21.632812 33.742188 22.03125 33.742188 22.03125 34.140625 C 22.03125 35.339844 22.03125 36.820312 22.03125 38.183594 " fill-opacity="1" fill-rule="nonzero"/><path fill="#ffffff" d="M 21.996094 40.320312 C 22.101562 40.425781 22.125 40.644531 21.996094 40.746094 C 21.898438 40.824219 21.882812 40.914062 21.882812 41.03125 C 21.875 41.421875 21.273438 41.421875 21.28125 41.03125 C 21.289062 40.769531 21.351562 40.496094 21.570312 40.320312 C 21.699219 40.222656 21.871094 40.195312 21.996094 40.320312 " fill-opacity="1" fill-rule="nonzero"/><path fill="#ffffff" d="M 21.480469 45.679688 C 21.5 46.0625 20.902344 46.0625 20.882812 45.679688 C 20.867188 45.300781 20.730469 44.886719 20.925781 44.53125 C 21.109375 44.191406 21.628906 44.492188 21.441406 44.832031 C 21.386719 44.929688 21.429688 45.078125 21.433594 45.1875 C 21.4375 45.351562 21.472656 45.515625 21.480469 45.679688 " fill-opacity="1" fill-rule="nonzero"/><path fill="#ffffff" d="M 21.1875 40.128906 C 21.3125 40.203125 21.386719 40.40625 21.292969 40.535156 C 21.105469 40.78125 20.914062 41.023438 20.695312 41.246094 C 20.425781 41.523438 20 41.097656 20.269531 40.824219 C 20.457031 40.636719 20.617188 40.4375 20.773438 40.234375 C 20.875 40.101562 21.03125 40.035156 21.1875 40.128906 " fill-opacity="1" fill-rule="nonzero"/><path fill="#ffffff" d="M 21.261719 48.492188 C 21.347656 49.039062 20.890625 48.925781 20.535156 48.925781 C 20.414062 48.925781 20.339844 48.816406 20.289062 48.738281 C 20.265625 48.773438 20.234375 48.757812 20.1875 48.785156 C 19.945312 48.910156 19.695312 48.878906 19.4375 48.875 C 19.050781 48.863281 19.050781 48.265625 19.4375 48.277344 C 19.566406 48.277344 19.765625 48.304688 19.882812 48.242188 C 20.050781 48.148438 20.207031 48.203125 20.28125 48.328125 C 20.324219 48.242188 20.40625 48.125 20.535156 48.125 C 20.863281 48.125 21.199219 48.082031 21.261719 48.492188 " fill-opacity="1" fill-rule="nonzero"/><path fill="#ffffff" d="M 20.585938 49.675781 C 20.96875 49.667969 20.96875 50.265625 20.585938 50.273438 C 20.335938 50.277344 20.085938 50.320312 19.835938 50.324219 C 19.449219 50.332031 19.449219 49.730469 19.835938 49.722656 C 20.085938 49.71875 20.335938 49.679688 20.585938 49.675781 " fill-opacity="1" fill-rule="nonzero"/><path fill="#ffffff" d="M 20.023438 32.632812 C 20.082031 32.570312 20.039062 32.402344 19.996094 32.335938 C 19.945312 32.25 19.84375 32.246094 19.753906 32.246094 C 19.621094 32.242188 19.40625 32.210938 19.265625 32.261719 C 19.265625 32.28125 19.269531 32.296875 19.273438 32.316406 C 19.304688 32.390625 19.324219 32.460938 19.328125 32.542969 C 19.335938 32.617188 19.367188 32.734375 19.484375 32.742188 C 19.574219 32.75 19.640625 32.789062 19.6875 32.84375 C 19.820312 32.78125 19.96875 32.679688 20.023438 32.632812 Z M 20.589844 32.199219 C 20.664062 32.449219 20.695312 32.816406 20.488281 33.015625 C 20.132812 33.355469 19.519531 33.664062 19.074219 33.308594 C 19.003906 33.246094 18.972656 33.179688 18.972656 33.113281 C 18.867188 33.023438 18.785156 32.910156 18.75 32.769531 C 18.722656 32.683594 18.714844 32.5625 18.699219 32.46875 C 18.6875 32.417969 18.664062 32.371094 18.65625 32.320312 C 18.636719 32.199219 18.628906 32.070312 18.691406 31.96875 C 18.929688 31.589844 19.589844 31.582031 19.984375 31.664062 C 20.273438 31.726562 20.5 31.914062 20.589844 32.199219 " fill-opacity="1" fill-rule="nonzero"/><path fill="#ffffff" d="M 19.773438 40.269531 C 20.046875 40 20.46875 40.421875 20.199219 40.699219 C 20.101562 40.789062 20.015625 40.882812 19.972656 41.011719 C 19.863281 41.378906 19.28125 41.226562 19.398438 40.855469 C 19.46875 40.621094 19.601562 40.441406 19.773438 40.269531 " fill-opacity="1" fill-rule="nonzero"/><path fill="#ffffff" d="M 19.085938 45.128906 C 19.101562 44.746094 19.699219 44.742188 19.683594 45.128906 C 19.679688 45.296875 19.644531 45.460938 19.632812 45.628906 C 19.617188 46.011719 19.019531 46.015625 19.035156 45.628906 C 19.042969 45.460938 19.082031 45.296875 19.085938 45.128906 " fill-opacity="1" fill-rule="nonzero"/><path fill="#ffffff" d="M 18.796875 40.253906 C 18.902344 39.882812 19.480469 40.042969 19.375 40.414062 C 19.316406 40.621094 19.214844 40.804688 19.097656 40.984375 C 18.882812 41.304688 18.367188 41.003906 18.578125 40.679688 C 18.667969 40.546875 18.753906 40.414062 18.796875 40.253906 " fill-opacity="1" fill-rule="nonzero"/><path fill="#ffffff" d="M 19.1875 49.722656 C 19.570312 49.730469 19.570312 50.332031 19.1875 50.324219 C 18.933594 50.320312 18.6875 50.277344 18.4375 50.273438 C 18.285156 50.269531 18.195312 50.175781 18.160156 50.0625 C 18.132812 50.179688 18.042969 50.273438 17.886719 50.273438 C 17.65625 50.265625 17.421875 50.226562 17.191406 50.222656 C 16.800781 50.214844 16.800781 49.617188 17.191406 49.625 C 17.421875 49.628906 17.65625 49.667969 17.886719 49.675781 C 18.039062 49.675781 18.128906 49.773438 18.160156 49.882812 C 18.191406 49.769531 18.28125 49.671875 18.4375 49.675781 C 18.6875 49.679688 18.933594 49.71875 19.1875 49.722656 " fill-opacity="1" fill-rule="nonzero"/><path fill="#ffffff" d="M 18.507812 48.238281 C 18.882812 48.164062 19.042969 48.746094 18.664062 48.8125 C 18.410156 48.859375 18.148438 48.871094 17.886719 48.875 C 17.5 48.875 17.5 48.277344 17.886719 48.277344 C 18.097656 48.273438 18.300781 48.273438 18.507812 48.238281 " fill-opacity="1" fill-rule="nonzero"/><path fill="#ffffff" d="M 18.636719 44.882812 C 18.636719 45.097656 18.636719 45.3125 18.636719 45.53125 C 18.636719 45.917969 18.039062 45.917969 18.039062 45.53125 C 18.039062 45.3125 18.039062 45.097656 18.039062 44.882812 C 18.039062 44.496094 18.636719 44.496094 18.636719 44.882812 " fill-opacity="1" fill-rule="nonzero"/><path fill="#ffffff" d="M 17.988281 40.074219 C 18.324219 39.886719 18.625 40.40625 18.289062 40.59375 C 18.089844 40.707031 18.054688 40.945312 17.945312 41.132812 C 17.757812 41.472656 17.238281 41.171875 17.429688 40.835938 C 17.597656 40.535156 17.667969 40.253906 17.988281 40.074219 " fill-opacity="1" fill-rule="nonzero"/><path fill="#ffffff" d="M 18.039062 32.191406 C 18.425781 32.191406 18.425781 32.941406 18.039062 32.941406 C 17.867188 32.941406 17.707031 32.941406 17.539062 32.941406 C 17.441406 32.941406 17.46875 32.90625 17.378906 32.933594 C 17.183594 32.988281 16.839844 32.894531 16.839844 32.894531 C 16.4375 32.894531 16.4375 32.296875 16.839844 32.296875 C 16.839844 32.296875 17.035156 32.308594 17.160156 32.296875 C 17.242188 32.285156 17.230469 32.222656 17.308594 32.210938 C 17.546875 32.175781 17.792969 32.191406 18.039062 32.191406 " fill-opacity="1" fill-rule="nonzero"/><path fill="#ffffff" d="M 17.792969 45.464844 C 18.035156 45.667969 17.753906 46.101562 17.4375 45.9375 C 17.097656 45.765625 17.1875 45.238281 17.191406 44.929688 C 17.195312 44.542969 17.792969 44.542969 17.789062 44.929688 C 17.785156 45.035156 17.777344 45.144531 17.78125 45.253906 C 17.78125 45.308594 17.773438 45.371094 17.785156 45.429688 C 17.789062 45.449219 17.792969 45.457031 17.792969 45.464844 " fill-opacity="1" fill-rule="nonzero"/><path fill="#ffffff" d="M 17.265625 48.238281 C 17.640625 48.34375 17.480469 48.921875 17.109375 48.8125 C 16.988281 48.78125 16.867188 48.777344 16.738281 48.773438 C 16.351562 48.773438 16.351562 48.171875 16.738281 48.171875 C 16.917969 48.175781 17.09375 48.183594 17.265625 48.238281 " fill-opacity="1" fill-rule="nonzero"/><path fill="#ffffff" d="M 16.730469 40.332031 C 16.898438 39.984375 17.414062 40.289062 17.246094 40.632812 C 17.15625 40.828125 17.074219 41.015625 16.890625 41.140625 C 16.566406 41.355469 16.265625 40.839844 16.585938 40.625 C 16.636719 40.59375 16.695312 40.402344 16.730469 40.332031 " fill-opacity="1" fill-rule="nonzero"/><path fill="#ffffff" d="M 16.199219 44.800781 C 16.285156 44.421875 16.859375 44.582031 16.777344 44.957031 C 16.730469 45.183594 16.648438 45.402344 16.640625 45.628906 C 16.628906 46.011719 16.027344 46.015625 16.039062 45.628906 C 16.046875 45.339844 16.140625 45.078125 16.199219 44.800781 " fill-opacity="1" fill-rule="nonzero"/><path fill="#ffffff" d="M 16.589844 38.636719 C 16.976562 38.613281 16.976562 39.214844 16.589844 39.234375 C 16.402344 39.246094 16.226562 39.339844 16.042969 39.371094 C 15.847656 39.40625 15.636719 39.429688 15.441406 39.4375 C 15.054688 39.457031 15.058594 38.855469 15.441406 38.835938 C 15.503906 38.832031 15.574219 38.828125 15.644531 38.824219 C 15.378906 37.402344 15.316406 35.839844 15.339844 34.386719 C 15.273438 34.386719 15.203125 34.390625 15.140625 34.390625 C 14.753906 34.402344 14.78125 33.800781 15.164062 33.789062 C 15.585938 33.78125 16.039062 33.742188 16.4375 33.742188 C 16.839844 33.742188 16.839844 34.339844 16.4375 34.339844 C 16.28125 34.339844 16.105469 34.351562 15.933594 34.355469 C 15.90625 35.082031 15.851562 35.945312 16.078125 36.613281 C 16.167969 36.863281 16.089844 37.246094 16.113281 37.511719 C 16.152344 37.902344 16.15625 38.320312 16.226562 38.703125 C 16.347656 38.671875 16.464844 38.644531 16.589844 38.636719 " fill-opacity="1" fill-rule="nonzero"/><path fill="#ffffff" d="M 16.167969 49.582031 C 16.535156 49.703125 16.378906 50.277344 16.011719 50.164062 C 15.863281 50.117188 15.714844 50.078125 15.566406 50.03125 C 15.410156 49.980469 15.222656 50.007812 15.0625 49.964844 C 14.6875 49.859375 14.847656 49.28125 15.21875 49.382812 C 15.386719 49.433594 15.558594 49.40625 15.726562 49.453125 C 15.875 49.5 16.023438 49.535156 16.167969 49.582031 " fill-opacity="1" fill-rule="nonzero"/><path fill="#ffffff" d="M 15.71875 44.675781 C 15.890625 44.726562 15.957031 44.875 15.929688 45.03125 C 15.890625 45.273438 15.886719 45.726562 15.886719 45.726562 C 15.886719 46.128906 15.289062 46.128906 15.289062 45.726562 C 15.289062 45.328125 15.304688 45.164062 15.351562 44.871094 C 15.375 44.707031 15.574219 44.636719 15.71875 44.675781 " fill-opacity="1" fill-rule="nonzero"/><path fill="#ffffff" d="M 15.6875 40.332031 C 16.074219 40.332031 16.074219 40.933594 15.6875 40.933594 C 15.472656 40.933594 15.257812 40.933594 15.039062 40.933594 C 14.652344 40.933594 14.652344 40.332031 15.039062 40.332031 C 15.257812 40.332031 15.472656 40.332031 15.6875 40.332031 " fill-opacity="1" fill-rule="nonzero"/><path fill="#ffffff" d="M 15.539062 48.078125 C 15.929688 48.082031 15.929688 48.683594 15.539062 48.675781 C 15.277344 48.667969 15.019531 48.617188 14.761719 48.5625 C 14.382812 48.488281 14.539062 47.910156 14.921875 47.988281 C 15.128906 48.03125 15.328125 48.070312 15.539062 48.078125 " fill-opacity="1" fill-rule="nonzero"/><path fill="#ffffff" d="M 14.910156 45.109375 C 14.925781 45.082031 14.894531 45.175781 14.890625 45.1875 C 14.882812 45.226562 14.875 45.265625 14.871094 45.304688 C 14.871094 45.351562 14.867188 45.40625 14.871094 45.457031 C 15.089844 45.65625 14.929688 46.089844 14.613281 45.96875 C 14.167969 45.796875 14.226562 45.191406 14.382812 44.832031 C 14.449219 44.675781 14.664062 44.644531 14.792969 44.722656 C 14.9375 44.804688 14.964844 44.964844 14.910156 45.109375 " fill-opacity="1" fill-rule="nonzero"/><g clip-path="url(#b4b3368667)"><path fill="#ffffff" d="M 32.789062 19.726562 C 33.019531 17.988281 32.5625 14.53125 32.46875 13.875 C 32.371094 13.871094 32.269531 13.871094 32.167969 13.867188 C 31.773438 14.320312 31.980469 17.152344 31.996094 17.566406 C 32.023438 18.207031 32.054688 18.847656 32.054688 19.492188 C 32.054688 19.929688 32.089844 19.765625 32.503906 19.746094 C 32.601562 19.742188 32.695312 19.742188 32.789062 19.738281 C 32.789062 19.734375 32.789062 19.730469 32.789062 19.726562 Z M 34.195312 19.722656 C 34.371094 17.925781 34.125 14.636719 34.0625 13.914062 C 33.726562 13.902344 33.390625 13.894531 33.058594 13.886719 C 33.082031 15.839844 33.636719 17.820312 33.386719 19.722656 C 33.65625 19.71875 33.925781 19.71875 34.195312 19.722656 Z M 34.796875 19.726562 C 35.0625 19.734375 35.332031 19.738281 35.605469 19.746094 C 35.59375 19.714844 35.582031 19.675781 35.585938 19.628906 C 35.632812 17.742188 35.390625 15.914062 35.386719 14.039062 C 35.386719 13.992188 35.394531 13.957031 35.40625 13.925781 C 35.152344 13.925781 34.90625 13.921875 34.652344 13.917969 C 34.671875 15.835938 34.988281 17.808594 34.796875 19.726562 Z M 36.800781 19.570312 C 37.023438 19.425781 36.78125 17.679688 36.78125 17.363281 C 36.78125 16.21875 36.703125 15.085938 36.714844 13.933594 C 36.464844 13.933594 36.214844 13.933594 35.960938 13.929688 C 35.972656 13.960938 35.984375 13.996094 35.984375 14.039062 C 35.988281 15.914062 36.234375 17.742188 36.183594 19.628906 C 36.179688 19.683594 36.167969 19.726562 36.148438 19.761719 C 36.320312 19.769531 36.492188 19.773438 36.660156 19.777344 C 36.671875 19.703125 36.710938 19.621094 36.800781 19.570312 Z M 37.042969 2.09375 C 37.039062 2.0625 37.046875 2.046875 37.050781 2.042969 C 37.046875 2.046875 37.03125 2.046875 37.007812 2.046875 C 36.933594 2.046875 36.863281 2.046875 36.785156 2.035156 C 36.667969 2.011719 36.511719 1.964844 36.386719 2.003906 C 36.351562 2.015625 36.335938 2.058594 36.324219 2.105469 C 36.5625 2.082031 36.808594 2.089844 37.042969 2.109375 C 37.042969 2.101562 37.042969 2.097656 37.042969 2.09375 Z M 37.328125 19.796875 C 37.632812 19.804688 37.9375 19.808594 38.242188 19.8125 C 38.230469 17.933594 38.113281 16.046875 38.113281 14.164062 C 38.113281 14.0625 38.152344 13.984375 38.214844 13.9375 C 37.914062 13.9375 37.617188 13.9375 37.316406 13.933594 C 37.300781 15.28125 37.363281 16.621094 37.402344 17.96875 C 37.414062 18.386719 37.558594 19.285156 37.328125 19.796875 Z M 38.488281 5.761719 C 38.5625 5.601562 38.164062 4.882812 38.070312 4.746094 C 37.886719 4.484375 37.761719 4.332031 37.734375 4 C 37.710938 3.707031 37.648438 3.402344 37.648438 3.113281 C 37.648438 2.6875 37.378906 2.75 37.039062 2.75 C 36.617188 2.75 35.96875 2.617188 35.90625 3.179688 C 35.871094 3.515625 35.847656 3.84375 35.789062 4.175781 C 35.730469 4.535156 35.761719 4.929688 35.636719 5.273438 C 35.582031 5.433594 35.523438 5.601562 35.464844 5.765625 C 36.164062 5.8125 36.929688 6.007812 37.214844 6.007812 C 37.492188 6.007812 38.011719 5.90625 38.460938 5.878906 C 38.460938 5.84375 38.46875 5.800781 38.488281 5.761719 Z M 39.164062 8.140625 C 39.136719 8.035156 39.105469 7.929688 39.082031 7.832031 C 38.980469 7.488281 38.917969 7.144531 38.859375 6.789062 C 38.804688 6.480469 39.015625 6.488281 38.511719 6.570312 C 38.089844 6.632812 37.636719 6.632812 37.214844 6.609375 C 36.589844 6.578125 35.96875 6.445312 35.347656 6.40625 C 34.707031 6.371094 34.667969 6.777344 34.507812 7.324219 C 34.375 7.785156 34.324219 8.269531 34.304688 8.753906 C 35.902344 8.226562 37.277344 8.140625 39.164062 8.140625 Z M 39.34375 8.972656 C 39.363281 8.972656 39.382812 8.972656 39.398438 8.972656 C 39.367188 8.972656 39.34375 8.785156 39.316406 8.671875 C 39.285156 8.679688 39.253906 8.710938 39.214844 8.710938 C 37.246094 8.710938 35.90625 8.808594 34.300781 9.363281 C 34.304688 9.546875 34.316406 9.726562 34.324219 9.914062 C 35.925781 9.402344 37.46875 9.09375 39.164062 9.089844 C 39.210938 9.050781 39.269531 8.972656 39.34375 8.972656 Z M 39.558594 10.132812 C 39.546875 9.996094 39.53125 9.769531 39.507812 9.769531 C 39.46875 9.769531 39.433594 9.769531 39.394531 9.769531 C 39.347656 9.769531 39.289062 9.789062 39.214844 9.789062 C 37.511719 9.789062 35.960938 10.03125 34.355469 10.554688 C 34.371094 10.828125 34.378906 11.121094 34.382812 11.382812 C 36.066406 10.648438 37.722656 10.257812 39.558594 10.132812 Z M 39.492188 11.335938 C 39.546875 11.132812 39.578125 10.914062 39.582031 10.679688 C 38.519531 10.757812 37.480469 10.933594 36.46875 11.230469 C 36.53125 11.226562 36.601562 11.226562 36.664062 11.222656 C 37.496094 11.183594 38.628906 11.042969 39.492188 11.335938 Z M 33.585938 13.300781 C 35.625 13.339844 37.664062 13.335938 39.703125 13.335938 C 39.683594 12.90625 39.71875 12.082031 39.5 11.996094 C 38.769531 11.703125 37.792969 11.765625 37.015625 11.804688 C 36.234375 11.84375 35.152344 11.734375 34.425781 12.054688 C 33.738281 12.359375 33.628906 12.285156 33.585938 13.300781 Z M 39.660156 19.804688 C 40.019531 17.917969 39.550781 15.875 39.515625 13.9375 C 39.21875 13.9375 38.914062 13.9375 38.613281 13.9375 C 38.671875 13.984375 38.714844 14.0625 38.714844 14.164062 C 38.714844 15.8125 38.804688 18.8125 38.835938 19.816406 C 39.113281 19.816406 39.386719 19.8125 39.660156 19.804688 Z M 40.269531 19.675781 C 40.449219 19.667969 40.628906 19.71875 40.808594 19.703125 C 40.792969 19.671875 40.777344 19.585938 40.777344 19.542969 C 40.695312 17.644531 40.597656 15.761719 40.378906 13.765625 C 40.292969 13.765625 40.203125 13.765625 40.117188 13.765625 C 40.144531 15.761719 40.574219 17.769531 40.269531 19.675781 Z M 41.378906 15.984375 C 41.398438 15.417969 41.429688 14.804688 41.390625 14.230469 C 41.371094 13.96875 41.210938 13.902344 40.8125 13.898438 C 41.210938 15.617188 41.171875 17.359375 41.246094 19.097656 C 41.398438 18.105469 41.371094 16.253906 41.378906 15.984375 Z M 43.007812 53.628906 C 43.027344 52.800781 43.039062 51.972656 43.046875 51.144531 C 41.164062 51.710938 39.085938 51.78125 37.148438 51.890625 C 35.84375 51.960938 34.261719 52.074219 32.972656 51.835938 C 32.261719 51.707031 31.539062 51.695312 30.824219 51.605469 C 30.507812 51.566406 30.007812 51.34375 29.671875 51.339844 C 29.664062 52.6875 29.675781 54.03125 29.730469 55.375 C 29.8125 57.300781 28.910156 60.105469 31.5 60.617188 C 32.859375 60.886719 34.328125 60.882812 35.714844 60.949219 C 37.332031 61.019531 41.296875 61.648438 42.453125 60.167969 C 43.191406 59.226562 42.871094 57.636719 42.921875 56.507812 C 42.960938 55.550781 42.992188 54.589844 43.007812 53.628906 Z M 43.054688 50.523438 C 43.085938 47.449219 43.09375 44.378906 43.125 41.308594 C 40.953125 42.800781 38.105469 43.496094 35.519531 43.332031 C 33.722656 43.214844 31.324219 42.792969 29.917969 41.472656 C 29.910156 41.773438 29.902344 42.070312 29.894531 42.371094 C 29.835938 45.164062 29.710938 47.957031 29.675781 50.75 C 30.070312 50.761719 30.324219 50.960938 30.824219 51.007812 C 31.402344 51.054688 31.976562 51.109375 32.550781 51.15625 C 33.890625 51.257812 35.269531 51.394531 36.617188 51.320312 C 38.722656 51.203125 41.027344 51.164062 43.054688 50.523438 Z M 43.132812 40.5625 C 43.160156 38.089844 43.179688 35.621094 43.203125 33.148438 C 41.582031 32.082031 39.289062 31.613281 37.386719 31.332031 C 34.796875 30.957031 32.4375 31.554688 30.238281 32.882812 C 30.179688 33.878906 30.089844 34.871094 30.0625 35.839844 C 30.015625 37.4375 29.980469 39.035156 29.9375 40.632812 C 29.957031 40.648438 29.972656 40.652344 29.988281 40.667969 C 31.300781 42.289062 34.003906 42.664062 35.9375 42.738281 C 38.394531 42.835938 41.132812 42.046875 43.132812 40.5625 Z M 43.210938 32.457031 C 43.226562 31.171875 43.242188 29.878906 43.269531 28.585938 C 41.40625 29.179688 39.25 28.855469 37.332031 28.855469 C 35.863281 28.855469 34.351562 28.941406 32.878906 28.832031 C 32.410156 28.800781 31.695312 28.726562 31.097656 28.667969 C 30.503906 28.605469 30.023438 28.546875 30.023438 28.546875 C 30.074219 28.949219 30.179688 29.535156 30.230469 30.085938 C 30.300781 30.773438 30.300781 31.460938 30.273438 32.167969 C 32.535156 30.882812 34.496094 30.644531 37.167969 30.703125 C 38.175781 30.722656 39.300781 31.15625 40.292969 31.355469 C 41.324219 31.5625 42.3125 31.925781 43.210938 32.457031 Z M 43.28125 27.953125 C 43.335938 26.101562 43.589844 23.949219 42.179688 22.5 C 41.492188 21.785156 40.753906 21.433594 40.71875 20.402344 C 40.273438 20.410156 39.789062 20.324219 39.378906 20.324219 C 38.875 20.324219 38.367188 20.304688 37.859375 20.304688 C 36.800781 20.300781 35.742188 20.300781 34.679688 20.316406 C 34.542969 20.316406 32.789062 20.273438 32.769531 20.425781 C 32.722656 20.789062 32.59375 21.003906 32.316406 21.328125 C 31.359375 22.441406 30.28125 22.859375 30.339844 24.585938 C 30.351562 24.949219 30.175781 25.285156 30.121094 25.628906 C 30.015625 26.28125 30.03125 26.972656 29.996094 27.628906 C 29.988281 27.730469 29.988281 27.828125 29.988281 27.925781 C 30 27.921875 30.011719 27.917969 30.023438 27.917969 C 30.824219 27.917969 31.710938 28.027344 32.53125 28.160156 C 33.902344 28.378906 35.394531 28.25 36.777344 28.25 C 38.792969 28.25 41.351562 28.683594 43.28125 27.953125 Z M 41.867188 21.414062 C 44.757812 23.726562 43.878906 27.804688 43.84375 31.058594 C 43.789062 35.890625 43.714844 40.722656 43.671875 45.554688 C 43.652344 48.054688 43.667969 50.554688 43.621094 53.054688 C 43.601562 54.207031 43.542969 55.355469 43.519531 56.507812 C 43.5 57.425781 43.613281 58.417969 43.421875 59.320312 C 42.695312 62.640625 37.101562 61.648438 34.675781 61.472656 C 32.867188 61.347656 29.253906 61.632812 29.058594 59.007812 C 28.960938 57.796875 29.199219 56.597656 29.132812 55.375 C 29.066406 54.207031 29.050781 53.058594 29.078125 51.886719 C 29.136719 49.507812 29.191406 47.128906 29.242188 44.75 C 29.304688 42.175781 29.355469 39.601562 29.429688 37.027344 C 29.464844 35.839844 29.496094 34.652344 29.539062 33.464844 C 29.570312 32.507812 29.765625 31.453125 29.675781 30.5 C 29.558594 29.289062 29.371094 28.339844 29.425781 27.097656 C 29.46875 26.101562 29.753906 25.066406 29.722656 24.089844 C 29.699219 23.421875 30.140625 22.683594 30.480469 22.148438 C 30.824219 21.617188 31.898438 21.097656 32.136719 20.445312 C 32.011719 20.453125 31.882812 20.453125 31.753906 20.460938 C 31.613281 20.464844 31.507812 20.359375 31.464844 20.242188 C 31.320312 19.828125 31.453125 19.484375 31.453125 19.054688 C 31.453125 18.386719 31.390625 17.726562 31.390625 17.0625 C 31.386719 15.921875 31.390625 14.78125 31.390625 13.632812 C 31.390625 13.527344 31.445312 13.429688 31.539062 13.378906 C 31.882812 13.179688 31.875 13.191406 32.289062 13.203125 C 32.371094 13.207031 32.425781 13.234375 32.472656 13.273438 C 32.644531 13.28125 32.816406 13.28125 32.988281 13.285156 C 33.015625 12.546875 33.058594 11.875 33.789062 11.578125 C 33.789062 10.5625 33.625 9.503906 33.691406 8.507812 C 33.742188 7.738281 33.988281 7.050781 34.132812 6.296875 C 34.1875 5.972656 34.464844 5.832031 34.828125 5.777344 C 34.957031 5.265625 35.078125 4.796875 35.171875 4.265625 C 35.25 3.804688 35.183594 3.164062 35.332031 2.71875 C 35.410156 2.507812 35.546875 2.363281 35.71875 2.269531 C 35.730469 2.011719 35.769531 1.78125 35.9375 1.570312 C 36.113281 1.351562 36.511719 1.40625 36.746094 1.414062 C 36.957031 1.425781 37.261719 1.425781 37.425781 1.570312 C 37.515625 1.644531 37.59375 1.753906 37.617188 1.875 C 37.632812 1.960938 37.628906 2.070312 37.652344 2.164062 C 37.652344 2.164062 37.65625 2.164062 37.660156 2.164062 C 38.429688 2.222656 38.273438 3.25 38.320312 3.785156 C 38.375 4.5 39.261719 5.195312 39.050781 5.933594 C 39.09375 5.949219 39.132812 5.960938 39.164062 5.984375 C 39.617188 6.320312 39.421875 6.847656 39.570312 7.363281 C 39.902344 8.523438 40.449219 10.441406 40.035156 11.640625 C 40.382812 12.042969 40.234375 12.925781 40.300781 13.335938 C 40.515625 13.335938 40.726562 13.332031 40.945312 13.332031 C 41.390625 13.332031 41.882812 13.210938 42.035156 13.753906 C 42.289062 14.691406 42 15.953125 41.980469 16.917969 C 41.972656 17.535156 42.242188 19.386719 41.871094 19.914062 C 41.722656 20.117188 41.53125 20.238281 41.3125 20.308594 C 41.324219 20.796875 41.507812 21.167969 41.867188 21.414062 " fill-opacity="1" fill-rule="nonzero"/></g><path fill="#ffffff" d="M 42.46875 45.230469 C 42.65625 45.570312 42.136719 45.867188 41.949219 45.53125 C 41.859375 45.355469 41.882812 45.183594 41.820312 45.007812 C 41.691406 44.644531 42.269531 44.492188 42.398438 44.851562 C 42.441406 44.96875 42.410156 45.117188 42.46875 45.230469 " fill-opacity="1" fill-rule="nonzero"/><path fill="#ffffff" d="M 42.011719 33.882812 C 42.351562 33.703125 42.65625 34.222656 42.3125 34.402344 C 42.003906 34.5625 41.8125 34.910156 41.574219 35.152344 C 41.378906 35.347656 41.222656 35.617188 41.070312 35.839844 C 40.824219 36.203125 40.511719 36.515625 40.140625 36.742188 C 40.203125 36.863281 40.3125 36.984375 40.367188 37.097656 C 40.492188 37.34375 40.574219 37.585938 40.730469 37.808594 C 40.898438 38.042969 40.988281 38.457031 41.242188 38.613281 C 41.433594 38.738281 41.617188 38.851562 41.773438 39.023438 C 42.035156 39.308594 41.613281 39.730469 41.347656 39.449219 C 41.140625 39.21875 40.84375 39.113281 40.644531 38.871094 C 40.464844 38.652344 40.367188 38.351562 40.210938 38.113281 C 40.152344 38.019531 40.105469 37.917969 40.054688 37.8125 C 40.042969 38.304688 40.007812 38.796875 39.902344 39.261719 C 39.816406 39.640625 39.238281 39.484375 39.324219 39.109375 C 39.496094 38.351562 39.410156 37.574219 39.476562 36.8125 C 39.480469 36.804688 39.480469 36.800781 39.480469 36.792969 C 39.386719 36.675781 39.378906 36.507812 39.519531 36.410156 C 39.597656 35.667969 39.691406 34.933594 39.765625 34.1875 C 39.800781 33.808594 40.398438 33.804688 40.363281 34.1875 C 40.304688 34.789062 40.210938 35.378906 40.144531 35.976562 C 40.445312 35.6875 40.667969 35.339844 40.929688 34.988281 C 41.097656 34.757812 41.316406 34.574219 41.492188 34.34375 C 41.640625 34.152344 41.792969 34 42.011719 33.882812 " fill-opacity="1" fill-rule="nonzero"/><path fill="#ffffff" d="M 42.011719 47.972656 C 42.410156 47.972656 42.410156 48.570312 42.011719 48.570312 C 41.613281 48.570312 41.613281 47.972656 42.011719 47.972656 " fill-opacity="1" fill-rule="nonzero"/><path fill="#ffffff" d="M 41.5625 45.027344 C 41.5625 45.144531 41.5625 45.261719 41.5625 45.375 C 41.5625 45.765625 40.964844 45.765625 40.964844 45.375 C 40.964844 45.261719 40.964844 45.144531 40.964844 45.027344 C 40.964844 44.640625 41.5625 44.640625 41.5625 45.027344 " fill-opacity="1" fill-rule="nonzero"/><path fill="#ffffff" d="M 41.210938 49.171875 C 41.59375 49.136719 41.589844 49.734375 41.210938 49.773438 C 41.125 49.78125 41.046875 49.816406 40.964844 49.824219 C 40.578125 49.859375 40.582031 49.261719 40.964844 49.222656 C 41.042969 49.214844 41.125 49.183594 41.210938 49.171875 " fill-opacity="1" fill-rule="nonzero"/><path fill="#ffffff" d="M 41.109375 48.027344 C 41.496094 48.011719 41.496094 48.609375 41.109375 48.625 C 40.945312 48.632812 40.777344 48.667969 40.613281 48.675781 C 40.472656 48.683594 40.382812 48.605469 40.347656 48.503906 C 40.332031 48.644531 40.242188 48.773438 40.058594 48.773438 C 39.855469 48.773438 39.667969 48.808594 39.460938 48.824219 C 39.078125 48.855469 39.082031 48.257812 39.460938 48.226562 C 39.664062 48.207031 39.855469 48.171875 40.058594 48.171875 C 40.199219 48.171875 40.289062 48.253906 40.328125 48.355469 C 40.339844 48.214844 40.429688 48.082031 40.613281 48.078125 C 40.777344 48.070312 40.945312 48.035156 41.109375 48.027344 " fill-opacity="1" fill-rule="nonzero"/><path fill="#ffffff" d="M 40.859375 40.285156 C 41.246094 40.285156 41.246094 40.886719 40.859375 40.886719 C 40.679688 40.886719 40.496094 40.886719 40.3125 40.886719 C 39.925781 40.886719 39.925781 40.285156 40.3125 40.285156 C 40.496094 40.285156 40.679688 40.285156 40.859375 40.285156 " fill-opacity="1" fill-rule="nonzero"/><path fill="#ffffff" d="M 40.164062 44.882812 C 40.183594 44.496094 40.78125 44.496094 40.761719 44.882812 C 40.753906 44.972656 40.734375 45.070312 40.714844 45.164062 C 40.710938 45.199219 40.707031 45.359375 40.675781 45.316406 C 40.773438 45.445312 40.800781 45.617188 40.675781 45.738281 C 40.566406 45.847656 40.351562 45.867188 40.25 45.738281 C 40.019531 45.453125 40.144531 45.167969 40.164062 44.882812 " fill-opacity="1" fill-rule="nonzero"/><path fill="#ffffff" d="M 40.113281 49.277344 C 40.496094 49.238281 40.496094 49.839844 40.113281 49.875 C 40.011719 49.882812 39.917969 49.921875 39.8125 49.921875 C 39.730469 49.921875 39.671875 49.929688 39.59375 49.964844 C 39.441406 50.023438 39.265625 49.894531 39.226562 49.75 C 39.175781 49.582031 39.28125 49.449219 39.433594 49.382812 C 39.5625 49.332031 39.679688 49.335938 39.8125 49.324219 C 39.914062 49.316406 40.011719 49.285156 40.113281 49.277344 " fill-opacity="1" fill-rule="nonzero"/><path fill="#ffffff" d="M 39.390625 45.382812 C 39.386719 45.382812 39.382812 45.386719 39.378906 45.390625 C 39.382812 45.382812 39.390625 45.371094 39.394531 45.351562 C 39.40625 45.296875 39.417969 45.238281 39.425781 45.183594 C 39.4375 45.105469 39.445312 45.019531 39.472656 44.949219 C 39.535156 44.796875 39.671875 44.695312 39.839844 44.742188 C 39.988281 44.78125 40.113281 44.957031 40.050781 45.109375 C 39.945312 45.371094 40.015625 45.734375 39.710938 45.890625 C 39.390625 46.050781 39.105469 45.601562 39.367188 45.40625 C 39.367188 45.402344 39.367188 45.402344 39.371094 45.402344 C 39.382812 45.394531 39.386719 45.390625 39.390625 45.382812 " fill-opacity="1" fill-rule="nonzero"/><path fill="#ffffff" d="M 39.113281 40.425781 C 39.433594 40.210938 39.734375 40.730469 39.414062 40.941406 C 39.320312 41.003906 39.265625 41.125 39.164062 41.195312 C 38.84375 41.410156 38.542969 40.890625 38.863281 40.671875 C 38.957031 40.609375 39.011719 40.496094 39.113281 40.425781 " fill-opacity="1" fill-rule="nonzero"/><path fill="#ffffff" d="M 39.214844 32.542969 C 39.613281 32.542969 39.613281 32.941406 39.214844 32.941406 C 38.8125 32.941406 38.015625 32.941406 38.015625 32.941406 C 37.617188 32.941406 37.617188 32.542969 38.015625 32.542969 C 38.414062 32.542969 38.8125 32.542969 39.214844 32.542969 " fill-opacity="1" fill-rule="nonzero"/><path fill="#ffffff" d="M 39.011719 45.179688 C 39.015625 45.445312 39.050781 45.746094 38.824219 45.941406 C 38.535156 46.1875 38.105469 45.769531 38.402344 45.515625 C 38.457031 45.46875 38.414062 45.257812 38.414062 45.179688 C 38.40625 44.792969 39.007812 44.792969 39.011719 45.179688 " fill-opacity="1" fill-rule="nonzero"/><path fill="#ffffff" d="M 38.714844 49.425781 C 39.101562 49.414062 39.097656 50.011719 38.714844 50.023438 C 38.460938 50.03125 38.21875 50.117188 37.96875 50.125 C 37.578125 50.136719 37.578125 49.535156 37.96875 49.523438 C 38.21875 49.515625 38.460938 49.433594 38.714844 49.425781 " fill-opacity="1" fill-rule="nonzero"/><path fill="#ffffff" d="M 38.714844 48.277344 C 39.101562 48.277344 39.101562 48.875 38.714844 48.875 C 38.515625 48.875 38.316406 48.875 38.113281 48.875 C 37.726562 48.875 37.726562 48.277344 38.113281 48.277344 C 38.316406 48.277344 38.515625 48.277344 38.714844 48.277344 " fill-opacity="1" fill-rule="nonzero"/><path fill="#ffffff" d="M 38.414062 38.183594 C 38.414062 38.671875 38.511719 39.308594 37.890625 39.34375 C 37.292969 39.375 36.609375 37.875 36.328125 37.539062 C 35.832031 36.9375 35.613281 36.171875 35.308594 35.449219 C 35.390625 37.1875 35.367188 39.335938 35.367188 39.335938 C 35.367188 39.734375 34.769531 39.734375 34.769531 39.335938 C 34.769531 37.339844 34.816406 35.882812 34.625 34.1875 C 34.597656 33.9375 34.988281 33.734375 35.148438 33.929688 C 35.566406 34.445312 35.921875 35.085938 36.144531 35.710938 C 36.464844 36.617188 37.039062 37.332031 37.574219 38.105469 C 37.765625 38.382812 38.015625 38.820312 38.015625 38.183594 C 38.015625 37.730469 38.015625 37.269531 38.015625 36.8125 C 38.015625 35.90625 38.015625 34.941406 38.015625 34.140625 C 38.015625 33.742188 38.414062 33.742188 38.414062 34.140625 C 38.414062 35.339844 38.414062 36.820312 38.414062 38.183594 " fill-opacity="1" fill-rule="nonzero"/><path fill="#ffffff" d="M 38.378906 40.320312 C 38.480469 40.425781 38.507812 40.644531 38.378906 40.746094 C 38.277344 40.824219 38.265625 40.914062 38.261719 41.03125 C 38.253906 41.421875 37.65625 41.421875 37.664062 41.03125 C 37.671875 40.769531 37.734375 40.496094 37.949219 40.320312 C 38.082031 40.222656 38.25 40.195312 38.378906 40.320312 " fill-opacity="1" fill-rule="nonzero"/><path fill="#ffffff" d="M 37.863281 45.679688 C 37.882812 46.0625 37.285156 46.0625 37.261719 45.679688 C 37.246094 45.300781 37.109375 44.886719 37.308594 44.53125 C 37.492188 44.191406 38.011719 44.492188 37.824219 44.832031 C 37.769531 44.929688 37.808594 45.078125 37.8125 45.1875 C 37.820312 45.351562 37.855469 45.515625 37.863281 45.679688 " fill-opacity="1" fill-rule="nonzero"/><path fill="#ffffff" d="M 37.566406 40.128906 C 37.695312 40.203125 37.769531 40.40625 37.675781 40.535156 C 37.488281 40.78125 37.296875 41.023438 37.078125 41.246094 C 36.808594 41.523438 36.382812 41.097656 36.652344 40.824219 C 36.835938 40.636719 37 40.4375 37.15625 40.234375 C 37.253906 40.101562 37.410156 40.035156 37.566406 40.128906 " fill-opacity="1" fill-rule="nonzero"/><path fill="#ffffff" d="M 37.644531 48.492188 C 37.730469 49.039062 37.273438 48.925781 36.914062 48.925781 C 36.796875 48.925781 36.71875 48.816406 36.671875 48.738281 C 36.648438 48.773438 36.617188 48.757812 36.566406 48.785156 C 36.328125 48.910156 36.078125 48.878906 35.816406 48.875 C 35.429688 48.863281 35.429688 48.265625 35.816406 48.277344 C 35.949219 48.277344 36.144531 48.304688 36.265625 48.242188 C 36.433594 48.148438 36.589844 48.203125 36.664062 48.328125 C 36.707031 48.242188 36.785156 48.125 36.914062 48.125 C 37.246094 48.125 37.578125 48.082031 37.644531 48.492188 " fill-opacity="1" fill-rule="nonzero"/><path fill="#ffffff" d="M 36.96875 49.675781 C 37.351562 49.667969 37.351562 50.265625 36.96875 50.273438 C 36.714844 50.277344 36.46875 50.320312 36.214844 50.324219 C 35.828125 50.332031 35.828125 49.730469 36.214844 49.722656 C 36.46875 49.71875 36.714844 49.679688 36.96875 49.675781 " fill-opacity="1" fill-rule="nonzero"/><path fill="#ffffff" d="M 36.402344 32.632812 C 36.464844 32.570312 36.417969 32.402344 36.378906 32.335938 C 36.328125 32.25 36.222656 32.246094 36.136719 32.246094 C 36.003906 32.242188 35.789062 32.210938 35.644531 32.261719 C 35.648438 32.28125 35.652344 32.296875 35.65625 32.316406 C 35.683594 32.390625 35.703125 32.460938 35.707031 32.542969 C 35.714844 32.617188 35.746094 32.734375 35.867188 32.742188 C 35.957031 32.75 36.019531 32.789062 36.066406 32.84375 C 36.203125 32.78125 36.351562 32.679688 36.402344 32.632812 Z M 36.972656 32.199219 C 37.046875 32.449219 37.078125 32.816406 36.867188 33.015625 C 36.511719 33.355469 35.902344 33.664062 35.453125 33.308594 C 35.386719 33.246094 35.351562 33.179688 35.351562 33.113281 C 35.25 33.023438 35.167969 32.910156 35.128906 32.769531 C 35.101562 32.683594 35.09375 32.5625 35.078125 32.46875 C 35.070312 32.417969 35.046875 32.371094 35.039062 32.320312 C 35.019531 32.199219 35.011719 32.070312 35.074219 31.96875 C 35.308594 31.589844 35.972656 31.582031 36.363281 31.664062 C 36.65625 31.726562 36.878906 31.914062 36.972656 32.199219 " fill-opacity="1" fill-rule="nonzero"/><path fill="#ffffff" d="M 36.152344 40.269531 C 36.429688 40 36.851562 40.421875 36.582031 40.699219 C 36.484375 40.789062 36.394531 40.882812 36.355469 41.011719 C 36.246094 41.378906 35.664062 41.226562 35.777344 40.855469 C 35.847656 40.621094 35.984375 40.441406 36.152344 40.269531 " fill-opacity="1" fill-rule="nonzero"/><path fill="#ffffff" d="M 35.464844 45.128906 C 35.480469 44.746094 36.082031 44.742188 36.0625 45.128906 C 36.058594 45.296875 36.023438 45.460938 36.015625 45.628906 C 36 46.011719 35.402344 46.015625 35.417969 45.628906 C 35.425781 45.460938 35.460938 45.296875 35.464844 45.128906 " fill-opacity="1" fill-rule="nonzero"/><path fill="#ffffff" d="M 35.179688 40.253906 C 35.285156 39.882812 35.863281 40.042969 35.753906 40.414062 C 35.695312 40.621094 35.597656 40.804688 35.476562 40.984375 C 35.265625 41.304688 34.746094 41.003906 34.957031 40.679688 C 35.050781 40.546875 35.136719 40.414062 35.179688 40.253906 " fill-opacity="1" fill-rule="nonzero"/><path fill="#ffffff" d="M 35.570312 49.722656 C 35.953125 49.730469 35.953125 50.332031 35.570312 50.324219 C 35.316406 50.320312 35.070312 50.277344 34.820312 50.273438 C 34.667969 50.269531 34.578125 50.175781 34.542969 50.0625 C 34.515625 50.179688 34.421875 50.273438 34.265625 50.273438 C 34.035156 50.265625 33.804688 50.226562 33.570312 50.222656 C 33.183594 50.214844 33.183594 49.617188 33.570312 49.625 C 33.804688 49.628906 34.035156 49.667969 34.265625 49.675781 C 34.417969 49.675781 34.511719 49.773438 34.542969 49.882812 C 34.574219 49.769531 34.664062 49.671875 34.820312 49.675781 C 35.070312 49.679688 35.316406 49.71875 35.570312 49.722656 " fill-opacity="1" fill-rule="nonzero"/><path fill="#ffffff" d="M 34.890625 48.238281 C 35.265625 48.164062 35.425781 48.746094 35.046875 48.8125 C 34.789062 48.859375 34.53125 48.871094 34.265625 48.875 C 33.882812 48.875 33.882812 48.277344 34.265625 48.277344 C 34.480469 48.273438 34.679688 48.273438 34.890625 48.238281 " fill-opacity="1" fill-rule="nonzero"/><path fill="#ffffff" d="M 35.019531 44.882812 C 35.019531 45.097656 35.019531 45.3125 35.019531 45.53125 C 35.019531 45.917969 34.417969 45.917969 34.417969 45.53125 C 34.417969 45.3125 34.417969 45.097656 34.417969 44.882812 C 34.417969 44.496094 35.019531 44.496094 35.019531 44.882812 " fill-opacity="1" fill-rule="nonzero"/><path fill="#ffffff" d="M 34.367188 40.074219 C 34.707031 39.886719 35.003906 40.40625 34.671875 40.59375 C 34.472656 40.707031 34.433594 40.945312 34.328125 41.132812 C 34.140625 41.472656 33.617188 41.171875 33.8125 40.835938 C 33.980469 40.535156 34.046875 40.253906 34.367188 40.074219 " fill-opacity="1" fill-rule="nonzero"/><path fill="#ffffff" d="M 34.417969 32.191406 C 34.804688 32.191406 34.804688 32.941406 34.417969 32.941406 C 34.25 32.941406 34.085938 32.941406 33.917969 32.941406 C 33.824219 32.941406 33.851562 32.90625 33.761719 32.933594 C 33.5625 32.988281 33.21875 32.894531 33.21875 32.894531 C 32.820312 32.894531 32.820312 32.296875 33.21875 32.296875 C 33.21875 32.296875 33.417969 32.308594 33.542969 32.296875 C 33.625 32.285156 33.609375 32.222656 33.6875 32.210938 C 33.925781 32.175781 34.175781 32.191406 34.417969 32.191406 " fill-opacity="1" fill-rule="nonzero"/><path fill="#ffffff" d="M 34.175781 45.464844 C 34.414062 45.667969 34.136719 46.101562 33.820312 45.9375 C 33.480469 45.765625 33.566406 45.238281 33.570312 44.929688 C 33.574219 44.542969 34.175781 44.542969 34.171875 44.929688 C 34.167969 45.035156 34.160156 45.144531 34.164062 45.253906 C 34.164062 45.308594 34.15625 45.371094 34.167969 45.429688 C 34.171875 45.449219 34.175781 45.457031 34.175781 45.464844 " fill-opacity="1" fill-rule="nonzero"/><path fill="#ffffff" d="M 33.648438 48.238281 C 34.019531 48.34375 33.863281 48.921875 33.492188 48.8125 C 33.367188 48.78125 33.25 48.777344 33.121094 48.773438 C 32.734375 48.773438 32.734375 48.171875 33.121094 48.171875 C 33.300781 48.175781 33.476562 48.183594 33.648438 48.238281 " fill-opacity="1" fill-rule="nonzero"/><path fill="#ffffff" d="M 33.113281 40.332031 C 33.28125 39.984375 33.796875 40.289062 33.628906 40.632812 C 33.535156 40.828125 33.457031 41.015625 33.269531 41.140625 C 32.949219 41.355469 32.648438 40.839844 32.96875 40.625 C 33.015625 40.59375 33.078125 40.402344 33.113281 40.332031 " fill-opacity="1" fill-rule="nonzero"/><path fill="#ffffff" d="M 32.582031 44.800781 C 32.664062 44.421875 33.238281 44.582031 33.160156 44.957031 C 33.113281 45.183594 33.027344 45.402344 33.019531 45.628906 C 33.007812 46.011719 32.410156 46.015625 32.421875 45.628906 C 32.429688 45.339844 32.519531 45.078125 32.582031 44.800781 " fill-opacity="1" fill-rule="nonzero"/><path fill="#ffffff" d="M 32.972656 38.636719 C 33.355469 38.613281 33.355469 39.214844 32.972656 39.234375 C 32.785156 39.246094 32.609375 39.339844 32.425781 39.371094 C 32.226562 39.40625 32.019531 39.429688 31.820312 39.4375 C 31.433594 39.457031 31.4375 38.855469 31.820312 38.835938 C 31.886719 38.832031 31.957031 38.828125 32.027344 38.824219 C 31.761719 37.402344 31.699219 35.839844 31.722656 34.386719 C 31.652344 34.386719 31.585938 34.390625 31.523438 34.390625 C 31.132812 34.402344 31.160156 33.800781 31.546875 33.789062 C 31.964844 33.78125 32.421875 33.742188 32.820312 33.742188 C 33.21875 33.742188 33.21875 34.339844 32.820312 34.339844 C 32.660156 34.339844 32.488281 34.351562 32.3125 34.355469 C 32.289062 35.082031 32.234375 35.945312 32.460938 36.613281 C 32.546875 36.863281 32.472656 37.246094 32.496094 37.511719 C 32.53125 37.902344 32.535156 38.320312 32.609375 38.703125 C 32.730469 38.671875 32.84375 38.644531 32.972656 38.636719 " fill-opacity="1" fill-rule="nonzero"/><path fill="#ffffff" d="M 32.546875 49.582031 C 32.914062 49.703125 32.761719 50.277344 32.394531 50.164062 C 32.246094 50.117188 32.097656 50.078125 31.949219 50.03125 C 31.792969 49.980469 31.605469 50.007812 31.441406 49.964844 C 31.070312 49.859375 31.230469 49.28125 31.601562 49.382812 C 31.769531 49.433594 31.941406 49.40625 32.109375 49.453125 C 32.257812 49.5 32.40625 49.535156 32.546875 49.582031 " fill-opacity="1" fill-rule="nonzero"/><path fill="#ffffff" d="M 32.101562 44.675781 C 32.273438 44.726562 32.335938 44.875 32.308594 45.03125 C 32.273438 45.273438 32.269531 45.726562 32.269531 45.726562 C 32.269531 46.128906 31.671875 46.128906 31.671875 45.726562 C 31.671875 45.328125 31.6875 45.164062 31.734375 44.871094 C 31.757812 44.707031 31.957031 44.636719 32.101562 44.675781 " fill-opacity="1" fill-rule="nonzero"/><path fill="#ffffff" d="M 32.070312 40.332031 C 32.457031 40.332031 32.457031 40.933594 32.070312 40.933594 C 31.851562 40.933594 31.636719 40.933594 31.421875 40.933594 C 31.035156 40.933594 31.035156 40.332031 31.421875 40.332031 C 31.636719 40.332031 31.851562 40.332031 32.070312 40.332031 " fill-opacity="1" fill-rule="nonzero"/><path fill="#ffffff" d="M 31.921875 48.078125 C 32.308594 48.082031 32.308594 48.683594 31.921875 48.675781 C 31.65625 48.667969 31.402344 48.617188 31.140625 48.5625 C 30.761719 48.488281 30.921875 47.910156 31.300781 47.988281 C 31.507812 48.03125 31.710938 48.070312 31.921875 48.078125 " fill-opacity="1" fill-rule="nonzero"/><path fill="#ffffff" d="M 31.289062 45.109375 C 31.304688 45.082031 31.277344 45.175781 31.273438 45.1875 C 31.265625 45.226562 31.257812 45.265625 31.253906 45.304688 C 31.253906 45.351562 31.25 45.40625 31.253906 45.457031 C 31.46875 45.65625 31.308594 46.089844 30.996094 45.96875 C 30.550781 45.796875 30.605469 45.191406 30.761719 44.832031 C 30.832031 44.675781 31.046875 44.644531 31.175781 44.722656 C 31.320312 44.804688 31.347656 44.964844 31.289062 45.109375 " fill-opacity="1" fill-rule="nonzero"/><g clip-path="url(#3a31f92883)"><path fill="#ffffff" d="M 49.570312 19.726562 C 49.800781 17.988281 49.339844 14.53125 49.25 13.875 C 49.152344 13.871094 49.050781 13.871094 48.949219 13.867188 C 48.554688 14.320312 48.761719 17.152344 48.78125 17.566406 C 48.804688 18.207031 48.835938 18.847656 48.835938 19.492188 C 48.835938 19.929688 48.871094 19.765625 49.285156 19.746094 C 49.382812 19.742188 49.472656 19.742188 49.570312 19.738281 C 49.570312 19.734375 49.570312 19.730469 49.570312 19.726562 Z M 50.976562 19.722656 C 51.152344 17.925781 50.902344 14.636719 50.84375 13.914062 C 50.507812 13.902344 50.171875 13.894531 49.835938 13.886719 C 49.863281 15.839844 50.417969 17.820312 50.167969 19.722656 C 50.433594 19.71875 50.707031 19.71875 50.976562 19.722656 Z M 51.574219 19.726562 C 51.84375 19.734375 52.113281 19.738281 52.386719 19.746094 C 52.375 19.714844 52.363281 19.675781 52.367188 19.628906 C 52.414062 17.742188 52.167969 15.914062 52.164062 14.039062 C 52.164062 13.992188 52.175781 13.957031 52.1875 13.925781 C 51.933594 13.925781 51.6875 13.921875 51.433594 13.917969 C 51.449219 15.835938 51.769531 17.808594 51.574219 19.726562 Z M 53.582031 19.570312 C 53.804688 19.425781 53.566406 17.679688 53.566406 17.363281 C 53.566406 16.21875 53.484375 15.085938 53.496094 13.933594 C 53.246094 13.933594 52.996094 13.933594 52.742188 13.929688 C 52.753906 13.960938 52.765625 13.996094 52.765625 14.039062 C 52.769531 15.914062 53.011719 17.742188 52.964844 19.628906 C 52.960938 19.683594 52.949219 19.726562 52.929688 19.761719 C 53.101562 19.769531 53.273438 19.773438 53.441406 19.777344 C 53.453125 19.703125 53.492188 19.621094 53.582031 19.570312 Z M 53.824219 2.09375 C 53.820312 2.0625 53.828125 2.046875 53.832031 2.042969 C 53.828125 2.046875 53.8125 2.046875 53.789062 2.046875 C 53.714844 2.046875 53.644531 2.046875 53.570312 2.035156 C 53.449219 2.011719 53.292969 1.964844 53.167969 2.003906 C 53.132812 2.015625 53.117188 2.058594 53.105469 2.105469 C 53.34375 2.082031 53.589844 2.089844 53.824219 2.109375 C 53.824219 2.101562 53.824219 2.097656 53.824219 2.09375 Z M 54.109375 19.796875 C 54.414062 19.804688 54.71875 19.808594 55.023438 19.8125 C 55.011719 17.933594 54.894531 16.046875 54.894531 14.164062 C 54.894531 14.0625 54.9375 13.984375 54.996094 13.9375 C 54.695312 13.9375 54.394531 13.9375 54.097656 13.933594 C 54.078125 15.28125 54.144531 16.621094 54.183594 17.96875 C 54.195312 18.386719 54.339844 19.285156 54.109375 19.796875 Z M 55.273438 5.761719 C 55.34375 5.601562 54.945312 4.882812 54.851562 4.746094 C 54.667969 4.484375 54.542969 4.332031 54.515625 4 C 54.492188 3.707031 54.425781 3.402344 54.425781 3.113281 C 54.425781 2.6875 54.160156 2.75 53.820312 2.75 C 53.398438 2.75 52.75 2.617188 52.6875 3.179688 C 52.652344 3.515625 52.628906 3.84375 52.570312 4.175781 C 52.507812 4.535156 52.542969 4.929688 52.417969 5.273438 C 52.363281 5.433594 52.304688 5.601562 52.246094 5.765625 C 52.945312 5.8125 53.710938 6.007812 53.996094 6.007812 C 54.273438 6.007812 54.792969 5.90625 55.242188 5.878906 C 55.242188 5.84375 55.25 5.800781 55.273438 5.761719 Z M 55.949219 8.140625 C 55.917969 8.035156 55.886719 7.929688 55.863281 7.832031 C 55.761719 7.488281 55.699219 7.144531 55.640625 6.789062 C 55.585938 6.480469 55.796875 6.488281 55.292969 6.570312 C 54.871094 6.632812 54.417969 6.632812 53.996094 6.609375 C 53.371094 6.578125 52.75 6.445312 52.128906 6.40625 C 51.488281 6.371094 51.445312 6.777344 51.289062 7.324219 C 51.15625 7.785156 51.101562 8.269531 51.085938 8.753906 C 52.683594 8.226562 54.058594 8.140625 55.949219 8.140625 Z M 56.125 8.972656 C 56.144531 8.972656 56.160156 8.972656 56.179688 8.972656 C 56.148438 8.972656 56.125 8.785156 56.097656 8.671875 C 56.066406 8.679688 56.035156 8.710938 55.996094 8.710938 C 54.027344 8.710938 52.6875 8.808594 51.082031 9.363281 C 51.085938 9.546875 51.09375 9.726562 51.101562 9.914062 C 52.707031 9.402344 54.253906 9.09375 55.949219 9.089844 C 55.992188 9.050781 56.050781 8.972656 56.125 8.972656 Z M 56.339844 10.132812 C 56.328125 9.996094 56.308594 9.769531 56.289062 9.769531 C 56.25 9.769531 56.214844 9.769531 56.175781 9.769531 C 56.128906 9.769531 56.070312 9.789062 55.996094 9.789062 C 54.292969 9.789062 52.742188 10.03125 51.136719 10.554688 C 51.152344 10.828125 51.160156 11.121094 51.164062 11.382812 C 52.847656 10.648438 54.503906 10.257812 56.339844 10.132812 Z M 56.273438 11.335938 C 56.328125 11.132812 56.359375 10.914062 56.363281 10.679688 C 55.300781 10.757812 54.261719 10.933594 53.25 11.230469 C 53.3125 11.226562 53.382812 11.226562 53.445312 11.222656 C 54.277344 11.183594 55.410156 11.042969 56.273438 11.335938 Z M 50.367188 13.300781 C 52.40625 13.339844 54.445312 13.335938 56.484375 13.335938 C 56.464844 12.90625 56.5 12.082031 56.28125 11.996094 C 55.550781 11.703125 54.578125 11.765625 53.796875 11.804688 C 53.011719 11.84375 51.933594 11.734375 51.207031 12.054688 C 50.519531 12.359375 50.40625 12.285156 50.367188 13.300781 Z M 56.441406 19.804688 C 56.800781 17.917969 56.332031 15.875 56.300781 13.9375 C 56 13.9375 55.695312 13.9375 55.394531 13.9375 C 55.453125 13.984375 55.496094 14.0625 55.496094 14.164062 C 55.496094 15.8125 55.585938 18.8125 55.617188 19.816406 C 55.894531 19.816406 56.164062 19.8125 56.441406 19.804688 Z M 57.050781 19.675781 C 57.226562 19.667969 57.410156 19.71875 57.585938 19.703125 C 57.570312 19.671875 57.558594 19.585938 57.558594 19.542969 C 57.476562 17.644531 57.378906 15.761719 57.160156 13.765625 C 57.074219 13.765625 56.988281 13.765625 56.894531 13.765625 C 56.925781 15.761719 57.351562 17.769531 57.050781 19.675781 Z M 58.160156 15.984375 C 58.179688 15.417969 58.210938 14.804688 58.171875 14.230469 C 58.152344 13.96875 57.992188 13.902344 57.589844 13.898438 C 57.992188 15.617188 57.953125 17.359375 58.027344 19.097656 C 58.179688 18.105469 58.152344 16.253906 58.160156 15.984375 Z M 59.789062 53.628906 C 59.804688 52.800781 59.820312 51.972656 59.824219 51.144531 C 57.941406 51.710938 55.867188 51.78125 53.929688 51.890625 C 52.625 51.960938 51.042969 52.074219 49.753906 51.835938 C 49.042969 51.707031 48.316406 51.695312 47.601562 51.605469 C 47.289062 51.566406 46.789062 51.34375 46.453125 51.339844 C 46.445312 52.6875 46.457031 54.03125 46.511719 55.375 C 46.59375 57.300781 45.691406 60.105469 48.277344 60.617188 C 49.640625 60.886719 51.113281 60.882812 52.496094 60.949219 C 54.113281 61.019531 58.078125 61.648438 59.234375 60.167969 C 59.972656 59.226562 59.652344 57.636719 59.699219 56.507812 C 59.742188 55.550781 59.773438 54.589844 59.789062 53.628906 Z M 59.835938 50.523438 C 59.867188 47.449219 59.875 44.378906 59.90625 41.308594 C 57.730469 42.800781 54.886719 43.496094 52.300781 43.332031 C 50.503906 43.214844 48.105469 42.792969 46.699219 41.472656 C 46.691406 41.773438 46.683594 42.070312 46.675781 42.371094 C 46.617188 45.164062 46.492188 47.957031 46.457031 50.75 C 46.851562 50.761719 47.105469 50.960938 47.601562 51.007812 C 48.183594 51.054688 48.757812 51.109375 49.332031 51.15625 C 50.671875 51.257812 52.050781 51.394531 53.398438 51.320312 C 55.503906 51.203125 57.808594 51.164062 59.835938 50.523438 Z M 59.914062 40.5625 C 59.941406 38.089844 59.960938 35.621094 59.984375 33.148438 C 58.363281 32.082031 56.070312 31.613281 54.167969 31.332031 C 51.574219 30.957031 49.21875 31.554688 47.019531 32.882812 C 46.960938 33.878906 46.871094 34.871094 46.84375 35.839844 C 46.796875 37.4375 46.761719 39.035156 46.722656 40.632812 C 46.738281 40.648438 46.753906 40.652344 46.769531 40.667969 C 48.085938 42.289062 50.785156 42.664062 52.71875 42.738281 C 55.175781 42.835938 57.914062 42.046875 59.914062 40.5625 Z M 59.992188 32.457031 C 60.007812 31.171875 60.023438 29.878906 60.050781 28.585938 C 58.1875 29.179688 56.03125 28.855469 54.113281 28.855469 C 52.644531 28.855469 51.132812 28.941406 49.660156 28.832031 C 49.191406 28.800781 48.476562 28.726562 47.878906 28.667969 C 47.285156 28.605469 46.804688 28.546875 46.804688 28.546875 C 46.855469 28.949219 46.960938 29.535156 47.011719 30.085938 C 47.082031 30.773438 47.082031 31.460938 47.058594 32.167969 C 49.316406 30.882812 51.277344 30.644531 53.949219 30.703125 C 54.957031 30.722656 56.082031 31.15625 57.074219 31.355469 C 58.105469 31.5625 59.09375 31.925781 59.992188 32.457031 Z M 60.0625 27.953125 C 60.117188 26.101562 60.371094 23.949219 58.960938 22.5 C 58.269531 21.785156 57.535156 21.433594 57.5 20.402344 C 57.054688 20.410156 56.570312 20.324219 56.15625 20.324219 C 55.65625 20.324219 55.148438 20.304688 54.640625 20.304688 C 53.582031 20.300781 52.519531 20.300781 51.460938 20.316406 C 51.324219 20.316406 49.570312 20.273438 49.550781 20.425781 C 49.503906 20.789062 49.375 21.003906 49.097656 21.328125 C 48.140625 22.441406 47.066406 22.859375 47.121094 24.585938 C 47.132812 24.949219 46.957031 25.285156 46.902344 25.628906 C 46.796875 26.28125 46.8125 26.972656 46.777344 27.628906 C 46.769531 27.730469 46.769531 27.828125 46.769531 27.925781 C 46.78125 27.921875 46.792969 27.917969 46.804688 27.917969 C 47.601562 27.917969 48.492188 28.027344 49.3125 28.160156 C 50.683594 28.378906 52.175781 28.25 53.558594 28.25 C 55.574219 28.25 58.132812 28.683594 60.0625 27.953125 Z M 58.648438 21.414062 C 61.539062 23.726562 60.660156 27.804688 60.625 31.058594 C 60.570312 35.890625 60.496094 40.722656 60.453125 45.554688 C 60.433594 48.054688 60.449219 50.554688 60.402344 53.054688 C 60.378906 54.207031 60.324219 55.355469 60.300781 56.507812 C 60.28125 57.425781 60.398438 58.417969 60.203125 59.320312 C 59.472656 62.640625 53.882812 61.648438 51.453125 61.472656 C 49.648438 61.347656 46.039062 61.632812 45.835938 59.007812 C 45.742188 57.796875 45.980469 56.597656 45.914062 55.375 C 45.84375 54.207031 45.828125 53.058594 45.859375 51.886719 C 45.917969 49.507812 45.972656 47.128906 46.027344 44.75 C 46.085938 42.175781 46.136719 39.601562 46.210938 37.027344 C 46.246094 35.839844 46.277344 34.652344 46.320312 33.464844 C 46.351562 32.507812 46.546875 31.453125 46.457031 30.5 C 46.339844 29.289062 46.152344 28.339844 46.207031 27.097656 C 46.25 26.101562 46.535156 25.066406 46.503906 24.089844 C 46.480469 23.421875 46.921875 22.683594 47.257812 22.148438 C 47.601562 21.617188 48.679688 21.097656 48.917969 20.445312 C 48.789062 20.453125 48.660156 20.453125 48.535156 20.460938 C 48.394531 20.464844 48.289062 20.359375 48.246094 20.242188 C 48.101562 19.828125 48.234375 19.484375 48.234375 19.054688 C 48.234375 18.386719 48.171875 17.726562 48.171875 17.0625 C 48.167969 15.921875 48.171875 14.78125 48.171875 13.632812 C 48.171875 13.527344 48.226562 13.429688 48.316406 13.378906 C 48.660156 13.179688 48.65625 13.191406 49.070312 13.203125 C 49.152344 13.207031 49.207031 13.234375 49.253906 13.273438 C 49.425781 13.28125 49.597656 13.28125 49.769531 13.285156 C 49.796875 12.546875 49.835938 11.875 50.570312 11.578125 C 50.570312 10.5625 50.402344 9.503906 50.472656 8.507812 C 50.523438 7.738281 50.769531 7.050781 50.914062 6.296875 C 50.96875 5.972656 51.242188 5.832031 51.609375 5.777344 C 51.738281 5.265625 51.859375 4.796875 51.953125 4.265625 C 52.03125 3.804688 51.960938 3.164062 52.113281 2.71875 C 52.191406 2.507812 52.328125 2.363281 52.5 2.269531 C 52.507812 2.011719 52.550781 1.78125 52.71875 1.570312 C 52.894531 1.351562 53.292969 1.40625 53.527344 1.414062 C 53.734375 1.425781 54.042969 1.425781 54.207031 1.570312 C 54.296875 1.644531 54.375 1.753906 54.394531 1.875 C 54.414062 1.960938 54.410156 2.070312 54.433594 2.164062 C 54.433594 2.164062 54.4375 2.164062 54.441406 2.164062 C 55.210938 2.222656 55.054688 3.25 55.097656 3.785156 C 55.15625 4.5 56.042969 5.195312 55.828125 5.933594 C 55.875 5.949219 55.914062 5.960938 55.949219 5.984375 C 56.398438 6.320312 56.199219 6.847656 56.351562 7.363281 C 56.683594 8.523438 57.226562 10.441406 56.816406 11.640625 C 57.164062 12.042969 57.015625 12.925781 57.082031 13.335938 C 57.296875 13.335938 57.507812 13.332031 57.726562 13.332031 C 58.171875 13.332031 58.664062 13.210938 58.816406 13.753906 C 59.070312 14.691406 58.777344 15.953125 58.761719 16.917969 C 58.757812 17.535156 59.023438 19.386719 58.648438 19.914062 C 58.503906 20.117188 58.3125 20.238281 58.09375 20.308594 C 58.105469 20.796875 58.289062 21.167969 58.648438 21.414062 " fill-opacity="1" fill-rule="nonzero"/></g><path fill="#ffffff" d="M 59.25 45.230469 C 59.433594 45.570312 58.917969 45.867188 58.730469 45.53125 C 58.636719 45.355469 58.664062 45.183594 58.601562 45.007812 C 58.472656 44.644531 59.050781 44.492188 59.179688 44.851562 C 59.222656 44.96875 59.191406 45.117188 59.25 45.230469 " fill-opacity="1" fill-rule="nonzero"/><path fill="#ffffff" d="M 58.792969 33.882812 C 59.132812 33.703125 59.433594 34.222656 59.089844 34.402344 C 58.785156 34.5625 58.59375 34.910156 58.355469 35.152344 C 58.160156 35.347656 58.003906 35.617188 57.851562 35.839844 C 57.605469 36.203125 57.292969 36.515625 56.921875 36.742188 C 56.988281 36.863281 57.09375 36.984375 57.148438 37.097656 C 57.273438 37.34375 57.351562 37.585938 57.511719 37.808594 C 57.675781 38.042969 57.769531 38.457031 58.019531 38.613281 C 58.214844 38.738281 58.394531 38.851562 58.554688 39.023438 C 58.816406 39.308594 58.390625 39.730469 58.128906 39.449219 C 57.917969 39.21875 57.625 39.113281 57.425781 38.871094 C 57.246094 38.652344 57.148438 38.351562 56.996094 38.113281 C 56.933594 38.019531 56.886719 37.917969 56.835938 37.8125 C 56.824219 38.304688 56.789062 38.796875 56.683594 39.261719 C 56.597656 39.640625 56.019531 39.484375 56.105469 39.109375 C 56.277344 38.351562 56.191406 37.574219 56.257812 36.8125 C 56.261719 36.804688 56.261719 36.800781 56.261719 36.792969 C 56.164062 36.675781 56.15625 36.507812 56.304688 36.410156 C 56.378906 35.667969 56.472656 34.933594 56.546875 34.1875 C 56.582031 33.808594 57.179688 33.804688 57.144531 34.1875 C 57.085938 34.789062 56.996094 35.378906 56.925781 35.976562 C 57.222656 35.6875 57.449219 35.339844 57.707031 34.988281 C 57.878906 34.757812 58.097656 34.574219 58.269531 34.34375 C 58.421875 34.152344 58.574219 34 58.792969 33.882812 " fill-opacity="1" fill-rule="nonzero"/><path fill="#ffffff" d="M 58.792969 47.972656 C 59.191406 47.972656 59.191406 48.570312 58.792969 48.570312 C 58.390625 48.570312 58.390625 47.972656 58.792969 47.972656 " fill-opacity="1" fill-rule="nonzero"/><path fill="#ffffff" d="M 58.34375 45.027344 C 58.34375 45.144531 58.34375 45.261719 58.34375 45.375 C 58.34375 45.765625 57.746094 45.765625 57.746094 45.375 C 57.746094 45.261719 57.746094 45.144531 57.746094 45.027344 C 57.746094 44.640625 58.34375 44.640625 58.34375 45.027344 " fill-opacity="1" fill-rule="nonzero"/><path fill="#ffffff" d="M 57.992188 49.171875 C 58.375 49.136719 58.371094 49.734375 57.992188 49.773438 C 57.90625 49.78125 57.828125 49.816406 57.746094 49.824219 C 57.355469 49.859375 57.359375 49.261719 57.746094 49.222656 C 57.824219 49.214844 57.90625 49.183594 57.992188 49.171875 " fill-opacity="1" fill-rule="nonzero"/><path fill="#ffffff" d="M 57.890625 48.027344 C 58.277344 48.011719 58.273438 48.609375 57.890625 48.625 C 57.726562 48.632812 57.558594 48.667969 57.394531 48.675781 C 57.253906 48.683594 57.164062 48.605469 57.128906 48.503906 C 57.113281 48.644531 57.023438 48.773438 56.839844 48.773438 C 56.640625 48.773438 56.449219 48.808594 56.242188 48.824219 C 55.859375 48.855469 55.863281 48.257812 56.242188 48.226562 C 56.445312 48.207031 56.640625 48.171875 56.839844 48.171875 C 56.980469 48.171875 57.070312 48.253906 57.109375 48.355469 C 57.121094 48.214844 57.210938 48.082031 57.394531 48.078125 C 57.558594 48.070312 57.726562 48.035156 57.890625 48.027344 " fill-opacity="1" fill-rule="nonzero"/><path fill="#ffffff" d="M 57.640625 40.285156 C 58.027344 40.285156 58.027344 40.886719 57.640625 40.886719 C 57.460938 40.886719 57.277344 40.886719 57.09375 40.886719 C 56.707031 40.886719 56.707031 40.285156 57.09375 40.285156 C 57.277344 40.285156 57.460938 40.285156 57.640625 40.285156 " fill-opacity="1" fill-rule="nonzero"/><path fill="#ffffff" d="M 56.945312 44.882812 C 56.964844 44.496094 57.5625 44.496094 57.542969 44.882812 C 57.535156 44.972656 57.515625 45.070312 57.496094 45.164062 C 57.492188 45.199219 57.488281 45.359375 57.457031 45.316406 C 57.554688 45.445312 57.578125 45.617188 57.457031 45.738281 C 57.347656 45.847656 57.132812 45.867188 57.03125 45.738281 C 56.800781 45.453125 56.925781 45.167969 56.945312 44.882812 " fill-opacity="1" fill-rule="nonzero"/><path fill="#ffffff" d="M 56.890625 49.277344 C 57.277344 49.238281 57.277344 49.839844 56.890625 49.875 C 56.792969 49.882812 56.699219 49.921875 56.59375 49.921875 C 56.507812 49.921875 56.453125 49.929688 56.375 49.964844 C 56.222656 50.023438 56.046875 49.894531 56.007812 49.75 C 55.957031 49.582031 56.0625 49.449219 56.214844 49.382812 C 56.34375 49.332031 56.460938 49.335938 56.59375 49.324219 C 56.695312 49.316406 56.792969 49.285156 56.890625 49.277344 " fill-opacity="1" fill-rule="nonzero"/><path fill="#ffffff" d="M 56.171875 45.382812 C 56.164062 45.382812 56.160156 45.386719 56.15625 45.390625 C 56.160156 45.382812 56.171875 45.371094 56.175781 45.351562 C 56.183594 45.296875 56.199219 45.238281 56.207031 45.183594 C 56.21875 45.105469 56.226562 45.019531 56.253906 44.949219 C 56.3125 44.796875 56.453125 44.695312 56.621094 44.742188 C 56.769531 44.78125 56.890625 44.957031 56.832031 45.109375 C 56.726562 45.371094 56.796875 45.734375 56.492188 45.890625 C 56.171875 46.050781 55.886719 45.601562 56.148438 45.40625 C 56.148438 45.402344 56.148438 45.402344 56.152344 45.402344 C 56.160156 45.394531 56.164062 45.390625 56.171875 45.382812 " fill-opacity="1" fill-rule="nonzero"/><path fill="#ffffff" d="M 55.894531 40.425781 C 56.214844 40.210938 56.511719 40.730469 56.195312 40.941406 C 56.101562 41.003906 56.046875 41.125 55.949219 41.195312 C 55.625 41.410156 55.324219 40.890625 55.644531 40.671875 C 55.738281 40.609375 55.789062 40.496094 55.894531 40.425781 " fill-opacity="1" fill-rule="nonzero"/><path fill="#ffffff" d="M 55.996094 32.542969 C 56.394531 32.542969 56.394531 32.941406 55.996094 32.941406 C 55.59375 32.941406 54.796875 32.941406 54.796875 32.941406 C 54.394531 32.941406 54.394531 32.542969 54.796875 32.542969 C 55.195312 32.542969 55.59375 32.542969 55.996094 32.542969 " fill-opacity="1" fill-rule="nonzero"/><path fill="#ffffff" d="M 55.792969 45.179688 C 55.796875 45.445312 55.828125 45.746094 55.609375 45.941406 C 55.316406 46.1875 54.886719 45.769531 55.183594 45.515625 C 55.238281 45.46875 55.195312 45.257812 55.195312 45.179688 C 55.1875 44.792969 55.785156 44.792969 55.792969 45.179688 " fill-opacity="1" fill-rule="nonzero"/><path fill="#ffffff" d="M 55.496094 49.425781 C 55.882812 49.414062 55.878906 50.011719 55.496094 50.023438 C 55.242188 50.03125 55 50.117188 54.746094 50.125 C 54.359375 50.136719 54.359375 49.535156 54.746094 49.523438 C 55 49.515625 55.242188 49.433594 55.496094 49.425781 " fill-opacity="1" fill-rule="nonzero"/><path fill="#ffffff" d="M 55.496094 48.277344 C 55.882812 48.277344 55.882812 48.875 55.496094 48.875 C 55.296875 48.875 55.09375 48.875 54.894531 48.875 C 54.507812 48.875 54.507812 48.277344 54.894531 48.277344 C 55.09375 48.277344 55.296875 48.277344 55.496094 48.277344 " fill-opacity="1" fill-rule="nonzero"/><path fill="#ffffff" d="M 55.195312 38.183594 C 55.195312 38.671875 55.292969 39.308594 54.671875 39.34375 C 54.070312 39.375 53.390625 37.875 53.109375 37.539062 C 52.613281 36.9375 52.394531 36.171875 52.089844 35.449219 C 52.167969 37.1875 52.148438 39.335938 52.148438 39.335938 C 52.148438 39.734375 51.550781 39.734375 51.550781 39.335938 C 51.550781 37.339844 51.59375 35.882812 51.40625 34.1875 C 51.378906 33.9375 51.769531 33.734375 51.929688 33.929688 C 52.347656 34.445312 52.703125 35.085938 52.925781 35.710938 C 53.246094 36.617188 53.820312 37.332031 54.355469 38.105469 C 54.546875 38.382812 54.796875 38.820312 54.796875 38.183594 C 54.796875 37.730469 54.796875 37.269531 54.796875 36.8125 C 54.796875 35.90625 54.796875 34.941406 54.796875 34.140625 C 54.796875 33.742188 55.195312 33.742188 55.195312 34.140625 C 55.195312 35.339844 55.195312 36.820312 55.195312 38.183594 " fill-opacity="1" fill-rule="nonzero"/><path fill="#ffffff" d="M 55.160156 40.320312 C 55.265625 40.425781 55.289062 40.644531 55.160156 40.746094 C 55.058594 40.824219 55.046875 40.914062 55.042969 41.03125 C 55.035156 41.421875 54.4375 41.421875 54.445312 41.03125 C 54.453125 40.769531 54.515625 40.496094 54.730469 40.320312 C 54.863281 40.222656 55.03125 40.195312 55.160156 40.320312 " fill-opacity="1" fill-rule="nonzero"/><path fill="#ffffff" d="M 54.644531 45.679688 C 54.664062 46.0625 54.066406 46.0625 54.042969 45.679688 C 54.027344 45.300781 53.894531 44.886719 54.089844 44.53125 C 54.273438 44.191406 54.792969 44.492188 54.605469 44.832031 C 54.550781 44.929688 54.59375 45.078125 54.597656 45.1875 C 54.601562 45.351562 54.636719 45.515625 54.644531 45.679688 " fill-opacity="1" fill-rule="nonzero"/><path fill="#ffffff" d="M 54.347656 40.128906 C 54.476562 40.203125 54.550781 40.40625 54.457031 40.535156 C 54.269531 40.78125 54.074219 41.023438 53.859375 41.246094 C 53.589844 41.523438 53.164062 41.097656 53.433594 40.824219 C 53.617188 40.636719 53.78125 40.4375 53.9375 40.234375 C 54.035156 40.101562 54.191406 40.035156 54.347656 40.128906 " fill-opacity="1" fill-rule="nonzero"/><path fill="#ffffff" d="M 54.421875 48.492188 C 54.511719 49.039062 54.050781 48.925781 53.695312 48.925781 C 53.578125 48.925781 53.5 48.816406 53.453125 48.738281 C 53.429688 48.773438 53.398438 48.757812 53.347656 48.785156 C 53.109375 48.910156 52.855469 48.878906 52.597656 48.875 C 52.210938 48.863281 52.210938 48.265625 52.597656 48.277344 C 52.730469 48.277344 52.925781 48.304688 53.046875 48.242188 C 53.214844 48.148438 53.371094 48.203125 53.445312 48.328125 C 53.488281 48.242188 53.570312 48.125 53.695312 48.125 C 54.023438 48.125 54.359375 48.082031 54.421875 48.492188 " fill-opacity="1" fill-rule="nonzero"/><path fill="#ffffff" d="M 53.75 49.675781 C 54.132812 49.667969 54.132812 50.265625 53.75 50.273438 C 53.496094 50.277344 53.25 50.320312 53 50.324219 C 52.609375 50.332031 52.609375 49.730469 53 49.722656 C 53.25 49.71875 53.496094 49.679688 53.75 49.675781 " fill-opacity="1" fill-rule="nonzero"/><path fill="#ffffff" d="M 53.183594 32.632812 C 53.246094 32.570312 53.199219 32.402344 53.160156 32.335938 C 53.109375 32.25 53.003906 32.246094 52.917969 32.246094 C 52.785156 32.242188 52.570312 32.210938 52.425781 32.261719 C 52.429688 32.28125 52.433594 32.296875 52.4375 32.316406 C 52.464844 32.390625 52.484375 32.460938 52.488281 32.542969 C 52.496094 32.617188 52.53125 32.734375 52.648438 32.742188 C 52.738281 32.75 52.800781 32.789062 52.847656 32.84375 C 52.980469 32.78125 53.132812 32.679688 53.183594 32.632812 Z M 53.753906 32.199219 C 53.828125 32.449219 53.859375 32.816406 53.648438 33.015625 C 53.292969 33.355469 52.683594 33.664062 52.234375 33.308594 C 52.164062 33.246094 52.132812 33.179688 52.132812 33.113281 C 52.03125 33.023438 51.949219 32.910156 51.910156 32.769531 C 51.882812 32.683594 51.875 32.5625 51.859375 32.46875 C 51.851562 32.417969 51.828125 32.371094 51.816406 32.320312 C 51.796875 32.199219 51.789062 32.070312 51.855469 31.96875 C 52.089844 31.589844 52.753906 31.582031 53.144531 31.664062 C 53.4375 31.726562 53.660156 31.914062 53.753906 32.199219 " fill-opacity="1" fill-rule="nonzero"/><path fill="#ffffff" d="M 52.933594 40.269531 C 53.210938 40 53.632812 40.421875 53.363281 40.699219 C 53.265625 40.789062 53.175781 40.882812 53.136719 41.011719 C 53.027344 41.378906 52.445312 41.226562 52.558594 40.855469 C 52.628906 40.621094 52.765625 40.441406 52.933594 40.269531 " fill-opacity="1" fill-rule="nonzero"/><path fill="#ffffff" d="M 52.246094 45.128906 C 52.261719 44.746094 52.859375 44.742188 52.84375 45.128906 C 52.839844 45.296875 52.804688 45.460938 52.796875 45.628906 C 52.78125 46.011719 52.183594 46.015625 52.199219 45.628906 C 52.207031 45.460938 52.242188 45.296875 52.246094 45.128906 " fill-opacity="1" fill-rule="nonzero"/><path fill="#ffffff" d="M 51.960938 40.253906 C 52.066406 39.882812 52.644531 40.042969 52.539062 40.414062 C 52.476562 40.621094 52.378906 40.804688 52.257812 40.984375 C 52.046875 41.304688 51.527344 41.003906 51.738281 40.679688 C 51.832031 40.546875 51.914062 40.414062 51.960938 40.253906 " fill-opacity="1" fill-rule="nonzero"/><path fill="#ffffff" d="M 52.351562 49.722656 C 52.734375 49.730469 52.734375 50.332031 52.351562 50.324219 C 52.097656 50.320312 51.851562 50.277344 51.597656 50.273438 C 51.445312 50.269531 51.359375 50.175781 51.324219 50.0625 C 51.296875 50.179688 51.203125 50.273438 51.046875 50.273438 C 50.816406 50.265625 50.585938 50.226562 50.351562 50.222656 C 49.964844 50.214844 49.964844 49.617188 50.351562 49.625 C 50.585938 49.628906 50.816406 49.667969 51.046875 49.675781 C 51.199219 49.675781 51.292969 49.773438 51.324219 49.882812 C 51.355469 49.769531 51.441406 49.671875 51.597656 49.675781 C 51.851562 49.679688 52.097656 49.71875 52.351562 49.722656 " fill-opacity="1" fill-rule="nonzero"/><path fill="#ffffff" d="M 51.671875 48.238281 C 52.046875 48.164062 52.207031 48.746094 51.828125 48.8125 C 51.570312 48.859375 51.3125 48.871094 51.046875 48.875 C 50.664062 48.875 50.664062 48.277344 51.046875 48.277344 C 51.261719 48.273438 51.460938 48.273438 51.671875 48.238281 " fill-opacity="1" fill-rule="nonzero"/><path fill="#ffffff" d="M 51.796875 44.882812 C 51.796875 45.097656 51.796875 45.3125 51.796875 45.53125 C 51.796875 45.917969 51.199219 45.917969 51.199219 45.53125 C 51.199219 45.3125 51.199219 45.097656 51.199219 44.882812 C 51.199219 44.496094 51.796875 44.496094 51.796875 44.882812 " fill-opacity="1" fill-rule="nonzero"/><path fill="#ffffff" d="M 51.148438 40.074219 C 51.488281 39.886719 51.785156 40.40625 51.449219 40.59375 C 51.25 40.707031 51.214844 40.945312 51.105469 41.132812 C 50.921875 41.472656 50.398438 41.171875 50.59375 40.835938 C 50.761719 40.535156 50.828125 40.253906 51.148438 40.074219 " fill-opacity="1" fill-rule="nonzero"/><path fill="#ffffff" d="M 51.199219 32.191406 C 51.585938 32.191406 51.585938 32.941406 51.199219 32.941406 C 51.03125 32.941406 50.867188 32.941406 50.699219 32.941406 C 50.605469 32.941406 50.632812 32.90625 50.542969 32.933594 C 50.34375 32.988281 50 32.894531 50 32.894531 C 49.601562 32.894531 49.601562 32.296875 50 32.296875 C 50 32.296875 50.199219 32.308594 50.324219 32.296875 C 50.402344 32.285156 50.390625 32.222656 50.46875 32.210938 C 50.707031 32.175781 50.957031 32.191406 51.199219 32.191406 " fill-opacity="1" fill-rule="nonzero"/><path fill="#ffffff" d="M 50.957031 45.464844 C 51.195312 45.667969 50.917969 46.101562 50.601562 45.9375 C 50.261719 45.765625 50.347656 45.238281 50.351562 44.929688 C 50.355469 44.542969 50.957031 44.542969 50.953125 44.929688 C 50.949219 45.035156 50.941406 45.144531 50.945312 45.253906 C 50.945312 45.308594 50.9375 45.371094 50.949219 45.429688 C 50.953125 45.449219 50.957031 45.457031 50.957031 45.464844 " fill-opacity="1" fill-rule="nonzero"/><path fill="#ffffff" d="M 50.425781 48.238281 C 50.800781 48.34375 50.644531 48.921875 50.273438 48.8125 C 50.148438 48.78125 50.027344 48.777344 49.902344 48.773438 C 49.515625 48.773438 49.515625 48.171875 49.902344 48.171875 C 50.078125 48.175781 50.257812 48.183594 50.425781 48.238281 " fill-opacity="1" fill-rule="nonzero"/><path fill="#ffffff" d="M 49.894531 40.332031 C 50.0625 39.984375 50.578125 40.289062 50.40625 40.632812 C 50.316406 40.828125 50.238281 41.015625 50.050781 41.140625 C 49.730469 41.355469 49.429688 40.839844 49.75 40.625 C 49.796875 40.59375 49.855469 40.402344 49.894531 40.332031 " fill-opacity="1" fill-rule="nonzero"/><path fill="#ffffff" d="M 49.359375 44.800781 C 49.445312 44.421875 50.019531 44.582031 49.941406 44.957031 C 49.894531 45.183594 49.808594 45.402344 49.800781 45.628906 C 49.789062 46.011719 49.191406 46.015625 49.203125 45.628906 C 49.210938 45.339844 49.300781 45.078125 49.359375 44.800781 " fill-opacity="1" fill-rule="nonzero"/><path fill="#ffffff" d="M 49.753906 38.636719 C 50.136719 38.613281 50.136719 39.214844 49.753906 39.234375 C 49.566406 39.246094 49.390625 39.339844 49.207031 39.371094 C 49.007812 39.40625 48.800781 39.429688 48.601562 39.4375 C 48.214844 39.457031 48.21875 38.855469 48.601562 38.835938 C 48.664062 38.832031 48.738281 38.828125 48.808594 38.824219 C 48.542969 37.402344 48.480469 35.839844 48.503906 34.386719 C 48.4375 34.386719 48.367188 34.390625 48.304688 34.390625 C 47.914062 34.402344 47.941406 33.800781 48.324219 33.789062 C 48.746094 33.78125 49.203125 33.742188 49.601562 33.742188 C 50 33.742188 50 34.339844 49.601562 34.339844 C 49.441406 34.339844 49.269531 34.351562 49.09375 34.355469 C 49.070312 35.082031 49.011719 35.945312 49.242188 36.613281 C 49.328125 36.863281 49.253906 37.246094 49.277344 37.511719 C 49.3125 37.902344 49.316406 38.320312 49.390625 38.703125 C 49.511719 38.671875 49.625 38.644531 49.753906 38.636719 " fill-opacity="1" fill-rule="nonzero"/><path fill="#ffffff" d="M 49.328125 49.582031 C 49.695312 49.703125 49.542969 50.277344 49.175781 50.164062 C 49.027344 50.117188 48.878906 50.078125 48.730469 50.03125 C 48.574219 49.980469 48.386719 50.007812 48.222656 49.964844 C 47.851562 49.859375 48.011719 49.28125 48.382812 49.382812 C 48.550781 49.433594 48.722656 49.40625 48.890625 49.453125 C 49.039062 49.5 49.1875 49.535156 49.328125 49.582031 " fill-opacity="1" fill-rule="nonzero"/><path fill="#ffffff" d="M 48.882812 44.675781 C 49.054688 44.726562 49.121094 44.875 49.089844 45.03125 C 49.054688 45.273438 49.050781 45.726562 49.050781 45.726562 C 49.050781 46.128906 48.453125 46.128906 48.453125 45.726562 C 48.453125 45.328125 48.46875 45.164062 48.515625 44.871094 C 48.539062 44.707031 48.738281 44.636719 48.882812 44.675781 " fill-opacity="1" fill-rule="nonzero"/><path fill="#ffffff" d="M 48.851562 40.332031 C 49.238281 40.332031 49.238281 40.933594 48.851562 40.933594 C 48.632812 40.933594 48.417969 40.933594 48.203125 40.933594 C 47.816406 40.933594 47.816406 40.332031 48.203125 40.332031 C 48.417969 40.332031 48.632812 40.332031 48.851562 40.332031 " fill-opacity="1" fill-rule="nonzero"/><path fill="#ffffff" d="M 48.703125 48.078125 C 49.089844 48.082031 49.089844 48.683594 48.703125 48.675781 C 48.441406 48.667969 48.183594 48.617188 47.921875 48.5625 C 47.542969 48.488281 47.703125 47.910156 48.085938 47.988281 C 48.289062 48.03125 48.492188 48.070312 48.703125 48.078125 " fill-opacity="1" fill-rule="nonzero"/><path fill="#ffffff" d="M 48.070312 45.109375 C 48.089844 45.082031 48.058594 45.175781 48.054688 45.1875 C 48.046875 45.226562 48.039062 45.265625 48.035156 45.304688 C 48.035156 45.351562 48.03125 45.40625 48.035156 45.457031 C 48.25 45.65625 48.09375 46.089844 47.777344 45.96875 C 47.332031 45.796875 47.386719 45.191406 47.542969 44.832031 C 47.613281 44.675781 47.828125 44.644531 47.957031 44.722656 C 48.101562 44.804688 48.128906 44.964844 48.070312 45.109375 " fill-opacity="1" fill-rule="nonzero"/></svg>