<svg xmlns="http://www.w3.org/2000/svg" xmlns:xlink="http://www.w3.org/1999/xlink" width="95" zoomAndPan="magnify" viewBox="0 0 71.25 64.499999" height="86" preserveAspectRatio="xMidYMid meet" version="1.0"><defs><clipPath id="a7d39b8b53"><path d="M 17.875 2.292969 L 28 2.292969 L 28 61.667969 L 17.875 61.667969 Z M 17.875 2.292969 " clip-rule="nonzero"/></clipPath><clipPath id="d2faf27c74"><path d="M 30 2.292969 L 40 2.292969 L 40 61.667969 L 30 61.667969 Z M 30 2.292969 " clip-rule="nonzero"/></clipPath><clipPath id="682151ec62"><path d="M 42.855469 2.292969 L 52.601562 2.292969 L 52.601562 61.667969 L 42.855469 61.667969 Z M 42.855469 2.292969 " clip-rule="nonzero"/></clipPath></defs><path fill="#ffffff" d="M 24.617188 9.007812 C 24.125 9.503906 23.472656 9.773438 22.773438 9.773438 C 22.078125 9.773438 21.421875 9.503906 20.929688 9.007812 C 20.4375 8.515625 20.164062 7.859375 20.164062 7.164062 C 20.164062 6.46875 20.4375 5.8125 20.929688 5.320312 C 21.421875 4.824219 22.078125 4.554688 22.773438 4.554688 C 23.472656 4.554688 24.125 4.824219 24.617188 5.320312 C 25.113281 5.8125 25.382812 6.46875 25.382812 7.164062 C 25.382812 7.859375 25.113281 8.515625 24.617188 9.007812 Z M 22.773438 4.105469 C 21.957031 4.105469 21.1875 4.421875 20.609375 5 C 20.03125 5.578125 19.714844 6.347656 19.714844 7.164062 C 19.714844 7.980469 20.03125 8.75 20.609375 9.328125 C 21.1875 9.90625 21.957031 10.222656 22.773438 10.222656 C 23.589844 10.222656 24.359375 9.90625 24.9375 9.328125 C 25.515625 8.75 25.835938 7.980469 25.835938 7.164062 C 25.835938 6.347656 25.515625 5.578125 24.9375 5 C 24.359375 4.421875 23.589844 4.105469 22.773438 4.105469 " fill-opacity="1" fill-rule="nonzero"/><g clip-path="url(#a7d39b8b53)"><path fill="#ffffff" d="M 25.890625 10.28125 C 25.269531 10.902344 24.46875 11.332031 23.636719 11.488281 C 23.53125 11.507812 23.453125 11.601562 23.453125 11.710938 L 23.453125 33.730469 L 22.097656 33.730469 L 22.097656 11.710938 C 22.097656 11.601562 22.019531 11.507812 21.910156 11.488281 C 21.054688 11.332031 20.265625 10.914062 19.632812 10.28125 C 18.820312 9.46875 18.355469 8.332031 18.355469 7.164062 C 18.355469 5.996094 18.820312 4.859375 19.632812 4.046875 C 20.472656 3.207031 21.589844 2.746094 22.773438 2.746094 C 23.949219 2.746094 25.085938 3.21875 25.894531 4.050781 C 26.71875 4.851562 27.191406 5.988281 27.191406 7.164062 C 27.191406 8.339844 26.71875 9.476562 25.890625 10.28125 Z M 25.605469 35.222656 L 19.921875 35.222656 L 19.921875 34.179688 L 25.605469 34.179688 Z M 23.453125 60.480469 L 22.773438 61.160156 L 22.097656 60.480469 L 22.097656 35.671875 L 23.453125 35.671875 Z M 22.773438 2.296875 C 21.46875 2.296875 20.242188 2.804688 19.316406 3.730469 C 18.417969 4.625 17.90625 5.878906 17.90625 7.164062 C 17.90625 8.453125 18.417969 9.703125 19.316406 10.597656 C 19.96875 11.253906 20.769531 11.699219 21.644531 11.894531 L 21.644531 33.730469 L 19.695312 33.730469 C 19.570312 33.730469 19.46875 33.832031 19.46875 33.953125 L 19.46875 35.445312 C 19.46875 35.570312 19.570312 35.671875 19.695312 35.671875 L 21.644531 35.671875 L 21.644531 60.574219 C 21.644531 60.632812 21.667969 60.691406 21.710938 60.734375 L 22.613281 61.636719 C 22.65625 61.679688 22.714844 61.703125 22.773438 61.703125 C 22.835938 61.703125 22.890625 61.679688 22.933594 61.636719 L 23.839844 60.734375 C 23.878906 60.691406 23.90625 60.632812 23.90625 60.574219 L 23.90625 35.671875 L 25.828125 35.671875 C 25.953125 35.671875 26.054688 35.570312 26.054688 35.445312 L 26.054688 33.953125 C 26.054688 33.832031 25.953125 33.730469 25.828125 33.730469 L 23.90625 33.730469 L 23.90625 11.894531 C 24.757812 11.695312 25.570312 11.238281 26.207031 10.601562 C 27.121094 9.714844 27.644531 8.460938 27.644531 7.164062 C 27.644531 5.867188 27.121094 4.613281 26.210938 3.730469 C 25.324219 2.816406 24.070312 2.292969 22.773438 2.292969 " fill-opacity="1" fill-rule="nonzero"/></g><g clip-path="url(#d2faf27c74)"><path fill="#ffffff" d="M 38.089844 10.28125 C 37.457031 10.914062 36.667969 11.332031 35.8125 11.488281 C 35.703125 11.507812 35.625 11.601562 35.625 11.710938 L 35.625 33.730469 L 34.269531 33.730469 L 34.269531 11.710938 C 34.269531 11.601562 34.191406 11.511719 34.085938 11.488281 C 33.253906 11.332031 32.453125 10.902344 31.828125 10.277344 C 31.003906 9.476562 30.527344 8.339844 30.527344 7.164062 C 30.527344 5.988281 31.003906 4.851562 31.832031 4.046875 C 32.636719 3.21875 33.773438 2.746094 34.949219 2.746094 C 36.132812 2.746094 37.25 3.207031 38.089844 4.046875 C 38.902344 4.859375 39.367188 5.996094 39.367188 7.164062 C 39.367188 8.332031 38.902344 9.46875 38.089844 10.28125 Z M 37.800781 35.222656 L 32.117188 35.222656 L 32.117188 34.179688 L 37.800781 34.179688 Z M 37.191406 60.480469 L 36.511719 61.160156 L 35.832031 60.480469 L 35.832031 35.671875 L 37.191406 35.671875 Z M 34.085938 60.480469 L 33.386719 61.164062 L 32.703125 60.480469 L 32.703125 35.671875 L 34.085938 35.671875 Z M 34.949219 2.296875 C 33.652344 2.296875 32.398438 2.820312 31.515625 3.726562 C 30.601562 4.613281 30.078125 5.867188 30.078125 7.164062 C 30.078125 8.460938 30.601562 9.714844 31.511719 10.597656 C 32.152344 11.238281 32.964844 11.695312 33.816406 11.894531 L 33.816406 33.730469 L 31.890625 33.730469 C 31.765625 33.730469 31.667969 33.832031 31.667969 33.957031 L 31.667969 35.449219 C 31.667969 35.570312 31.765625 35.671875 31.890625 35.671875 L 32.253906 35.671875 L 32.253906 60.574219 C 32.253906 60.632812 32.277344 60.691406 32.320312 60.734375 L 33.222656 61.640625 C 33.269531 61.683594 33.324219 61.707031 33.382812 61.707031 C 33.441406 61.707031 33.496094 61.683594 33.539062 61.640625 L 34.46875 60.734375 C 34.511719 60.695312 34.539062 60.636719 34.539062 60.574219 L 34.539062 35.671875 L 35.382812 35.671875 L 35.382812 60.574219 C 35.382812 60.632812 35.40625 60.691406 35.449219 60.734375 L 36.351562 61.640625 C 36.394531 61.679688 36.453125 61.707031 36.511719 61.707031 C 36.570312 61.707031 36.628906 61.679688 36.671875 61.640625 L 37.574219 60.734375 C 37.617188 60.691406 37.640625 60.632812 37.640625 60.574219 L 37.640625 35.671875 L 38.027344 35.671875 C 38.152344 35.671875 38.253906 35.570312 38.253906 35.449219 L 38.253906 33.957031 C 38.253906 33.832031 38.152344 33.730469 38.027344 33.730469 L 36.078125 33.730469 L 36.078125 11.894531 C 36.953125 11.699219 37.753906 11.253906 38.40625 10.597656 C 39.304688 9.703125 39.816406 8.449219 39.816406 7.164062 C 39.816406 5.878906 39.304688 4.625 38.40625 3.730469 C 37.480469 2.804688 36.253906 2.296875 34.949219 2.296875 " fill-opacity="1" fill-rule="nonzero"/></g><path fill="#ffffff" d="M 36.792969 9.007812 C 36.300781 9.503906 35.644531 9.773438 34.949219 9.773438 C 34.25 9.773438 33.597656 9.503906 33.101562 9.007812 C 32.609375 8.515625 32.335938 7.859375 32.335938 7.164062 C 32.335938 6.46875 32.609375 5.8125 33.101562 5.320312 C 33.597656 4.824219 34.25 4.554688 34.949219 4.554688 C 35.644531 4.554688 36.300781 4.824219 36.792969 5.320312 C 37.285156 5.8125 37.558594 6.46875 37.558594 7.164062 C 37.558594 7.859375 37.285156 8.515625 36.792969 9.007812 Z M 34.949219 4.105469 C 34.128906 4.105469 33.363281 4.421875 32.785156 5 C 32.207031 5.578125 31.886719 6.347656 31.886719 7.164062 C 31.886719 7.980469 32.207031 8.75 32.785156 9.328125 C 33.363281 9.90625 34.128906 10.222656 34.949219 10.222656 C 35.765625 10.222656 36.53125 9.90625 37.109375 9.328125 C 37.6875 8.75 38.007812 7.980469 38.007812 7.164062 C 38.007812 6.347656 37.6875 5.578125 37.109375 5 C 36.53125 4.421875 35.765625 4.105469 34.949219 4.105469 " fill-opacity="1" fill-rule="nonzero"/><path fill="#ffffff" d="M 45.121094 7.164062 C 45.121094 6.46875 45.394531 5.8125 45.886719 5.320312 C 46.378906 4.824219 47.035156 4.554688 47.730469 4.554688 C 48.429688 4.554688 49.082031 4.824219 49.578125 5.320312 C 50.070312 5.8125 50.34375 6.46875 50.34375 7.164062 C 50.34375 7.859375 50.070312 8.515625 49.578125 9.007812 C 49.082031 9.503906 48.429688 9.773438 47.730469 9.773438 C 47.035156 9.773438 46.378906 9.503906 45.886719 9.007812 C 45.394531 8.515625 45.121094 7.859375 45.121094 7.164062 Z M 49.894531 9.328125 C 50.472656 8.75 50.792969 7.980469 50.792969 7.164062 C 50.792969 6.347656 50.472656 5.578125 49.894531 5 C 49.316406 4.421875 48.550781 4.105469 47.730469 4.105469 C 46.914062 4.105469 46.148438 4.421875 45.570312 5 C 44.988281 5.578125 44.671875 6.347656 44.671875 7.164062 C 44.671875 7.980469 44.988281 8.75 45.570312 9.328125 C 46.148438 9.90625 46.914062 10.222656 47.730469 10.222656 C 48.550781 10.222656 49.316406 9.90625 49.894531 9.328125 " fill-opacity="1" fill-rule="nonzero"/><g clip-path="url(#682151ec62)"><path fill="#ffffff" d="M 52.054688 35.222656 L 43.410156 35.222656 L 43.410156 34.179688 L 52.054688 34.179688 Z M 51.367188 60.480469 L 50.691406 61.160156 L 50.011719 60.480469 L 50.011719 35.671875 L 51.367188 35.671875 Z M 48.410156 60.484375 C 48.238281 60.671875 48.054688 60.847656 47.875 61.023438 C 47.828125 61.070312 47.78125 61.117188 47.730469 61.160156 C 47.683594 61.117188 47.636719 61.070312 47.589844 61.023438 C 47.410156 60.847656 47.226562 60.671875 47.054688 60.484375 L 47.054688 35.671875 L 48.410156 35.671875 Z M 45.453125 60.480469 L 44.773438 61.160156 L 44.09375 60.480469 L 44.09375 35.671875 L 45.453125 35.671875 Z M 46.867188 11.488281 C 46.03125 11.335938 45.25 10.917969 44.613281 10.277344 C 43.789062 9.476562 43.3125 8.339844 43.3125 7.164062 C 43.3125 5.988281 43.789062 4.855469 44.617188 4.046875 C 45.433594 3.207031 46.539062 2.746094 47.730469 2.746094 C 48.90625 2.746094 50.042969 3.21875 50.851562 4.050781 C 51.675781 4.855469 52.152344 5.988281 52.152344 7.164062 C 52.152344 8.339844 51.675781 9.476562 50.847656 10.28125 C 50.210938 10.917969 49.433594 11.335938 48.597656 11.488281 C 48.488281 11.507812 48.410156 11.601562 48.410156 11.710938 L 48.410156 33.730469 L 47.054688 33.730469 L 47.054688 11.710938 C 47.054688 11.601562 46.976562 11.511719 46.867188 11.492188 Z M 52.277344 33.730469 L 48.863281 33.730469 L 48.863281 11.894531 C 49.71875 11.699219 50.511719 11.253906 51.164062 10.601562 C 52.078125 9.714844 52.601562 8.460938 52.601562 7.164062 C 52.601562 5.867188 52.078125 4.613281 51.167969 3.734375 C 50.28125 2.820312 49.027344 2.296875 47.730469 2.296875 C 46.417969 2.296875 45.195312 2.804688 44.300781 3.726562 C 43.386719 4.613281 42.863281 5.867188 42.863281 7.164062 C 42.863281 8.460938 43.386719 9.714844 44.296875 10.601562 C 44.949219 11.253906 45.746094 11.699219 46.601562 11.894531 L 46.601562 33.730469 L 43.183594 33.730469 C 43.058594 33.730469 42.960938 33.832031 42.960938 33.957031 L 42.960938 35.449219 C 42.960938 35.570312 43.058594 35.671875 43.183594 35.671875 L 43.644531 35.671875 L 43.644531 60.574219 C 43.644531 60.636719 43.667969 60.691406 43.710938 60.734375 L 44.613281 61.640625 C 44.65625 61.683594 44.714844 61.707031 44.773438 61.707031 C 44.835938 61.707031 44.890625 61.683594 44.933594 61.640625 L 45.835938 60.734375 C 45.878906 60.691406 45.902344 60.636719 45.902344 60.574219 L 45.902344 35.671875 L 46.601562 35.671875 L 46.601562 60.574219 C 46.601562 60.632812 46.625 60.6875 46.660156 60.730469 C 46.859375 60.941406 47.070312 61.148438 47.273438 61.347656 C 47.375 61.445312 47.476562 61.542969 47.574219 61.640625 C 47.613281 61.683594 47.671875 61.707031 47.730469 61.707031 C 47.792969 61.707031 47.851562 61.683594 47.890625 61.640625 C 47.988281 61.542969 48.089844 61.445312 48.1875 61.347656 C 48.394531 61.148438 48.605469 60.941406 48.800781 60.730469 C 48.839844 60.6875 48.863281 60.632812 48.863281 60.574219 L 48.863281 35.671875 L 49.558594 35.671875 L 49.558594 60.574219 C 49.558594 60.636719 49.582031 60.691406 49.625 60.734375 L 50.53125 61.640625 C 50.570312 61.683594 50.628906 61.707031 50.691406 61.707031 C 50.75 61.707031 50.808594 61.683594 50.847656 61.640625 L 51.753906 60.734375 C 51.796875 60.691406 51.820312 60.636719 51.820312 60.574219 L 51.820312 35.671875 L 52.277344 35.671875 C 52.402344 35.671875 52.503906 35.570312 52.503906 35.449219 L 52.503906 33.957031 C 52.503906 33.832031 52.402344 33.730469 52.277344 33.730469 " fill-opacity="1" fill-rule="nonzero"/></g></svg>